<svg width="347" height="333" viewBox="0 0 347 333" fill="none" xmlns="http://www.w3.org/2000/svg">
<g clip-path="url(#clip0_75_252)">
<path d="M312.489 322.611C313.803 322.693 314.529 321.06 313.535 320.109L313.436 319.715C313.449 319.684 313.462 319.652 313.476 319.621C314.804 316.452 319.308 316.474 320.626 319.648C321.795 322.464 323.284 325.286 323.65 328.264C323.815 329.579 323.741 330.918 323.449 332.208C326.189 326.222 327.631 319.686 327.631 313.112C327.631 311.46 327.541 309.809 327.356 308.161C327.204 306.814 326.994 305.474 326.723 304.147C325.257 296.974 322.081 290.141 317.501 284.435C315.299 283.231 313.462 281.349 312.353 279.094C311.955 278.28 311.643 277.405 311.495 276.513C311.745 276.546 312.44 272.73 312.251 272.495C312.6 271.965 313.225 271.702 313.606 271.185C315.503 268.613 318.116 269.062 319.481 272.557C322.395 274.028 322.423 276.468 320.635 278.814C319.497 280.307 319.341 282.327 318.343 283.925C318.446 284.057 318.552 284.184 318.655 284.316C320.538 286.731 322.167 289.328 323.541 292.056C323.152 289.024 323.725 285.372 324.702 283.017C325.814 280.335 327.898 278.075 329.734 275.756C331.938 272.97 336.459 274.186 336.847 277.717C336.851 277.752 336.854 277.786 336.858 277.82C336.585 277.974 336.318 278.137 336.057 278.31C334.569 279.294 335.084 281.601 336.847 281.873L336.887 281.879C336.788 282.861 336.62 283.835 336.373 284.792C338.728 293.898 333.645 297.215 326.387 297.364C326.226 297.446 326.07 297.528 325.91 297.607C326.645 299.677 327.233 301.801 327.668 303.954C328.058 305.856 328.33 307.779 328.482 309.71C328.671 312.146 328.654 314.595 328.449 317.027L328.461 316.941C328.983 314.262 330.437 311.76 332.549 310.027C335.694 307.442 340.138 306.491 343.532 304.413C345.166 303.413 347.259 304.706 346.974 306.6L346.96 306.69C346.455 306.896 345.962 307.134 345.485 307.401C345.212 307.555 344.945 307.718 344.684 307.891C343.196 308.875 343.711 311.182 345.474 311.454L345.514 311.46C345.543 311.464 345.567 311.469 345.596 311.473C344.729 313.531 343.521 315.442 342.01 317.089C340.537 325.038 334.214 325.793 327.45 323.478H327.446C326.707 326.699 325.626 329.846 324.238 332.845H312.776C312.735 332.718 312.698 332.586 312.661 332.459C313.721 332.525 314.789 332.463 315.833 332.27C314.982 331.226 314.132 330.175 313.282 329.131C313.261 329.11 313.245 329.09 313.228 329.069C312.797 328.535 312.361 328.005 311.93 327.471L311.93 327.471C311.903 325.831 312.1 324.197 312.489 322.611Z" fill="#F2F2F2"/>
<path d="M101.609 332.243C101.609 332.663 101.946 333 102.366 333H346.154C346.574 333 346.911 332.663 346.911 332.243C346.911 331.823 346.574 331.486 346.154 331.486H102.366C101.946 331.486 101.609 331.823 101.609 332.243Z" fill="#CCCCCC"/>
<path d="M138.602 332.677H26.3886C12.7062 332.677 1.57458 321.545 1.57458 307.861V66.6831C1.57458 52.9993 12.7062 41.8666 26.3886 41.8666H138.602C152.284 41.8666 163.416 52.9993 163.416 66.6831V307.861C163.416 321.545 152.284 332.677 138.602 332.677Z" fill="#3F3D56"/>
<path d="M163.416 130.58C162.837 130.58 162.366 131.051 162.366 131.63V165.225C162.366 165.804 162.837 166.275 163.416 166.275C163.995 166.275 164.465 165.804 164.465 165.225V131.63C164.465 131.051 163.995 130.58 163.416 130.58Z" fill="#3F3D56"/>
<path d="M161.054 66.6833V307.857C161.054 319.767 151.785 329.51 140.064 330.266H140.059C139.886 330.276 139.712 330.287 139.534 330.292C139.224 330.308 138.915 330.313 138.6 330.313C138.6 330.313 137.445 330.229 135.335 330.072C133.204 329.914 130.102 329.678 126.234 329.368C125.074 329.279 123.851 329.179 122.559 329.074C119.987 328.864 117.164 328.633 114.135 328.371C112.928 328.271 111.679 328.161 110.403 328.051C103.884 327.489 96.5832 326.833 88.8833 326.087C87.5816 325.967 86.2694 325.841 84.9467 325.709C84.6003 325.673 84.2486 325.641 83.8969 325.604C78.4067 325.064 3.93677 310.67 3.93677 307.857V66.6833C3.93677 54.2792 13.9882 44.2268 26.391 44.2268H39.7964C41.9379 44.2268 43.6595 45.8961 43.8432 48.0325C43.8589 48.1743 43.8747 48.316 43.9009 48.4577C44.2893 50.6047 46.2576 52.1007 48.4411 52.1007H116.55C118.733 52.1007 120.701 50.6047 121.09 48.4577C121.116 48.316 121.132 48.1743 121.147 48.0325C121.331 45.8961 123.053 44.2268 125.194 44.2268H138.6C151.002 44.2268 161.054 54.2792 161.054 66.6833Z" fill="white"/>
<path d="M1.04975 105.383C0.470797 105.383 0 105.854 0 106.433V114.832C0 115.411 0.470803 115.882 1.04975 115.882C1.6287 115.882 2.0995 115.411 2.0995 114.832V106.433C2.0995 105.854 1.6287 105.383 1.04975 105.383Z" fill="#3F3D56"/>
<path d="M1.04975 130.58C0.470797 130.58 0 131.051 0 131.63V147.902C0 148.481 0.470803 148.952 1.04975 148.952C1.6287 148.952 2.0995 148.481 2.0995 147.902V131.63C2.0995 131.051 1.6287 130.58 1.04975 130.58Z" fill="#3F3D56"/>
<path d="M1.04975 153.677C0.470797 153.677 0 154.147 0 154.726V170.999C0 171.578 0.470803 172.049 1.04975 172.049C1.6287 172.049 2.0995 171.578 2.0995 170.999V154.726C2.0995 154.147 1.6287 153.677 1.04975 153.677Z" fill="#3F3D56"/>
<path d="M39.431 47.9033H19.3554C19.2464 47.9033 19.1581 47.9917 19.1581 48.1006V50.3306C19.1581 50.4396 19.2464 50.528 19.3554 50.528H39.431C39.54 50.528 39.6283 50.4396 39.6283 50.3306V48.1006C39.6283 47.9917 39.54 47.9033 39.431 47.9033Z" fill="#E6E6E6"/>
<path d="M128.511 50.528C129.671 50.528 130.611 49.588 130.611 48.4283C130.611 47.2687 129.671 46.3286 128.511 46.3286C127.352 46.3286 126.412 47.2687 126.412 48.4283C126.412 49.588 127.352 50.528 128.511 50.528Z" fill="#E6E6E6"/>
<path d="M134.285 50.528C135.444 50.528 136.384 49.588 136.384 48.4283C136.384 47.2687 135.444 46.3286 134.285 46.3286C133.125 46.3286 132.185 47.2687 132.185 48.4283C132.185 49.588 133.125 50.528 134.285 50.528Z" fill="#E6E6E6"/>
<path d="M140.059 50.528C141.218 50.528 142.158 49.588 142.158 48.4283C142.158 47.2687 141.218 46.3286 140.059 46.3286C138.899 46.3286 137.959 47.2687 137.959 48.4283C137.959 49.588 138.899 50.528 140.059 50.528Z" fill="#E6E6E6"/>
<path d="M126.756 189.887H37.7099C36.3071 189.887 35.1658 188.745 35.1658 187.342C35.1658 185.939 36.3071 184.798 37.7099 184.798H126.756C128.158 184.798 129.3 185.939 129.3 187.342C129.3 188.745 128.158 189.887 126.756 189.887Z" fill="#E6E6E6"/>
<path d="M82.5521 288.482C102.926 288.482 119.442 271.964 119.442 251.589C119.442 231.213 102.926 214.695 82.5521 214.695C62.1781 214.695 45.6617 231.213 45.6617 251.589C45.6617 271.964 62.1781 288.482 82.5521 288.482Z" fill="#17882C"/>
<path d="M88.4151 239.542C85.3018 239.67 81.7821 239.884 79.481 242.273C77.4818 244.349 77.0437 247.429 79.071 249.645C81.1036 251.867 84.2639 252.167 86.607 253.901C89.3582 255.936 88.9553 259.962 86.2929 261.891C83.1533 264.166 79.0998 263.105 76.2296 260.941C75.4942 260.386 74.7802 261.629 75.5073 262.177C78.0788 264.116 81.4344 265.195 84.6138 264.267C87.4833 263.43 89.7076 261.09 89.9339 258.046C90.0418 256.594 89.6288 255.119 88.7257 253.973C87.7722 252.762 86.399 252.017 85.0108 251.411C82.621 250.367 78.5061 249.017 79.2009 245.62C80.0431 241.502 85.055 241.111 88.4151 240.973C89.3327 240.936 89.3375 239.504 88.4151 239.542Z" fill="white"/>
<path d="M82.6394 237.594L82.5022 269.014C82.4982 269.935 83.9293 269.936 83.9333 269.014L84.0705 237.594C84.0745 236.673 82.6434 236.672 82.6394 237.594Z" fill="white"/>
<path d="M278.004 0H96.122C89.45 0 84.0245 5.42593 84.0245 12.0986V136.749C84.0245 143.422 89.45 148.848 96.122 148.848H278.004C284.676 148.848 290.101 143.422 290.101 136.749V12.0986C290.101 5.42593 284.676 0 278.004 0Z" fill="white"/>
<path d="M186.227 74.116C197.467 74.116 206.58 65.0026 206.58 53.7607C206.58 42.5188 197.467 33.4054 186.227 33.4054C174.986 33.4054 165.873 42.5188 165.873 53.7607C165.873 65.0026 174.986 74.116 186.227 74.116Z" fill="#17882C"/>
<path d="M190.088 44.6772C187.568 44.781 184.732 44.9407 182.826 46.8158C181.248 48.3691 180.696 50.787 182.146 52.6158C183.673 54.5413 186.214 54.9067 188.207 56.1372C189.446 56.9019 190.268 58.0605 190.294 59.5494C190.319 60.9433 189.676 62.2457 188.601 63.1193C185.962 65.2628 182.364 64.3755 179.868 62.5009C179.377 62.1321 178.901 62.9601 179.387 63.3248C181.454 64.8773 184.116 65.779 186.688 65.111C189.056 64.4962 190.963 62.6334 191.219 60.1443C191.49 57.5208 189.767 55.7345 187.534 54.7097C185.493 53.773 181.912 52.7749 182.249 49.8649C182.679 46.1649 187.208 45.75 190.088 45.6313C190.699 45.6061 190.703 44.6518 190.088 44.6772Z" fill="white"/>
<path d="M185.709 42.9469L185.595 69.1277C185.592 69.7418 186.546 69.7426 186.549 69.1277L186.663 42.9469C186.666 42.3329 185.712 42.3321 185.709 42.9469Z" fill="white"/>
<path d="M278.004 0H96.122C89.45 0 84.0245 5.42593 84.0245 12.0986V136.749C84.0245 143.422 89.45 148.848 96.122 148.848H278.004C284.676 148.848 290.101 143.422 290.101 136.749V12.0986C290.101 5.42593 284.676 0 278.004 0ZM288.829 136.749C288.829 142.722 283.976 147.576 278.004 147.576H96.122C90.1496 147.576 85.2966 142.722 85.2966 136.749V12.0986C85.2966 6.12567 90.1496 1.2722 96.122 1.2722H278.004C283.976 1.2722 288.829 6.12567 288.829 12.0986V136.749Z" fill="#3F3D56"/>
<path d="M166.093 12.3086H148.245C147.349 12.3086 146.617 13.0401 146.617 13.937C146.617 14.8403 147.349 15.5718 148.245 15.5718H166.093C166.99 15.5718 167.721 14.8403 167.721 13.937C167.721 13.0401 166.99 12.3086 166.093 12.3086Z" fill="#E6E6E6"/>
<path d="M195.987 12.3086H178.139C177.243 12.3086 176.511 13.0401 176.511 13.937C176.511 14.8403 177.243 15.5718 178.139 15.5718H195.987C196.884 15.5718 197.615 14.8403 197.615 13.937C197.615 13.0401 196.884 12.3086 195.987 12.3086Z" fill="#E6E6E6"/>
<path d="M225.881 12.3086H208.033C207.136 12.3086 206.405 13.0401 206.405 13.937C206.405 14.8403 207.136 15.5718 208.033 15.5718H225.881C226.777 15.5718 227.509 14.8403 227.509 13.937C227.509 13.0401 226.777 12.3086 225.881 12.3086Z" fill="#E6E6E6"/>
<path d="M255.316 85.5658H118.809C113.13 85.5658 108.512 90.1839 108.512 95.8643V105.164C108.512 110.845 113.13 115.463 118.809 115.463H255.316C260.996 115.463 265.614 110.845 265.614 105.164V95.8643C265.614 90.1839 260.996 85.5658 255.316 85.5658Z" fill="#17882C"/>
<path d="M46.545 134.531L41.3104 132.051C43.4574 135.047 45.3074 139.727 46.2978 143.451C47.9748 139.982 50.6781 135.738 53.3539 133.202L47.8216 134.626C51.2306 117.917 64.0527 105.921 78.7359 105.921V104.649C63.399 104.649 50.0257 117.147 46.545 134.531Z" fill="#3F3D56"/>
<path d="M70.6376 159.99H37.5636C36.1607 159.99 35.0194 158.848 35.0194 157.445C35.0194 156.042 36.1607 154.901 37.5636 154.901H70.6376C72.0405 154.901 73.1818 156.042 73.1818 157.445C73.1818 158.848 72.0405 159.99 70.6376 159.99Z" fill="#E6E6E6"/>
<path d="M290.843 151.992L290.509 177.97L284.046 201.127L278.88 199.2L281.174 177.973L280.872 149.249L290.843 151.992Z" fill="#FFB6B6"/>
<path d="M284.024 204.861C284.63 201.531 283.519 198.54 281.542 198.18C279.565 197.82 277.471 200.228 276.865 203.558C276.259 206.888 277.37 209.879 279.347 210.239C281.324 210.599 283.418 208.191 284.024 204.861Z" fill="#FFB6B6"/>
<path d="M283 121.06C283 121.06 294.072 121.213 294.062 127.095C294.057 130.416 293.344 160.568 291.359 178.886C289.829 193.012 286.907 196.697 286.907 196.697L279.911 180.794L283 121.06Z" fill="#E6E6E6"/>
<path d="M282.715 174.135L244.5 173.5C245.5 170.5 247 163.5 247.373 155.181L282.715 153.132C280.949 160.285 280.733 167.304 282.715 174.135Z" fill="#E6E6E6"/>
<path d="M278.106 112.151L263.252 111.127L257.105 118.811L253.989 119.377C249.318 120.227 245.992 124.396 246.201 129.139L247.413 156.69L282.917 159.279L291.423 123.402L281.179 119.323L278.106 112.151Z" fill="#E6E6E6"/>
<path d="M187.52 120.463C188.573 121.411 189.326 122.518 189.723 123.593L200.333 131.991L196.19 136.923L185.873 127.873C184.763 127.591 183.582 126.959 182.528 126.011C180.121 123.845 179.286 120.847 180.665 119.315C182.043 117.783 185.112 118.297 187.52 120.463Z" fill="#FFB6B6"/>
<path d="M262.532 127.533L221.879 154.987L192.738 134.705L197.113 126.779L220.048 140.11L241.2 123.867C248.732 116.792 258.172 118.164 262.532 127.533Z" fill="#E6E6E6"/>
<path d="M269.798 108.826C275.884 108.826 280.818 103.892 280.818 97.805C280.818 91.7182 275.884 86.7839 269.798 86.7839C263.711 86.7839 258.778 91.7182 258.778 97.805C258.778 103.892 263.711 108.826 269.798 108.826Z" fill="#FFB6B6"/>
<path d="M284.776 95.0973V97.2347L272.348 93.7361L263.03 95.6889C262.922 94.2704 262.502 92.8773 261.803 91.6433C262.289 93.6225 262.344 95.1538 261.828 95.9433L260.575 96.2041C260.372 95.6507 259.977 95.1673 259.462 94.8747C259.411 94.8429 259.347 94.8174 259.29 94.8365C259.201 94.8683 259.195 94.9828 259.195 95.0719C259.208 95.5426 259.22 96.0133 259.239 96.484L255.639 97.2346V95.0973C252.186 87.3255 261.289 80.6004 270.211 80.5306C274.237 80.4991 277.875 82.159 280.515 84.7924C283.148 87.4323 284.776 91.0708 284.776 95.0973Z" fill="#2F2E41"/>
<path d="M291.768 120.159L290.829 120.081C290.896 119.774 290.963 119.471 291.024 119.164C291.544 116.588 290.399 113.309 290.315 110.834C289.873 113.449 290.629 116.666 289.847 119.149C289.76 119.424 286.364 121.205 286.271 121.477C282.512 120.102 278.598 115.71 274.166 118.275C271.545 119.792 268.554 119.127 265.578 118.433C264.841 118.261 264.739 114.622 264.01 114.479C262.704 114.223 260.786 117.531 259.557 117.66L264.646 97.9407C264.646 87.2135 263.652 75.9587 277.239 79.7518C280.657 80.7058 284.039 81.4536 286.561 84.2743C289.083 87.0989 290.879 91.0463 291.515 95.5416C291.899 98.2535 294.293 107.462 291.768 120.159Z" fill="#2F2E41"/>
<path d="M282.994 318.455L276.928 318.598L273.547 291.345L282.499 291.133L282.994 318.455Z" fill="#FFB7B7"/>
<path d="M262.183 331.111C262.183 332.136 262.911 332.966 263.808 332.966H275.847C275.847 332.966 277.032 328.203 281.863 326.154L282.196 332.966H288.407L287.655 322.012C287.655 322.012 289.316 316.151 285.866 313.155C282.415 310.159 285.21 310.576 285.21 310.576L283.853 303.796L274.467 304.899L274.398 315.543L269.844 326.107L263.163 329.408C262.568 329.702 262.183 330.371 262.183 331.111Z" fill="#2F2E41"/>
<path d="M264.54 314.014L258.709 315.691L248.524 290.188L257.128 287.712L264.54 314.014Z" fill="#FFB7B7"/>
<path d="M247.622 331.537C247.882 332.528 248.796 333.147 249.664 332.919L261.31 329.864C261.31 329.864 261.247 324.956 265.399 321.747L267.451 328.253L273.458 326.676L269.951 316.271C269.951 316.271 270.071 310.18 265.973 308.158C261.875 306.136 264.684 305.83 264.684 305.83L261.651 299.616L252.853 303.066L255.487 313.378L253.762 324.753L248.137 329.641C247.637 330.076 247.434 330.821 247.622 331.537Z" fill="#2F2E41"/>
<path d="M279.275 172.525L283.091 173.797C289.058 184.818 291.587 199.454 291.252 217.102L284.473 296.367H273.383L265.267 208.063L250.956 241.207L261.427 296.367L250.956 297.435L229.866 240.077L244.554 173.412L279.275 172.525Z" fill="#2F2E41"/>
</g>
<defs>
<clipPath id="clip0_75_252">
<rect width="347" height="333" fill="white"/>
</clipPath>
</defs>
</svg>
