<svg width="381" height="262" viewBox="0 0 381 262" fill="none" xmlns="http://www.w3.org/2000/svg">
<path d="M375.673 0.266357H5.32023C3.90958 0.267642 2.55708 0.828898 1.55962 1.82689C0.56216 2.82489 0.00123911 4.17807 0 5.58942V256.677C0.0012375 258.088 0.562159 259.441 1.55962 260.439C2.55709 261.438 3.90958 261.999 5.32023 262H375.673C376.443 262 377.203 261.833 377.901 261.511C378.6 261.188 379.22 260.718 379.719 260.132C379.761 260.086 379.8 260.037 379.835 259.986C380.152 259.597 380.41 259.163 380.598 258.697C380.865 258.058 381.002 257.371 381 256.677V5.58946C380.998 4.1771 380.437 2.82313 379.438 1.82501C378.439 0.826896 377.085 0.266277 375.673 0.266357ZM379.481 256.677C379.481 257.42 379.263 258.146 378.852 258.765C378.488 259.309 377.993 259.754 377.412 260.059C376.875 260.337 376.279 260.481 375.673 260.48H5.32023C4.31248 260.479 3.34634 260.078 2.63375 259.365C1.92116 258.652 1.52029 257.685 1.51907 256.677V5.58946C1.52028 4.5812 1.92116 3.61457 2.63375 2.90161C3.34634 2.18866 4.31247 1.78758 5.32023 1.78636H375.673C376.682 1.78623 377.65 2.18668 378.364 2.89975C379.078 3.61282 379.479 4.58021 379.481 5.58946V256.677Z" fill="#3F3D56"/>
<path d="M380.237 21.6008H0.758057V23.1226H380.237V21.6008Z" fill="#3F3D56"/>
<path d="M13.6864 16.2443C16.2064 16.2443 18.2493 14.2004 18.2493 11.6792C18.2493 9.15791 16.2064 7.11401 13.6864 7.11401C11.1664 7.11401 9.12354 9.15791 9.12354 11.6792C9.12354 14.2004 11.1664 16.2443 13.6864 16.2443Z" fill="#3F3D56"/>
<path d="M26.8046 16.2443C29.3246 16.2443 31.3674 14.2004 31.3674 11.6792C31.3674 9.15791 29.3246 7.11401 26.8046 7.11401C24.2846 7.11401 22.2417 9.15791 22.2417 11.6792C22.2417 14.2004 24.2846 16.2443 26.8046 16.2443Z" fill="#3F3D56"/>
<path d="M39.923 16.2443C42.443 16.2443 44.4859 14.2004 44.4859 11.6792C44.4859 9.15791 42.443 7.11401 39.923 7.11401C37.403 7.11401 35.3601 9.15791 35.3601 11.6792C35.3601 14.2004 37.403 16.2443 39.923 16.2443Z" fill="#3F3D56"/>
<path d="M168.994 150.966C164.431 147.994 162.161 141.087 163.279 134.77C164.397 128.454 168.608 123.013 173.656 120.666C176.112 119.559 178.804 119.079 181.49 119.271C184.177 119.462 186.774 120.317 189.048 121.761C193.677 124.593 200.224 126.144 202.423 131.811C204.112 136.165 201.969 145.007 199.696 149.236C197.731 152.892 193.996 154.564 190.488 155.29C186.606 156.082 182.6 156.031 178.74 155.14C174.881 154.249 171.257 152.539 168.115 150.125L168.994 150.966Z" fill="#2F2E41"/>
<path d="M166.614 184.517L162.965 190.81L162.483 191.64L161.782 192.861H151.025L151.751 191.64L153.63 188.472L158.011 181.074L162.971 183.058L166.614 184.517Z" fill="#FFB8B8"/>
<path d="M150.219 192.861L148.255 191.64L148.011 191.488L160.342 169.005C160.872 168.032 161.59 167.174 162.454 166.48C163.318 165.786 164.311 165.271 165.375 164.964C166.719 164.564 168.142 164.511 169.512 164.811C170.311 164.98 171.08 165.268 171.794 165.666C172.088 165.827 172.371 166.006 172.642 166.203C173.685 166.935 174.542 167.901 175.144 169.023C175.86 170.338 176.214 171.819 176.169 173.316C176.124 174.813 175.682 176.27 174.887 177.539L170.134 185.139L166.071 191.64L165.308 192.861H150.219Z" fill="#2F2E41"/>
<path d="M181.9 158.946C190.177 158.946 196.886 152.233 196.886 143.953C196.886 135.672 190.177 128.96 181.9 128.96C173.624 128.96 166.915 135.672 166.915 143.953C166.915 152.233 173.624 158.946 181.9 158.946Z" fill="#FFB8B8"/>
<path d="M196.944 192.861H163.258L163.411 192.428C163.325 192.165 163.246 191.903 163.173 191.64C163.094 191.365 163.026 191.085 162.965 190.81C162.418 188.255 162.42 185.612 162.971 183.057C164.832 173.913 172.258 166.484 172.258 166.484C172.386 166.386 172.514 166.295 172.642 166.203C173.747 165.394 174.945 164.722 176.211 164.201C181.727 161.912 187.511 162.833 191.398 164.018C192.751 164.427 194.074 164.931 195.358 165.525C195.809 165.739 196.053 165.873 196.053 165.873L196.437 177.6L196.901 191.64L196.944 192.861Z" fill="#17882C"/>
<path d="M212.527 191.64L209.952 178.54L207.353 165.33C207.244 164.785 206.974 164.285 206.576 163.896C206.179 163.507 205.673 163.247 205.126 163.151L199.683 162.211L194.619 161.338C194.131 161.25 193.627 161.297 193.164 161.475C192.7 161.652 192.294 161.953 191.989 162.345C191.609 162.82 191.4 163.409 191.397 164.018C191.398 164.393 191.474 164.765 191.623 165.11C194.265 171.276 194.314 181.037 193.643 191.64C193.612 192.043 193.588 192.452 193.557 192.861H212.771L212.527 191.64Z" fill="#2F2E41"/>
<path d="M176.211 164.201C176.099 163.757 175.879 163.347 175.569 163.01C175.26 162.672 174.871 162.416 174.438 162.266C174.006 162.116 173.543 162.076 173.091 162.149C172.639 162.223 172.212 162.408 171.849 162.687L169.512 164.811L159.945 173.528C159.647 173.796 159.413 174.128 159.262 174.499C158.182 177.081 156.077 182.178 153.63 188.472C153.234 189.498 152.825 190.554 152.404 191.64C152.257 192.043 152.099 192.452 151.94 192.861H167.706C167.834 192.452 167.962 192.043 168.09 191.64C168.792 189.424 169.475 187.251 170.134 185.139C172.062 179.004 173.801 173.431 175.144 169.023C175.516 167.802 175.855 166.675 176.163 165.642C176.306 165.174 176.323 164.677 176.211 164.201Z" fill="#2F2E41"/>
<path d="M216.065 192.861H217.084L216.944 192.52L216.572 191.64L210.83 178.009L209.952 178.54L202.899 182.807L206.517 191.64L207.017 192.861H212.771H216.065Z" fill="#FFB8B8"/>
<path d="M210.245 167.198C209.468 165.164 207.935 163.509 205.967 162.579C203.998 161.65 201.747 161.518 199.683 162.211C199.42 162.298 199.161 162.4 198.908 162.516C197.463 163.161 196.231 164.205 195.357 165.525C195.001 166.053 194.708 166.62 194.485 167.216C194.089 168.251 193.902 169.354 193.934 170.461C193.967 171.569 194.218 172.659 194.674 173.669L196.437 177.6L202.746 191.64L203.295 192.861H216.065L216.944 192.519L219.226 191.64L219.543 191.518L210.245 167.198Z" fill="#2F2E41"/>
<path d="M193.67 126.733C194.192 126.89 194.752 126.87 195.262 126.676C195.771 126.482 196.203 126.126 196.49 125.662C196.762 125.189 196.922 124.661 196.958 124.116C196.993 123.572 196.904 123.027 196.697 122.522C196.271 121.516 195.601 120.631 194.747 119.95C193.777 119.072 192.596 118.46 191.32 118.174C190.682 118.037 190.022 118.039 189.385 118.179C188.748 118.319 188.148 118.594 187.627 118.987C187.115 119.392 186.735 119.941 186.537 120.563C186.338 121.185 186.33 121.853 186.513 122.48C186.901 123.606 187.952 124.36 189.001 124.922C191.084 126.034 193.38 126.687 195.736 126.837L193.67 126.733Z" fill="#2F2E41"/>
<path d="M196.585 143.505C194.176 143.837 194.485 142.61 193.52 140.377C192.555 138.143 191.264 135.492 188.842 135.266C186.858 135.08 185.223 136.667 183.615 137.846C180.75 139.947 176.888 140.975 173.567 139.715C170.245 138.454 167.937 134.494 169.197 131.171C169.59 130.253 170.166 129.426 170.891 128.741C171.616 128.055 172.474 127.526 173.411 127.185C175.292 126.516 177.29 126.238 179.282 126.369C183.713 126.511 188.058 127.624 192.012 129.63C194.741 131.017 197.397 133.001 198.432 135.883C199.467 138.765 200.149 142.814 197.189 143.594L196.585 143.505Z" fill="#2F2E41"/>
<path d="M192.439 118.807C191.248 116.733 192.231 113.887 194.179 112.502C196.128 111.116 198.741 110.98 201.067 111.536C203.366 112.115 205.473 113.289 207.175 114.941C208.878 116.592 210.117 118.662 210.768 120.943C211.754 124.57 211.168 128.466 212.003 132.13C212.449 134.084 213.289 135.925 214.473 137.541C215.657 139.158 217.158 140.514 218.886 141.528C220.613 142.542 222.53 143.191 224.517 143.435C226.505 143.68 228.522 143.515 230.443 142.95C232.946 142.215 235.489 140.427 235.736 137.829C235.995 140.813 235.315 143.803 233.791 146.38C232.267 148.958 229.976 150.995 227.238 152.205C224.013 153.55 220.416 153.638 216.923 153.548C214.647 153.49 212.319 153.353 210.219 152.472C208.766 151.809 207.46 150.863 206.378 149.688C205.295 148.514 204.458 147.135 203.915 145.633C202.845 142.613 202.557 139.372 203.075 136.21C203.419 133.751 204.102 131.341 204.294 128.865C204.485 126.39 204.122 123.747 202.597 121.788C201.071 119.829 198.158 118.829 195.989 120.036C195.117 120.521 194.414 121.313 193.467 121.626C192.52 121.94 191.178 121.389 191.264 120.395L192.439 118.807Z" fill="#2F2E41"/>
<path d="M294.7 192.861L294.816 191.64L298.257 155.819C299.385 154.936 300.597 154.165 301.875 153.518C308.959 149.947 315.792 151.656 319.49 153.134C320.469 153.517 321.416 153.981 322.321 154.519L324.334 191.64L324.401 192.861H294.7Z" fill="#17882C"/>
<path d="M310.815 146.286C319.092 146.286 325.801 139.573 325.801 131.293C325.801 123.012 319.092 116.3 310.815 116.3C302.539 116.3 295.83 123.012 295.83 131.293C295.83 139.573 302.539 146.286 310.815 146.286Z" fill="#FFB8B8"/>
<path d="M322.974 140.435C324.088 139.26 324.828 137.781 325.099 136.185C325.37 134.588 325.16 132.948 324.497 131.471C323.833 129.994 322.745 128.748 321.372 127.892C319.999 127.035 318.402 126.607 316.784 126.661C314.712 126.73 312.759 127.579 310.782 128.201C307.785 129.221 304.587 129.509 301.456 129.041C298.306 128.552 295.464 126.873 293.514 124.35C291.66 121.8 291.082 118.264 292.392 115.396C293.904 112.086 297.436 110.261 300.759 108.779C302.099 108.108 303.53 107.637 305.007 107.383C305.747 107.26 306.504 107.291 307.231 107.474C307.958 107.658 308.64 107.989 309.233 108.449C310.167 109.252 310.714 110.46 311.73 111.156C312.874 111.94 314.36 111.919 315.739 112.058C318.846 112.369 321.785 113.619 324.165 115.642C326.545 117.665 328.253 120.365 329.061 123.383C329.87 126.401 329.741 129.594 328.692 132.537C327.642 135.479 325.723 138.033 323.187 139.857L322.974 140.435Z" fill="#2F2E41"/>
<path d="M304.108 159.72L301.875 153.518L301.736 153.132C301.67 152.948 301.563 152.782 301.423 152.647C301.284 152.511 301.115 152.408 300.93 152.347C300.745 152.286 300.549 152.268 300.356 152.295C300.163 152.321 299.978 152.391 299.816 152.499L297.281 154.19C297.281 154.19 281.021 154.19 279.715 163.951C279.697 164.103 279.672 164.274 279.654 164.457C279.653 164.466 279.651 164.474 279.648 164.482C279.483 165.123 276.414 176.99 273.778 191.64C273.705 192.043 273.632 192.452 273.559 192.861H308.892C310.042 178.144 309.398 164.46 304.108 159.72Z" fill="#2F2E41"/>
<path d="M346.256 191.64C344.329 176.611 341.571 164.457 341.571 164.457C341.546 164.274 341.522 164.103 341.503 163.95C340.204 154.189 323.944 154.19 323.944 154.19L321.41 152.499C321.248 152.391 321.063 152.321 320.87 152.295C320.677 152.269 320.481 152.287 320.295 152.348C320.11 152.409 319.942 152.512 319.802 152.648C319.662 152.784 319.556 152.95 319.49 153.133L317.116 159.72C311.826 164.46 311.183 178.144 312.333 192.861L346.409 192.861C346.36 192.452 346.305 192.043 346.256 191.64Z" fill="#2F2E41"/>
<path d="M60.0532 157.419L56.429 191.64L56.3009 192.861H46.4961C46.612 192.464 46.7279 192.055 46.85 191.64C49.6323 182.093 53.4212 168.157 53.0122 164.463C52.3716 158.701 56.8562 156.778 56.8562 156.778L57.1369 156.833L60.0532 157.419Z" fill="#17882C"/>
<path d="M75.866 146.856C84.1423 146.856 90.8516 140.143 90.8516 131.863C90.8516 123.582 84.1423 116.87 75.866 116.87C67.5897 116.87 60.8804 123.582 60.8804 131.863C60.8804 140.143 67.5897 146.856 75.866 146.856Z" fill="#A0616A"/>
<path d="M95.2642 185.597C94.5086 186.991 93.8895 188.455 93.4156 189.968C93.2387 190.505 93.068 191.066 92.9092 191.64C92.7933 192.037 92.6896 192.446 92.5859 192.861H53.061C53.1161 192.458 53.1647 192.049 53.2198 191.64C55.2394 175.677 56.8744 159.476 57.1369 156.833C57.1613 156.583 57.1735 156.454 57.1735 156.454C80.8589 143.965 98.1442 160.3 98.1442 160.3C98.1442 160.3 98.1686 160.416 98.2052 160.642C98.5836 162.925 100.511 176.257 95.2642 185.597Z" fill="#17882C"/>
<path d="M93.4157 189.968L90.78 184.315L91.4205 161.899L98.2054 160.642L98.4434 160.599C101.95 162.639 104.664 165.806 106.143 169.585C107.461 172.881 109.969 182.795 112.086 191.64C112.184 192.049 112.281 192.458 112.379 192.861H94.7641L94.1966 191.64L93.4157 189.968Z" fill="#17882C"/>
<path d="M117.522 92.1381H30.8705C29.0119 92.1403 27.23 92.88 25.9157 94.1949C24.6015 95.5098 23.8621 97.2925 23.8599 99.1521V185.847C23.8621 187.707 24.6015 189.49 25.9157 190.804C27.23 192.119 29.0119 192.859 30.8705 192.861H117.522C119.381 192.86 121.163 192.121 122.478 190.806C123.792 189.49 124.531 187.707 124.533 185.847V99.1521C124.531 97.2922 123.792 95.5089 122.478 94.1938C121.163 92.8787 119.381 92.1393 117.522 92.1381ZM123.312 185.847C123.311 187.383 122.701 188.856 121.615 189.942C120.529 191.028 119.057 191.639 117.522 191.64H30.8705C29.3355 191.638 27.8641 191.027 26.7787 189.941C25.6933 188.855 25.0825 187.383 25.0801 185.847V99.1521C25.0825 97.6163 25.6933 96.1442 26.7787 95.0583C27.8641 93.9724 29.3355 93.3613 30.8705 93.3589H117.522C119.057 93.3603 120.529 93.971 121.615 95.0572C122.701 96.1433 123.311 97.6161 123.312 99.1521V185.847ZM56.4289 191.64L56.3008 192.861H92.5858C92.6895 192.446 92.7931 192.037 92.909 191.64H56.4289Z" fill="#3F3D56"/>
<path d="M233.82 92.1381H147.169C145.31 92.1403 143.528 92.88 142.214 94.1949C140.9 95.5098 140.16 97.2925 140.158 99.1521V185.847C140.16 187.707 140.9 189.49 142.214 190.804C143.528 192.119 145.31 192.859 147.169 192.861H233.82C235.679 192.86 237.462 192.121 238.776 190.806C240.091 189.49 240.83 187.707 240.831 185.847V99.1521C240.83 97.2922 240.091 95.5089 238.776 94.1938C237.462 92.8787 235.679 92.1393 233.82 92.1381ZM239.611 185.847C239.609 187.383 238.999 188.856 237.913 189.942C236.828 191.028 235.356 191.639 233.82 191.64H147.169C145.634 191.638 144.162 191.027 143.077 189.941C141.992 188.855 141.381 187.383 141.378 185.847V99.1521C141.381 97.6163 141.992 96.1442 143.077 95.0583C144.162 93.9724 145.634 93.3613 147.169 93.3589H233.82C235.356 93.3603 236.828 93.971 237.913 95.0572C238.999 96.1433 239.609 97.6161 239.611 99.1521V185.847ZM163.173 191.64C163.246 191.903 163.325 192.165 163.411 192.428L163.258 192.861H193.557C193.588 192.452 193.613 192.043 193.643 191.64H163.173Z" fill="#3F3D56"/>
<path d="M350.125 92.1381H263.473C261.614 92.1392 259.832 92.8786 258.517 94.1937C257.203 95.5088 256.464 97.2922 256.463 99.1521V185.847C256.464 187.707 257.203 189.49 258.517 190.806C259.832 192.121 261.614 192.86 263.473 192.861H350.125C351.984 192.859 353.765 192.119 355.08 190.804C356.394 189.489 357.133 187.707 357.135 185.847V99.1521C357.133 97.2926 356.394 95.5098 355.08 94.195C353.765 92.8801 351.984 92.1403 350.125 92.1381ZM355.915 185.847C355.913 187.383 355.302 188.855 354.217 189.941C353.131 191.027 351.66 191.638 350.125 191.64H263.473C261.938 191.639 260.466 191.028 259.38 189.942C258.295 188.856 257.684 187.383 257.683 185.847V99.1521C257.684 97.616 258.295 96.1432 259.38 95.0571C260.466 93.971 261.938 93.3602 263.473 93.3589H350.125C351.66 93.3613 353.131 93.9724 354.217 95.0583C355.302 96.1442 355.913 97.6164 355.915 99.1521V185.847ZM308.983 191.64C308.953 192.043 308.922 192.452 308.892 192.861H335.183C335.231 192.458 335.286 192.049 335.335 191.64H308.983Z" fill="#3F3D56"/>
<path d="M291.17 228.267H89.8249C88.5304 228.267 87.2889 227.752 86.3735 226.836C85.4581 225.921 84.9438 224.678 84.9438 223.383C84.9438 222.088 85.4581 220.846 86.3735 219.93C87.2889 219.014 88.5304 218.5 89.8249 218.5H291.17C292.465 218.5 293.706 219.014 294.622 219.93C295.537 220.846 296.051 222.088 296.051 223.383C296.051 224.678 295.537 225.921 294.622 226.836C293.706 227.752 292.465 228.267 291.17 228.267Z" fill="#CCCCCC"/>
<path d="M234.733 66.4994H146.263C144.968 66.4994 143.727 65.9849 142.811 65.069C141.896 64.1532 141.382 62.911 141.382 61.6158C141.382 60.3206 141.896 59.0785 142.811 58.1627C143.727 57.2468 144.968 56.7323 146.263 56.7323H234.733C236.027 56.7323 237.269 57.2468 238.184 58.1627C239.099 59.0785 239.614 60.3206 239.614 61.6158C239.614 62.911 239.099 64.1532 238.184 65.069C237.269 65.9849 236.027 66.4994 234.733 66.4994Z" fill="#17882C"/>
<path d="M83.0337 144.925C83.5412 145.426 84.2121 145.727 84.9234 145.773C85.6346 145.818 86.3384 145.605 86.9056 145.174C90.4374 142.554 93.538 139.294 95.3729 135.317C97.4755 130.76 97.7101 125.168 95.175 120.837C93.032 117.176 89.2479 114.813 85.4764 112.873C84.012 112.046 82.4346 111.438 80.7943 111.068C79.1364 110.702 77.4015 110.982 75.9428 111.851C75.2291 112.299 74.6669 112.951 74.3295 113.723C73.992 114.495 73.8949 115.351 74.051 116.18C72.2394 114.112 69.9191 112.553 67.32 111.659C65.6834 111.018 63.8913 110.888 62.1794 111.286C59.7861 111.965 58.0389 114.093 57.0832 116.391C56.3104 118.139 56.0435 120.069 56.313 121.961C56.4548 122.903 56.7925 123.804 57.3045 124.607C57.8164 125.409 58.491 126.096 59.2847 126.621C61.2635 127.846 63.7879 127.758 66.0603 127.258C68.3328 126.757 70.5325 125.887 72.849 125.667C75.1654 125.447 77.745 126.024 79.1547 127.877C80.1475 129.181 80.4024 130.885 80.6253 132.509L81.7844 140.957C81.8792 142.179 82.1912 143.375 82.7057 144.487C82.7948 144.647 82.9051 144.795 83.0337 144.925Z" fill="#2F2E41"/>
</svg>
