<svg width="308" height="217" viewBox="0 0 308 217" fill="none" xmlns="http://www.w3.org/2000/svg">
<g clip-path="url(#clip0_133_107)">
<path d="M153.584 99.9054C159.005 99.9054 163.4 95.5086 163.4 90.0849C163.4 84.6611 159.005 80.2643 153.584 80.2643C148.162 80.2643 143.767 84.6611 143.767 90.0849C143.767 95.5086 148.162 99.9054 153.584 99.9054Z" fill="#17882C"/>
<path d="M46.3604 12.914V106.444C46.3631 108.716 47.2665 110.894 48.8725 112.501C50.4784 114.107 52.6557 115.011 54.9269 115.014H299.433C301.705 115.011 303.882 114.107 305.488 112.501C307.094 110.894 307.997 108.716 308 106.444V12.914C307.997 10.6419 307.094 8.46357 305.488 6.85691C303.882 5.25025 301.705 4.34643 299.433 4.34369H54.9269C52.6557 4.34642 50.4784 5.25025 48.8725 6.8569C47.2665 8.46356 46.3631 10.6419 46.3604 12.914ZM47.1154 12.914C47.1154 10.8414 47.9384 8.85363 49.4034 7.38805C50.8683 5.92247 52.8552 5.09912 54.9269 5.09912H248.47C264.058 5.09912 279.008 11.2942 290.03 22.3215C301.053 33.3488 307.245 48.305 307.245 63.9V106.444C307.245 108.516 306.422 110.504 304.957 111.97C303.492 113.435 301.505 114.259 299.433 114.259H54.9269C52.8552 114.259 50.8683 113.435 49.4034 111.97C47.9384 110.504 47.1154 108.516 47.1154 106.444V12.914Z" fill="#3F3D56"/>
<path d="M49.1796 209.964L54.6567 209.963L57.2621 188.828L49.1785 188.829L49.1796 209.964Z" fill="#FFB6B6"/>
<path d="M48.9867 215.68L65.8293 215.679V215.466C65.8292 213.727 65.1384 212.059 63.9091 210.829C62.6797 209.599 61.0123 208.908 59.2737 208.908H59.2733L56.1968 206.573L50.4567 208.908L48.9865 208.908L48.9867 215.68Z" fill="#2F2E41"/>
<path d="M25.2876 209.964L30.7647 209.963L33.3701 188.828L25.2865 188.829L25.2876 209.964Z" fill="#FFB6B6"/>
<path d="M25.095 215.68L41.9376 215.679V215.466C41.9374 213.727 41.2467 212.059 40.0173 210.829C38.788 209.599 37.1206 208.908 35.382 208.908H35.3816L32.3051 206.573L26.565 208.908L25.0947 208.908L25.095 215.68Z" fill="#2F2E41"/>
<path d="M62.8168 94.8035C62.8168 94.8035 68.0864 110.996 67.1138 113.127C66.1411 115.258 64.4815 113.598 66.1411 115.258C67.8006 116.918 69.2493 115.153 67.6952 117.973C66.1411 120.792 63.7867 144.002 62.7512 145.126C61.7157 146.25 60.2919 146.28 61.557 147.371C62.8221 148.463 64.4816 146.25 62.822 148.463C61.1625 150.677 56.7589 201.744 56.7589 201.744H48.1563C48.1563 201.744 46.0138 199.273 47.2266 197.665C48.4394 196.058 47.1201 195.438 47.2266 194.364C47.3331 193.29 46.9297 190.976 46.8548 189.919C46.7799 188.863 45.3261 163.7 48.8189 149.164L42.4498 121.486L34.7347 154.938C34.7347 154.938 38.2837 182.998 34.7347 192.018C34.7347 192.018 37.596 194.402 36.327 195.783C35.0581 197.164 33.9517 196.057 35.0581 197.164C36.1644 198.271 33.3986 202.145 33.3986 202.145L23.9945 201.592L18.6719 149.164C18.6719 149.164 17.7746 143.696 18.6719 142.759C19.5691 141.822 19.5691 145.143 19.5691 141.822V137.395C19.5691 137.395 20.0889 110.164 20.1582 108.56C20.2275 106.957 26.8656 95.3347 26.8656 95.3347L62.8168 94.8035Z" fill="#2F2E41"/>
<path d="M62.7382 38.8781V70.8063C61.708 73.8979 61.1765 77.1339 61.1638 80.3927C61.1978 85.8204 62.3909 92.0754 62.3871 94.81C62.403 95.1727 62.3635 95.5357 62.2701 95.8865C56.9882 111.203 29.0384 97.2841 26.4975 95.9809C26.3767 95.9205 26.3125 95.8865 26.3125 95.8865L26.8637 78.7307L26.7694 73.7978L26.1162 39.9584L26.7014 39.49L31.8285 35.3994L32.3306 34.999L33.871 37.2464L47.6024 36.3021L52.8427 34.8517L54.4775 35.5165L61.8472 38.5155L62.7382 38.8781Z" fill="#17882C"/>
<path d="M110.594 63.968L100.971 60.7851L98.387 66.0309L108.68 69.0338C109.017 69.5681 109.495 69.9978 110.063 70.2748C110.63 70.5517 111.263 70.6649 111.891 70.6016C112.519 70.5383 113.117 70.301 113.617 69.9164C114.118 69.5317 114.501 69.015 114.724 68.4244C114.948 67.8337 115.002 67.1925 114.88 66.5728C114.759 65.9531 114.468 65.3796 114.039 64.9166C113.609 64.4535 113.06 64.1195 112.451 63.9519C111.843 63.7843 111.2 63.7899 110.594 63.968Z" fill="#FFB6B6"/>
<path d="M53.4171 35.7725L53.3772 35.9318C52.6252 38.9413 51.6652 47.5372 53.7224 49.8583C56.3641 52.8426 77.703 61.9531 81.9421 61.2109C85.23 60.6352 84.5531 60.8284 86.1262 62.4657C87.6992 64.1031 85.0882 64.4855 88.5972 64.772C92.1062 65.0585 92.1761 63.7142 92.9277 65.205C93.6792 66.6958 93.0106 67.5941 95.3987 67.5112C97.7868 67.4282 98.3855 67.8742 99.207 68.0207C100.029 68.1672 105.187 70.6134 105.187 70.6134C105.187 70.6134 107.256 64.7072 109.861 62.4581C109.861 62.4581 103.887 61.7321 103.435 60.4643C102.983 59.1964 103.352 58.0751 101.786 58.3045C100.219 58.534 99.4039 60.2542 99.6203 58.088C99.8367 55.9218 88.5519 51.7048 88.5519 51.7048C81.7415 44.9965 67.7492 40.336 53.4171 35.7725Z" fill="#17882C"/>
<path d="M22.8869 102.455L22.4504 92.3253L16.6313 91.7673L17.4737 102.461C17.0937 102.965 16.8617 103.565 16.804 104.194C16.7462 104.823 16.8649 105.455 17.1467 106.02C17.4285 106.585 17.8622 107.06 18.3991 107.392C18.9361 107.724 19.5549 107.9 20.1861 107.899C20.8172 107.898 21.4357 107.722 21.9719 107.389C22.5081 107.056 22.9409 106.58 23.2215 106.014C23.5021 105.448 23.6194 104.816 23.5603 104.187C23.5012 103.558 23.268 102.959 22.8869 102.455Z" fill="#FFB6B6"/>
<path d="M28.9698 38.9725L28.8067 38.9917C27.2899 39.1708 25.8396 39.717 24.5813 40.583C23.323 41.4491 22.2947 42.609 21.5854 43.9622C19.7327 47.4914 13.8713 71.3946 15.3065 74.675C16.6449 77.7341 16.5895 76.9819 15.6169 79.0339C14.6443 81.0859 13.3612 78.7789 14.3374 82.163C15.3136 85.5471 16.5949 85.136 15.4679 86.3675C14.341 87.5991 13.2643 87.2921 14.1885 89.4967C15.1126 91.7013 14.908 92.4194 15.0623 93.2398C15.2167 94.0603 14.759 99.7531 14.759 99.7531C14.759 99.7531 21.0128 99.5951 24.0382 101.234C24.0382 101.234 22.5991 95.3888 23.6237 94.5163C24.6484 93.6438 25.8274 93.5917 25.0575 92.2076C24.2877 90.8234 22.3909 90.6708 24.4923 90.1053C26.5936 89.5398 26.5344 77.4882 26.5344 77.4882L28.9698 38.9725Z" fill="#17882C"/>
<path d="M43.9629 26.0623C43.7175 26.1189 43.4721 26.168 43.2267 26.2058C42.477 26.329 41.7159 26.3682 40.9576 26.3229C38.9822 26.2168 37.0748 25.5653 35.4469 24.4408C33.819 23.3163 32.5343 21.7627 31.7351 19.9523C30.936 18.1418 30.6537 16.1453 30.9195 14.1842C31.1854 12.223 31.989 10.3739 33.2413 8.84177C34.4936 7.30967 36.1455 6.15453 38.014 5.50443C39.8825 4.85433 41.8944 4.7347 43.8267 5.15879C45.759 5.58288 47.5361 6.53413 48.9609 7.90703C50.3858 9.27994 51.4027 11.0208 51.8989 12.9367C51.9216 13.0236 51.9442 13.1067 51.9631 13.1935C52.6073 15.9614 52.1264 18.8718 50.6262 21.285C49.1259 23.6982 46.7292 25.4166 43.9629 26.0623Z" fill="#FFB6B6"/>
<path d="M34.0779 24.7978C32.5883 23.6315 32.4437 21.4084 31.1725 20.007C29.0471 17.664 28.0486 15.1432 29.1619 12.3669C30.1467 9.91133 29.9374 6.89284 32.0582 5.31223C31.0166 4.935 30.7714 4.15159 31.6905 4.13712C32.3103 4.12737 34.6208 5.31245 33.5091 3.83615C32.3973 2.35986 34.5018 2.94258 34.3626 2.33829C34.2234 1.73399 33.3308 1.39929 32.9371 1.87831C34.194 0.40499 36.9387 0.719099 37.8305 2.43831C39.0832 0.56004 40.4129 -0.732385 42.3298 0.45956C44.2125 1.63023 44.1879 3.07734 46.2125 2.72956C47.1643 2.56608 47.2542 4.36506 47.9044 5.0794C48.5546 5.79373 49.505 6.34658 50.4539 6.16717C51.4029 5.98777 52.1285 4.80469 51.5967 3.99819L53.8333 9.10271L54.7346 7.99661C56.1669 8.93042 55.6964 11.3671 54.2548 12.2862C52.8131 13.2054 50.0616 11.0809 49.2793 12.6016C48.046 14.9986 45.1528 13.7882 43.1659 12.0942C40.7565 10.0398 37.8482 16.2862 39.0089 19.2326C37.8046 18.0495 35.5768 19.0313 34.9529 20.6003C34.329 22.1693 34.7865 23.937 35.249 25.5609L34.0779 24.7978Z" fill="#2F2E41"/>
<path d="M182.891 60.0668H171.558C171.264 60.0665 170.982 59.9495 170.774 59.7414C170.566 59.5334 170.449 59.2514 170.448 58.9572V47.7574C170.449 47.4632 170.566 47.1811 170.774 46.9731C170.982 46.765 171.264 46.648 171.558 46.6477H182.891C183.185 46.648 183.467 46.765 183.675 46.9731C183.883 47.1811 184 47.4632 184 47.7574V58.9572C184 59.2514 183.883 59.5334 183.675 59.7414C183.467 59.9495 183.185 60.0665 182.891 60.0668Z" fill="#F2F2F2"/>
<path d="M184.777 61.0107H173.444C173.15 61.0103 172.868 60.8933 172.66 60.6853C172.452 60.4773 172.336 60.1952 172.335 59.901V48.7012C172.336 48.407 172.452 48.125 172.66 47.9169C172.868 47.7089 173.15 47.5919 173.444 47.5916H184.777C185.072 47.5919 185.353 47.7089 185.561 47.9169C185.769 48.125 185.886 48.407 185.887 48.7012V59.901C185.886 60.1952 185.769 60.4772 185.561 60.6853C185.353 60.8933 185.072 61.0103 184.777 61.0107Z" fill="#F2F2F2"/>
<path d="M171.795 46.9783C171.525 46.9783 171.267 47.0854 171.076 47.2761C170.886 47.4668 170.779 47.7254 170.779 47.995V58.7195C170.779 58.9892 170.886 59.2478 171.076 59.4384C171.267 59.6291 171.525 59.7362 171.795 59.7362H178.725C180.036 59.7362 181.294 59.215 182.221 58.2874C183.148 57.3597 183.669 56.1016 183.669 54.7897V47.995C183.669 47.7254 183.562 47.4668 183.372 47.2761C183.181 47.0854 182.923 46.9783 182.653 46.9783H171.795Z" fill="white"/>
<path d="M180.259 50.2331H174.165C174.109 50.2331 174.055 50.2108 174.016 50.1713C173.976 50.1317 173.954 50.0781 173.954 50.0221C173.954 49.9662 173.976 49.9125 174.016 49.8729C174.055 49.8334 174.109 49.8112 174.165 49.8112H180.259C180.315 49.8112 180.369 49.8334 180.408 49.8729C180.448 49.9125 180.47 49.9662 180.47 50.0221C180.47 50.0781 180.448 50.1317 180.408 50.1713C180.369 50.2108 180.315 50.2331 180.259 50.2331Z" fill="#F2F2F2"/>
<path d="M180.259 54.7315H174.165C174.109 54.7315 174.055 54.7093 174.016 54.6697C173.976 54.6301 173.954 54.5765 173.954 54.5205C173.954 54.4646 173.976 54.4109 174.016 54.3714C174.055 54.3318 174.109 54.3096 174.165 54.3096H180.259C180.315 54.3096 180.369 54.3318 180.408 54.3714C180.448 54.4109 180.47 54.4646 180.47 54.5205C180.47 54.5765 180.448 54.6301 180.408 54.6697C180.369 54.7093 180.315 54.7315 180.259 54.7315Z" fill="#F2F2F2"/>
<path d="M182.734 52.4837H171.69C171.634 52.4837 171.581 52.4615 171.541 52.422C171.502 52.3824 171.479 52.3287 171.479 52.2728C171.479 52.2168 171.502 52.1632 171.541 52.1236C171.581 52.0841 171.634 52.0618 171.69 52.0618H182.734C182.79 52.0618 182.844 52.0841 182.883 52.1236C182.923 52.1632 182.945 52.2168 182.945 52.2728C182.945 52.3287 182.923 52.3824 182.883 52.422C182.844 52.4615 182.79 52.4837 182.734 52.4837Z" fill="#F2F2F2"/>
<path d="M182.847 56.5605H178.857C178.801 56.5605 178.748 56.5383 178.708 56.4987C178.669 56.4592 178.646 56.4055 178.646 56.3496C178.646 56.2936 178.669 56.24 178.708 56.2004C178.748 56.1608 178.801 56.1386 178.857 56.1386H182.847C182.903 56.1386 182.957 56.1608 182.996 56.2004C183.036 56.24 183.058 56.2936 183.058 56.3496C183.058 56.4055 183.036 56.4592 182.996 56.4987C182.957 56.5383 182.903 56.5605 182.847 56.5605Z" fill="#F2F2F2"/>
<path d="M148.712 67.0778L148.565 67.0051C139.965 62.7516 130.661 62.7555 120.123 67.0167L119.841 66.3163C130.529 61.9945 139.988 61.974 148.751 66.2552C161.083 61.5602 169.011 53.6029 172.316 42.6013L173.04 42.8189C169.649 54.1027 161.516 62.2452 148.865 67.0199L148.712 67.0778Z" fill="#F2F2F2"/>
<path d="M184.586 67.0777L184.439 67.0084C175.987 63.0413 166.678 63.045 155.98 67.0206L155.717 66.3124C166.551 62.2861 176.005 62.2665 184.611 66.2552C198.418 60.7359 206.345 52.7925 208.173 42.6431L208.916 42.777C207.032 53.2373 198.897 61.393 184.738 67.0174L184.586 67.0777Z" fill="#F2F2F2"/>
<path d="M212.859 66.6759L212.766 66.6357C205.802 63.6406 196.741 63.6468 184.253 66.656L184.076 65.9216C196.675 62.8859 205.861 62.8785 212.97 65.9017C227.083 64.1752 234.776 56.4498 236.486 42.287L237.236 42.3777C235.473 56.9703 227.533 64.9144 212.96 66.6638L212.859 66.6759Z" fill="#F2F2F2"/>
<path d="M175.859 44.3814C177.527 44.3814 178.879 43.0286 178.879 41.3597C178.879 39.6909 177.527 38.338 175.859 38.338C174.191 38.338 172.838 39.6909 172.838 41.3597C172.838 43.0286 174.191 44.3814 175.859 44.3814Z" fill="#17882C"/>
<path d="M209.838 44.3814C211.506 44.3814 212.858 43.0286 212.858 41.3597C212.858 39.6909 211.506 38.338 209.838 38.338C208.17 38.338 206.818 39.6909 206.818 41.3597C206.818 43.0286 208.17 44.3814 209.838 44.3814Z" fill="#17882C"/>
<path d="M237.021 44.0037C238.689 44.0037 240.042 42.6508 240.042 40.982C240.042 39.3131 238.689 37.9603 237.021 37.9603C235.353 37.9603 234.001 39.3131 234.001 40.982C234.001 42.6508 235.353 44.0037 237.021 44.0037Z" fill="#17882C"/>
<path d="M152.825 90.0946H121.077C120.253 90.0937 119.463 89.7659 118.881 89.1831C118.298 88.6003 117.97 87.8102 117.969 86.986V55.6109C117.97 54.7867 118.298 53.9965 118.881 53.4138C119.463 52.831 120.253 52.5032 121.077 52.5023H152.825C153.649 52.5032 154.439 52.831 155.021 53.4138C155.604 53.9965 155.932 54.7867 155.932 55.6109V86.986C155.932 87.8102 155.604 88.6003 155.021 89.1831C154.439 89.7659 153.649 90.0937 152.825 90.0946Z" fill="#E6E6E6"/>
<path d="M147.54 87.4506H115.791C114.967 87.4497 114.177 87.1219 113.595 86.5391C113.012 85.9564 112.685 85.1662 112.684 84.342V52.9669C112.685 52.1427 113.012 51.3526 113.595 50.7698C114.177 50.187 114.967 49.8592 115.791 49.8583H147.54C148.363 49.8592 149.153 50.187 149.736 50.7698C150.318 51.3526 150.646 52.1427 150.647 52.9669V84.342C150.646 85.1662 150.318 85.9564 149.736 86.5391C149.153 87.1219 148.363 87.4497 147.54 87.4506Z" fill="#E6E6E6"/>
<path d="M121.704 50.7845C119.557 50.7845 117.498 51.6376 115.98 53.1562C114.462 54.6748 113.61 56.7345 113.61 58.8821V83.6764C113.61 84.0504 113.683 84.4207 113.826 84.7663C113.969 85.1118 114.179 85.4258 114.443 85.6902C114.708 85.9547 115.022 86.1645 115.367 86.3076C115.712 86.4508 116.083 86.5244 116.456 86.5244H135.87C137.689 86.5244 139.49 86.166 141.17 85.4696C142.851 84.7732 144.378 83.7525 145.664 82.4657C146.95 81.1789 147.971 79.6513 148.667 77.9701C149.363 76.2888 149.721 74.4869 149.721 72.6671V53.6325C149.721 52.8772 149.421 52.1528 148.887 51.6187C148.353 51.0846 147.629 50.7845 146.874 50.7845H121.704Z" fill="white"/>
<path d="M140.168 59.9022H123.096C122.939 59.9022 122.789 59.84 122.678 59.7292C122.567 59.6183 122.505 59.468 122.505 59.3113C122.505 59.1546 122.567 59.0043 122.678 58.8934C122.789 58.7826 122.939 58.7203 123.096 58.7203H140.168C140.325 58.7203 140.475 58.7826 140.586 58.8934C140.697 59.0043 140.759 59.1546 140.759 59.3113C140.759 59.468 140.697 59.6183 140.586 59.7292C140.475 59.84 140.325 59.9022 140.168 59.9022Z" fill="#E6E6E6"/>
<path d="M140.168 72.5042H123.096C123.018 72.5044 122.941 72.4892 122.869 72.4596C122.797 72.43 122.732 72.3865 122.677 72.3316C122.622 72.2767 122.578 72.2115 122.549 72.1397C122.519 72.0679 122.503 71.9909 122.503 71.9132C122.503 71.8355 122.519 71.7585 122.549 71.6867C122.578 71.6149 122.622 71.5497 122.677 71.4948C122.732 71.4399 122.797 71.3964 122.869 71.3668C122.941 71.3372 123.018 71.3221 123.096 71.3223H140.168C140.325 71.3227 140.475 71.3851 140.585 71.4959C140.696 71.6067 140.758 71.7567 140.758 71.9132C140.758 72.0697 140.696 72.2198 140.585 72.3306C140.475 72.4413 140.325 72.5038 140.168 72.5042Z" fill="#E6E6E6"/>
<path d="M147.101 66.2074H116.163C116.006 66.2074 115.856 66.1451 115.745 66.0343C115.634 65.9234 115.572 65.7731 115.572 65.6164C115.572 65.4597 115.634 65.3094 115.745 65.1985C115.856 65.0877 116.006 65.0255 116.163 65.0255H147.101C147.258 65.0255 147.408 65.0877 147.519 65.1985C147.63 65.3094 147.692 65.4597 147.692 65.6164C147.692 65.7731 147.63 65.9234 147.519 66.0343C147.408 66.1451 147.258 66.2074 147.101 66.2074Z" fill="#E6E6E6"/>
<path d="M147.417 77.6281H136.241C136.163 77.6281 136.086 77.6128 136.015 77.5831C135.943 77.5534 135.878 77.5099 135.823 77.455C135.768 77.4001 135.725 77.335 135.695 77.2633C135.665 77.1916 135.65 77.1147 135.65 77.0371C135.65 76.9595 135.665 76.8827 135.695 76.811C135.725 76.7393 135.768 76.6741 135.823 76.6193C135.878 76.5644 135.943 76.5209 136.015 76.4912C136.086 76.4615 136.163 76.4462 136.241 76.4462H147.417C147.574 76.4462 147.724 76.5084 147.835 76.6193C147.946 76.7301 148.008 76.8804 148.008 77.0371C148.008 77.1938 147.946 77.3442 147.835 77.455C147.724 77.5658 147.574 77.6281 147.417 77.6281Z" fill="#E6E6E6"/>
<path d="M222.911 58.5559H211.577C211.283 58.5556 211.001 58.4386 210.793 58.2306C210.586 58.0225 210.469 57.7405 210.468 57.4463V46.2465C210.469 45.9523 210.586 45.6702 210.793 45.4622C211.001 45.2542 211.283 45.1372 211.577 45.1368H222.911C223.205 45.1372 223.487 45.2542 223.694 45.4622C223.902 45.6702 224.019 45.9523 224.02 46.2465V57.4463C224.019 57.7405 223.902 58.0225 223.694 58.2306C223.487 58.4386 223.205 58.5556 222.911 58.5559Z" fill="#F2F2F2"/>
<path d="M224.797 59.4998H213.464C213.17 59.4995 212.888 59.3824 212.68 59.1744C212.473 58.9664 212.356 58.6843 212.355 58.3901V47.1903C212.356 46.8961 212.473 46.6141 212.68 46.4061C212.888 46.198 213.17 46.081 213.464 46.0807H224.797C225.092 46.081 225.373 46.198 225.581 46.4061C225.789 46.6141 225.906 46.8961 225.907 47.1903V58.3901C225.906 58.6843 225.789 58.9664 225.581 59.1744C225.373 59.3824 225.092 59.4995 224.797 59.4998Z" fill="#F2F2F2"/>
<path d="M211.815 45.4675C211.546 45.4675 211.287 45.5746 211.096 45.7652C210.906 45.9559 210.799 46.2145 210.799 46.4841V57.2087C210.799 57.4783 210.906 57.7369 211.096 57.9276C211.287 58.1182 211.546 58.2253 211.815 58.2253H218.745C220.056 58.2253 221.314 57.7042 222.241 56.7765C223.168 55.8489 223.689 54.5907 223.689 53.2788V46.4841C223.689 46.2145 223.582 45.9559 223.392 45.7652C223.201 45.5746 222.943 45.4675 222.673 45.4675H211.815Z" fill="white"/>
<path d="M220.279 48.7222H214.185C214.129 48.7222 214.075 48.7 214.036 48.6604C213.996 48.6209 213.974 48.5672 213.974 48.5112C213.974 48.4553 213.996 48.4016 214.036 48.3621C214.075 48.3225 214.129 48.3003 214.185 48.3003H220.279C220.335 48.3003 220.389 48.3225 220.428 48.3621C220.468 48.4016 220.49 48.4553 220.49 48.5112C220.49 48.5672 220.468 48.6209 220.428 48.6604C220.389 48.7 220.335 48.7222 220.279 48.7222Z" fill="#F2F2F2"/>
<path d="M220.279 53.2206H214.185C214.129 53.2206 214.075 53.1984 214.036 53.1588C213.996 53.1193 213.974 53.0656 213.974 53.0097C213.974 52.9537 213.996 52.9001 214.036 52.8605C214.075 52.8209 214.129 52.7987 214.185 52.7987H220.279C220.335 52.7987 220.389 52.8209 220.428 52.8605C220.468 52.9001 220.49 52.9537 220.49 53.0097C220.49 53.0656 220.468 53.1193 220.428 53.1588C220.389 53.1984 220.335 53.2206 220.279 53.2206Z" fill="#F2F2F2"/>
<path d="M222.754 50.9729H211.71C211.654 50.9729 211.601 50.9506 211.561 50.9111C211.521 50.8715 211.499 50.8179 211.499 50.7619C211.499 50.706 211.521 50.6523 211.561 50.6127C211.601 50.5732 211.654 50.551 211.71 50.551H222.754C222.81 50.551 222.864 50.5732 222.903 50.6127C222.943 50.6523 222.965 50.706 222.965 50.7619C222.965 50.8179 222.943 50.8715 222.903 50.9111C222.864 50.9506 222.81 50.9729 222.754 50.9729Z" fill="#F2F2F2"/>
<path d="M222.867 55.0497H218.877C218.821 55.0497 218.768 55.0274 218.728 54.9879C218.689 54.9483 218.667 54.8946 218.667 54.8387C218.667 54.7828 218.689 54.7291 218.728 54.6895C218.768 54.65 218.821 54.6277 218.877 54.6277H222.867C222.923 54.6277 222.977 54.65 223.016 54.6895C223.056 54.7291 223.078 54.7828 223.078 54.8387C223.078 54.8946 223.056 54.9483 223.016 54.9879C222.977 55.0274 222.923 55.0497 222.867 55.0497Z" fill="#F2F2F2"/>
<path d="M92.9935 210.453C92.818 210.461 92.6443 210.415 92.4959 210.321C92.3475 210.227 92.2315 210.09 92.1637 209.928C92.096 209.765 92.0796 209.586 92.117 209.415C92.1544 209.243 92.2436 209.087 92.3726 208.967L92.4313 208.734C92.4236 208.715 92.4158 208.697 92.408 208.678C92.2312 208.26 91.9349 207.904 91.5564 207.654C91.178 207.404 90.7341 207.272 90.2806 207.273C89.8272 207.275 89.3843 207.411 89.0077 207.664C88.6311 207.916 88.3375 208.275 88.1638 208.694C87.4697 210.366 86.5859 212.042 86.3683 213.81C86.2724 214.592 86.3129 215.384 86.4878 216.152C84.8574 212.594 84.0108 208.727 84.0053 204.813C84.005 203.831 84.0596 202.849 84.1687 201.873C84.259 201.073 84.3841 200.278 84.5443 199.49C85.4181 195.21 87.2943 191.198 90.0187 187.784C91.3374 187.065 92.4038 185.958 93.0742 184.613C93.3171 184.13 93.4888 183.614 93.5839 183.081C93.4351 183.1 93.023 180.834 93.1352 180.695C92.9279 180.38 92.5569 180.224 92.3305 179.917C91.2045 178.389 89.6532 178.656 88.8434 180.732C87.1134 181.605 87.0966 183.054 88.1581 184.447C88.8335 185.333 88.9263 186.533 89.5188 187.482C89.4579 187.56 89.3945 187.636 89.3335 187.714C88.2191 189.147 87.2478 190.687 86.4336 192.31C86.6316 190.492 86.3953 188.652 85.744 186.943C85.084 185.35 83.8469 184.008 82.7575 182.631C82.4693 182.261 82.078 181.985 81.633 181.838C81.188 181.69 80.7093 181.678 80.2574 181.803C79.8055 181.927 79.4007 182.183 79.0941 182.538C78.7875 182.893 78.5929 183.33 78.535 183.796C78.5327 183.816 78.5306 183.836 78.5284 183.857C78.6903 183.948 78.8487 184.045 79.0036 184.147C79.1983 184.278 79.3492 184.464 79.4365 184.681C79.5237 184.898 79.5433 185.137 79.4927 185.366C79.442 185.594 79.3235 185.803 79.1526 185.963C78.9817 186.123 78.7665 186.228 78.5351 186.263L78.5114 186.267C78.569 186.85 78.6709 187.429 78.8162 187.997C77.4186 193.404 80.4359 195.373 84.7442 195.462C84.8393 195.511 84.932 195.559 85.0271 195.606C84.209 197.925 83.6959 200.341 83.5006 202.793C83.39 204.239 83.3965 205.692 83.5201 207.138L83.5128 207.087C83.2006 205.479 82.3436 204.029 81.0864 202.981C79.2192 201.446 76.5813 200.881 74.5669 199.648C74.3528 199.51 74.1039 199.437 73.8495 199.436C73.5951 199.436 73.3458 199.508 73.131 199.644C72.9163 199.781 72.745 199.976 72.6374 200.206C72.5299 200.437 72.4905 200.694 72.5239 200.946L72.5321 201C72.8324 201.122 73.1248 201.263 73.4076 201.422C73.5694 201.513 73.7278 201.61 73.8827 201.713C74.0774 201.843 74.2283 202.029 74.3156 202.246C74.4028 202.463 74.4224 202.702 74.3718 202.931C74.3211 203.16 74.2026 203.368 74.0317 203.528C73.8609 203.688 73.6456 203.793 73.4142 203.829L73.3905 203.832C73.3734 203.835 73.3587 203.837 73.3417 203.839C73.8548 205.065 74.5749 206.193 75.4705 207.174C76.3444 211.895 80.0977 212.343 84.1127 210.968H84.1151C84.5556 212.883 85.1939 214.747 86.0196 216.53H92.823C92.8475 216.455 92.8694 216.377 92.8913 216.301C92.2616 216.341 91.6294 216.303 91.0088 216.189C91.5136 215.569 92.0183 214.945 92.5231 214.325C92.5344 214.313 92.545 214.301 92.5548 214.288C92.8109 213.971 93.0694 213.656 93.3254 213.339L93.3255 213.339C93.3392 212.367 93.2274 211.397 92.9935 210.453Z" fill="#F2F2F2"/>
<path d="M1.98961e-06 216.551C-0.000173976 216.61 0.0113237 216.668 0.0338415 216.723C0.0563593 216.777 0.0894491 216.827 0.131207 216.869C0.172964 216.911 0.222567 216.944 0.277159 216.966C0.331751 216.989 0.390254 217 0.449306 217H96.078C96.1972 217 96.3115 216.953 96.3957 216.868C96.48 216.784 96.5273 216.67 96.5273 216.551C96.5273 216.431 96.48 216.317 96.3957 216.233C96.3115 216.148 96.1972 216.101 96.078 216.101H0.449306C0.390255 216.101 0.33175 216.112 0.277159 216.135C0.222568 216.157 0.172969 216.191 0.131212 216.232C0.0894553 216.274 0.0563658 216.324 0.0338473 216.378C0.0113288 216.433 -0.000171971 216.491 1.98961e-06 216.551Z" fill="#CCCCCC"/>
<path d="M40.9576 26.3229L43.2267 26.2058C42.477 26.329 41.716 26.3683 40.9576 26.3229Z" fill="#F2F2F2"/>
<path d="M54.4778 35.5165L54.104 35.9924L53.0997 37.2691L44.4275 48.3021L31.8287 35.3994L32.3309 34.999L35.0039 29.3144L48.7353 28.3701L52.843 34.8517L54.4778 35.5165Z" fill="#3F3D56"/>
</g>
<defs>
<clipPath id="clip0_133_107">
<rect width="308" height="217" fill="white"/>
</clipPath>
</defs>
</svg>
