<svg width="345" height="189" viewBox="0 0 345 189" fill="none" xmlns="http://www.w3.org/2000/svg">
<g clip-path="url(#clip0_62_6725)">
<path d="M299.483 187.761C299.516 187.662 302.712 177.731 297.054 168.869L296.477 169.241C301.954 177.819 298.863 187.447 298.832 187.543L299.483 187.761Z" fill="#E4E4E4"/>
<path d="M293.009 170.144C293.131 170.724 293.365 171.275 293.699 171.764C294.033 172.253 294.46 172.672 294.954 172.996C295.449 173.32 296.003 173.543 296.584 173.652C297.165 173.761 297.761 173.754 298.339 173.631C298.917 173.509 299.466 173.273 299.953 172.938C300.441 172.603 300.858 172.175 301.18 171.678C301.503 171.181 301.725 170.625 301.833 170.042C301.942 169.459 301.935 168.86 301.813 168.28C301.3 165.839 296.953 159.764 294.522 160.279C292.091 160.793 292.496 167.703 293.009 170.144Z" fill="#E4E4E4"/>
<path d="M293.828 181.56C295.998 183.914 299.88 183.85 299.88 183.85C299.88 183.85 300.244 179.97 298.074 177.616C295.904 175.262 292.022 175.325 292.022 175.325C292.022 175.325 291.659 179.206 293.828 181.56Z" fill="#E4E4E4"/>
<path d="M326.716 188.45C326.794 188.215 334.338 164.78 320.985 143.867L319.622 144.744C332.547 164.988 325.255 187.709 325.18 187.936L326.716 188.45Z" fill="#E4E4E4"/>
<path d="M311.438 146.875C312.019 149.64 313.671 152.061 316.03 153.604C318.389 155.147 321.262 155.686 324.017 155.102C326.772 154.519 329.183 152.861 330.72 150.493C332.258 148.125 332.795 145.241 332.215 142.475C331.005 136.715 320.747 122.379 315.009 123.594C309.272 124.809 310.228 141.114 311.438 146.875Z" fill="#E4E4E4"/>
<path d="M313.372 173.816C318.493 179.372 327.653 179.221 327.653 179.221C327.653 179.221 328.512 170.063 323.391 164.508C318.271 158.952 309.11 159.103 309.11 159.103C309.11 159.103 308.252 168.261 313.372 173.816Z" fill="#E4E4E4"/>
<path d="M199.026 186.685L194.02 184.569L190.585 159.371H144.849L141.127 184.466L136.648 186.714C136.433 186.822 136.261 186.999 136.16 187.217C136.058 187.435 136.033 187.681 136.088 187.915C136.143 188.149 136.275 188.357 136.463 188.507C136.651 188.656 136.884 188.737 137.123 188.737H198.613C198.859 188.737 199.097 188.652 199.287 188.496C199.477 188.34 199.607 188.122 199.656 187.881C199.705 187.639 199.668 187.388 199.554 187.17C199.439 186.952 199.252 186.781 199.026 186.685Z" fill="#E6E6E6"/>
<path d="M280.302 162.724H55.6352C54.4564 162.721 53.3268 162.249 52.4943 161.411C51.6617 160.574 51.1941 159.439 51.1941 158.255V126.448H284.743V158.255C284.743 159.439 284.275 160.574 283.442 161.411C282.61 162.249 281.48 162.721 280.302 162.724Z" fill="#CCCCCC"/>
<path d="M284.977 141.481H50.989V5.38694C50.9907 3.95871 51.5565 2.58945 52.5625 1.57955C53.5684 0.569658 54.9323 0.00160085 56.3548 0H279.612C281.034 0.00159991 282.398 0.569654 283.404 1.57955C284.41 2.58944 284.976 3.9587 284.977 5.38694V141.481Z" fill="#3F3D56"/>
<path d="M271.004 9.87744H64.9634C63.8668 9.87882 62.8155 10.317 62.0404 11.0959C61.2653 11.8747 60.8297 12.9306 60.8292 14.0316V127.45C60.8297 128.551 61.2653 129.607 62.0404 130.385C62.8155 131.164 63.8668 131.603 64.9634 131.604H271.004C272.1 131.602 273.151 131.164 273.926 130.385C274.701 129.606 275.137 128.551 275.138 127.45V14.0316C275.137 12.9307 274.701 11.8752 273.926 11.0965C273.151 10.3178 272.1 9.87938 271.004 9.87744Z" fill="white"/>
<path d="M101.486 9.87744V131.604H64.9634C63.8668 131.603 62.8155 131.164 62.0404 130.385C61.2653 129.607 60.8297 128.551 60.8292 127.45V14.0316C60.8297 12.9306 61.2653 11.8747 62.0404 11.0959C62.8155 10.317 63.8668 9.87882 64.9634 9.87744H101.486Z" fill="#F0F0F0"/>
<path d="M71.3554 71.3697C70.9443 71.2757 70.5176 71.2734 70.1055 71.3629C69.6934 71.4523 69.3059 71.6314 68.9702 71.8876C68.6345 72.1437 68.3588 72.4706 68.1625 72.8453C67.9663 73.2199 67.8543 73.6332 67.8343 74.056L58.0037 76.9658L62.0733 80.415L70.7848 77.1231C71.4945 77.1096 72.1747 76.8353 72.6964 76.352C73.2182 75.8687 73.5452 75.21 73.6155 74.5008C73.6858 73.7916 73.4946 73.0812 73.078 72.5041C72.6615 71.927 72.0485 71.5233 71.3554 71.3697Z" fill="#FFB6B6"/>
<path d="M31.6348 93.2682C30.6629 93.2669 29.7231 92.9192 28.9828 92.2869C28.2426 91.6546 27.7502 90.7789 27.5932 89.816C27.4363 88.8531 27.6252 87.8655 28.1261 87.0294C28.627 86.1932 29.4074 85.5629 30.3282 85.2507L50.2495 78.4994L65.789 72.8159L67.6959 79.5173L53.9778 88.5925L32.4922 93.1775C32.2103 93.2377 31.9229 93.2681 31.6348 93.2682Z" fill="#17882C"/>
<path d="M44.1013 185.589H46.8982L48.229 174.758H44.1006L44.1013 185.589Z" fill="#FFB6B6"/>
<path d="M43.3877 184.672L48.8961 184.672C49.8271 184.672 50.7201 185.043 51.3785 185.704C52.0368 186.365 52.4066 187.262 52.4067 188.196V188.311L43.3879 188.311L43.3877 184.672Z" fill="#2F2E41"/>
<path d="M22.6554 185.589H25.4523L26.7831 174.758H22.655L22.6554 185.589Z" fill="#FFB6B6"/>
<path d="M21.9419 184.672L27.4503 184.672C28.3813 184.672 29.2743 185.043 29.9327 185.704C30.591 186.365 30.9608 187.262 30.9609 188.196V188.311L21.9421 188.311L21.9419 184.672Z" fill="#2F2E41"/>
<path d="M22.6277 120.62C21.3476 123.613 21.0675 126.942 21.8292 130.109L21.0306 183.838H27.1736L30.6128 154.29L36.3165 134.821L42.4765 149.938V181.446L48.4083 181.09L51.6024 147.648L47.9521 123.826L22.6277 120.62Z" fill="#2F2E41"/>
<path d="M45.1002 78.8173L39.8528 77.214L38.4839 74.4653H31.7436L30.0424 77.443C30.0424 77.443 23.198 79.9626 22.9698 92.1024C22.7417 104.242 21.8291 123.712 21.8291 123.712L48.817 127.575L45.1002 78.8173Z" fill="#17882C"/>
<path d="M52.8481 125.401C53.0251 125.016 53.1161 124.598 53.1146 124.175C53.1131 123.751 53.0192 123.333 52.8394 122.951C52.6597 122.568 52.3985 122.229 52.0743 121.958C51.7501 121.688 51.3707 121.492 50.9629 121.384L50.1718 111.125L45.9652 114.405L47.3613 123.644C47.2269 124.344 47.3528 125.069 47.7152 125.682C48.0776 126.294 48.6513 126.752 49.3276 126.969C50.0039 127.186 50.7359 127.145 51.3847 126.856C52.0336 126.567 52.5542 126.049 52.8481 125.401Z" fill="#FFB6B6"/>
<path d="M45.6708 120.113L39.6812 104.755V82.7016C39.6811 81.6512 40.0811 80.6406 40.7991 79.8766C41.5171 79.1126 42.4989 78.653 43.5434 78.5921C44.5878 78.5311 45.616 78.8733 46.4174 79.5487C47.2187 80.224 47.7326 81.1813 47.8539 82.2246L50.2899 103.192L52.5963 119.633L45.6708 120.113Z" fill="#17882C"/>
<path d="M36.4067 70.8998C40.1268 70.8998 43.1424 67.8721 43.1424 64.1373C43.1424 60.4025 40.1268 57.3749 36.4067 57.3749C32.6867 57.3749 29.671 60.4025 29.671 64.1373C29.671 67.8721 32.6867 70.8998 36.4067 70.8998Z" fill="#FFB9B9"/>
<path d="M36.8478 62.0817C36.5327 62.4878 36.1007 62.8545 36.0313 63.3646C35.9799 63.7426 36.1443 64.1162 36.16 64.4973C36.1613 64.882 36.0164 65.2527 35.7549 65.5338C35.4934 65.815 35.1349 65.9855 34.7526 66.0105C34.4863 65.674 34.1015 65.4531 33.6776 65.3933C33.4666 65.3693 33.2536 65.4139 33.0697 65.5205C32.8859 65.6272 32.741 65.7902 32.6563 65.9856C32.4563 66.5529 32.9193 67.1292 32.9937 67.7263C33.0036 68.168 32.9324 68.6078 32.7838 69.0236C32.6131 69.7087 32.5675 70.4336 32.268 71.0727C31.9686 71.7117 31.3028 72.2614 30.6136 72.1202C30.034 72.0014 29.6419 71.4378 29.4798 70.8667C29.3177 70.2956 29.325 69.69 29.2077 69.108C28.8265 67.2167 27.205 65.8154 26.5688 63.9945C25.7537 61.6614 26.733 58.9927 28.4207 57.192C29.103 56.4031 29.9938 55.8241 30.99 55.5219C32.0418 55.2531 33.1538 55.4463 34.233 55.3313C35.3872 55.2084 36.472 54.7375 37.5937 54.4382C38.7154 54.139 39.9683 54.0263 40.9879 54.583C41.699 54.9713 42.214 55.6409 42.8766 56.1078C43.6362 56.6391 44.5571 56.8865 45.4794 56.8072L44.378 57.2906C44.7996 57.679 45.3087 57.959 45.8618 58.1065C45.4117 58.4647 44.8549 58.6609 44.2806 58.6638C44.4003 58.8805 44.5631 59.0702 44.7588 59.2213C44.9545 59.3724 45.179 59.4816 45.4183 59.5421C44.582 59.9363 43.6941 60.3401 42.7744 60.2512C42.3239 60.2077 41.8933 60.0469 41.4483 59.9642C40.4999 59.7878 39.5258 59.9706 38.5784 60.1531C38.0809 60.2489 37.4704 60.3408 37.2191 60.8211C37.0099 61.221 37.1699 61.6666 36.8478 62.0817Z" fill="#2F2E41"/>
<path d="M81.1574 81.529C87.092 81.529 91.903 76.6989 91.903 70.7407C91.903 64.7825 87.092 59.9524 81.1574 59.9524C75.2227 59.9524 70.4117 64.7825 70.4117 70.7407C70.4117 76.6989 75.2227 81.529 81.1574 81.529Z" fill="#17882C"/>
<path d="M87.6047 70.7408H81.8023V64.915H80.5127V70.7408H74.71V72.0352H80.5127V77.861H81.8023V72.0352H87.6047V70.7408Z" fill="white"/>
<path d="M172.663 24.1146C172.331 24.115 172.014 24.2473 171.779 24.4826C171.545 24.7178 171.413 25.0368 171.413 25.3695V46.3805C171.413 46.7132 171.545 47.0322 171.779 47.2674C172.014 47.5027 172.331 47.6351 172.663 47.6355H257.03C257.361 47.6351 257.679 47.5027 257.913 47.2674C258.148 47.0322 258.279 46.7132 258.28 46.3805V25.3695C258.279 25.0368 258.148 24.7178 257.913 24.4826C257.679 24.2473 257.361 24.115 257.03 24.1146H172.663Z" fill="white"/>
<path d="M172.663 24.1146C172.331 24.115 172.014 24.2473 171.779 24.4826C171.545 24.7178 171.413 25.0368 171.413 25.3695V46.3805C171.413 46.7132 171.545 47.0322 171.779 47.2674C172.014 47.5027 172.331 47.6351 172.663 47.6355H257.03C257.361 47.6351 257.679 47.5027 257.913 47.2674C258.148 47.0322 258.279 46.7132 258.28 46.3805V25.3695C258.279 25.0368 258.148 24.7178 257.913 24.4826C257.679 24.2473 257.361 24.115 257.03 24.1146H172.663Z" fill="#E6E6E6"/>
<path d="M172.819 46.2237H256.874V25.5264H172.819V46.2237Z" fill="white"/>
<path d="M182.376 31.4831C182.086 31.4831 181.807 31.5988 181.602 31.8047C181.397 32.0106 181.282 32.2899 181.282 32.5811C181.282 32.8723 181.397 33.1516 181.602 33.3575C181.807 33.5634 182.086 33.6791 182.376 33.6791H247.314C247.457 33.6791 247.6 33.6508 247.732 33.5957C247.865 33.5406 247.986 33.4597 248.087 33.3578C248.189 33.2559 248.27 33.1349 248.325 33.0017C248.38 32.8685 248.408 32.7257 248.408 32.5816C248.408 32.4374 248.38 32.2946 248.325 32.1613C248.27 32.0281 248.19 31.907 248.088 31.805C247.986 31.703 247.866 31.6221 247.733 31.5669C247.601 31.5116 247.458 31.4832 247.315 31.4831H182.376Z" fill="#E4E4E4"/>
<path d="M182.376 38.071C182.086 38.0716 181.808 38.1875 181.604 38.3933C181.399 38.5992 181.284 38.8782 181.284 39.169C181.284 39.4599 181.399 39.7389 181.604 39.9447C181.808 40.1506 182.086 40.2665 182.376 40.267H247.314C247.604 40.2677 247.882 40.1526 248.088 39.9472C248.293 39.7417 248.409 39.4627 248.41 39.1715C248.411 38.8803 248.296 38.6007 248.091 38.3944C247.887 38.188 247.609 38.0717 247.319 38.071H182.376Z" fill="#E4E4E4"/>
<path d="M113.994 59.7656C113.663 59.766 113.345 59.8983 113.111 60.1336C112.876 60.3688 112.744 60.6878 112.744 61.0205V82.0315C112.744 82.3642 112.876 82.6832 113.111 82.9184C113.345 83.1537 113.663 83.2861 113.994 83.2865H198.361C198.693 83.2861 199.01 83.1537 199.245 82.9184C199.479 82.6832 199.611 82.3642 199.611 82.0315V61.0205C199.611 60.6878 199.479 60.3688 199.245 60.1336C199.01 59.8983 198.693 59.766 198.361 59.7656H113.994Z" fill="white"/>
<path d="M113.994 59.7656C113.663 59.766 113.345 59.8983 113.111 60.1336C112.876 60.3688 112.744 60.6878 112.744 61.0205V82.0315C112.744 82.3642 112.876 82.6832 113.111 82.9184C113.345 83.1537 113.663 83.2861 113.994 83.2865H198.361C198.693 83.2861 199.01 83.1537 199.245 82.9184C199.479 82.6832 199.611 82.3642 199.611 82.0315V61.0205C199.611 60.6878 199.479 60.3688 199.245 60.1336C199.01 59.8983 198.693 59.766 198.361 59.7656H113.994Z" fill="#E6E6E6"/>
<path d="M114.15 81.8747H198.205V61.1774H114.15V81.8747Z" fill="white"/>
<path d="M123.707 67.134C123.417 67.134 123.139 67.2497 122.934 67.4556C122.729 67.6615 122.613 67.9408 122.613 68.232C122.613 68.5232 122.729 68.8025 122.934 69.0084C123.139 69.2143 123.417 69.33 123.707 69.33H188.645C188.789 69.3301 188.931 69.3017 189.064 69.2466C189.197 69.1915 189.317 69.1107 189.419 69.0088C189.52 68.9068 189.601 68.7858 189.656 68.6526C189.711 68.5195 189.739 68.3767 189.739 68.2325C189.739 68.0883 189.711 67.9455 189.656 67.8123C189.601 67.679 189.521 67.558 189.419 67.456C189.318 67.354 189.197 67.273 189.065 67.2178C188.932 67.1626 188.79 67.1341 188.646 67.134H123.707Z" fill="#E4E4E4"/>
<path d="M123.707 73.722C123.417 73.7225 123.14 73.8384 122.935 74.0443C122.73 74.2501 122.615 74.5291 122.615 74.82C122.615 75.1108 122.73 75.3898 122.935 75.5957C123.14 75.8015 123.417 75.9174 123.707 75.918H188.645C188.935 75.9186 189.214 75.8035 189.419 75.5981C189.625 75.3926 189.741 75.1136 189.741 74.8224C189.742 74.5312 189.627 74.2517 189.423 74.0453C189.218 73.8389 188.94 73.7226 188.65 73.722H123.707Z" fill="#E4E4E4"/>
<path d="M216.831 116.157C217.207 116.116 217.569 115.992 217.892 115.795C218.215 115.597 218.491 115.331 218.7 115.015C218.91 114.7 219.048 114.341 219.104 113.966C219.161 113.591 219.135 113.208 219.029 112.844L226.506 107.482L222.05 105.759L215.632 111.115C215.035 111.336 214.539 111.769 214.239 112.332C213.938 112.895 213.853 113.549 214.001 114.171C214.149 114.792 214.519 115.338 215.04 115.704C215.562 116.07 216.199 116.231 216.831 116.157Z" fill="#FFB7B7"/>
<path d="M220.982 112.626L218.502 108.372L218.554 108.312L228.562 96.8733L236.333 83.5695L243.08 84.4329L243.18 86.4805L243.16 86.5111L232.439 102.69L232.428 102.7L220.982 112.626Z" fill="#3F3D56"/>
<path d="M254.048 184.598L250.232 184.597L248.417 169.82L254.049 169.821L254.048 184.598Z" fill="#FFB7B7"/>
<path d="M255.021 188.311L242.717 188.311V188.154C242.717 186.879 243.222 185.656 244.12 184.755C245.018 183.853 246.236 183.347 247.506 183.346L255.022 183.347L255.021 188.311Z" fill="#2F2E41"/>
<path d="M221.208 184.472L217.496 183.582L219.148 168.786L224.626 170.099L221.208 184.472Z" fill="#FFB7B7"/>
<path d="M221.295 188.311L209.328 185.442L209.364 185.29C209.659 184.05 210.433 182.978 211.515 182.31C212.597 181.643 213.899 181.434 215.134 181.73L222.444 183.483L221.295 188.311Z" fill="#2F2E41"/>
<path d="M236.038 76.8138V70.3652C236.038 68.0734 236.944 65.8755 238.559 64.255C240.173 62.6345 242.362 61.7241 244.644 61.7241C246.927 61.7241 249.116 62.6345 250.73 64.255C252.345 65.8755 253.251 68.0734 253.251 70.3652V76.8138C253.251 77.1215 253.129 77.4165 252.912 77.6341C252.696 77.8518 252.402 77.9742 252.095 77.9745H237.194C236.887 77.9742 236.593 77.8518 236.377 77.6341C236.16 77.4165 236.038 77.1215 236.038 76.8138Z" fill="#2F2E41"/>
<path d="M242.52 77.8765C246.005 77.8765 248.831 75.0401 248.831 71.5411C248.831 68.0422 246.005 65.2058 242.52 65.2058C239.035 65.2058 236.21 68.0422 236.21 71.5411C236.21 75.0401 239.035 77.8765 242.52 77.8765Z" fill="#FFB7B7"/>
<path d="M234.001 70.8811C234.003 69.0688 234.721 67.3314 235.998 66.0499C237.274 64.7684 239.005 64.0476 240.81 64.0456H242.094C243.9 64.0476 245.63 64.7685 246.906 66.0499C248.183 67.3314 248.901 69.0688 248.903 70.8811V71.01H246.188L245.262 68.4069L245.077 71.01H243.674L243.207 69.6966L243.113 71.01H234.001V70.8811Z" fill="#2F2E41"/>
<path d="M246.201 104.978L230.134 104.365L229.236 93.8114C228.543 91.8798 228.532 90.2214 229.203 88.8822C229.779 87.7823 230.748 86.9415 231.916 86.5278L235.432 82.2648C235.884 81.7167 236.452 81.2765 237.095 80.9758C237.737 80.675 238.438 80.5215 239.147 80.5261L248.281 80.5887C248.502 80.4558 249.837 79.7744 252.471 80.9207C255.328 82.1641 254.665 86.4827 254.657 86.5261L254.651 86.5666L254.62 86.5933L248.543 91.7304L246.201 104.978Z" fill="#3F3D56"/>
<path d="M230.262 103.231L222.662 117.142L216.9 180.431L223.411 182.427L234.934 132.918L248.308 181.022L256.111 181.218L250.798 125.706L246.154 104.214L230.262 103.231Z" fill="#2F2E41"/>
<path d="M181.075 92.9191C180.76 92.8168 180.417 92.8443 180.122 92.9956C179.827 93.1468 179.604 93.4095 179.501 93.7258L173.048 113.713C172.946 114.029 172.973 114.374 173.124 114.67C173.274 114.966 173.536 115.191 173.851 115.294L254.107 141.413C254.422 141.515 254.765 141.488 255.06 141.337C255.355 141.185 255.579 140.923 255.681 140.606L262.135 120.619C262.236 120.303 262.209 119.958 262.058 119.662C261.908 119.366 261.646 119.142 261.331 119.039L181.075 92.9191Z" fill="white"/>
<path d="M181.075 92.9191C180.76 92.8168 180.417 92.8443 180.122 92.9956C179.827 93.1468 179.604 93.4095 179.501 93.7258L173.048 113.713C172.946 114.029 172.973 114.374 173.124 114.67C173.274 114.966 173.536 115.191 173.851 115.294L254.107 141.413C254.422 141.515 254.765 141.488 255.06 141.337C255.355 141.185 255.579 140.923 255.681 140.606L262.135 120.619C262.236 120.303 262.209 119.958 262.058 119.662C261.908 119.366 261.646 119.142 261.331 119.039L181.075 92.9191Z" fill="#E6E6E6"/>
<path d="M174.433 113.999L254.392 140.022L260.749 120.333L180.79 94.3104L174.433 113.999Z" fill="white"/>
<path d="M188.052 102.935C187.776 102.846 187.476 102.87 187.218 103.002C186.959 103.135 186.764 103.365 186.675 103.642C186.585 103.918 186.609 104.22 186.741 104.479C186.873 104.738 187.102 104.935 187.377 105.024L249.151 125.129C249.288 125.174 249.432 125.191 249.575 125.18C249.718 125.168 249.858 125.129 249.986 125.063C250.114 124.998 250.228 124.908 250.321 124.798C250.415 124.688 250.486 124.561 250.53 124.424C250.574 124.287 250.591 124.142 250.58 123.998C250.569 123.854 250.529 123.714 250.464 123.586C250.398 123.457 250.309 123.343 250.199 123.249C250.09 123.156 249.963 123.085 249.826 123.04L249.825 123.04L188.052 102.935Z" fill="#17882C"/>
<path d="M186.028 109.202C185.753 109.113 185.453 109.138 185.195 109.27C184.937 109.403 184.742 109.632 184.653 109.909C184.563 110.186 184.587 110.487 184.719 110.746C184.85 111.005 185.078 111.201 185.354 111.291L247.127 131.396C247.403 131.486 247.703 131.463 247.962 131.331C248.221 131.199 248.416 130.97 248.506 130.693C248.597 130.416 248.573 130.115 248.442 129.855C248.311 129.595 248.082 129.399 247.806 129.308L247.802 129.307L186.028 109.202Z" fill="#17882C"/>
<path d="M250.567 125.752C250.848 125.498 251.07 125.186 251.218 124.837C251.366 124.487 251.437 124.11 251.424 123.731C251.411 123.351 251.315 122.979 251.143 122.641C250.972 122.303 250.728 122.007 250.43 121.773L253.397 113.043L248.776 114.248L246.667 122.354C246.309 122.883 246.157 123.525 246.24 124.158C246.322 124.792 246.633 125.373 247.114 125.792C247.594 126.211 248.211 126.438 248.848 126.43C249.484 126.423 250.096 126.181 250.567 125.752Z" fill="#FFB7B7"/>
<path d="M251.892 120.453L247.408 118.447L248.915 103.217L247.513 87.8587L253.498 84.6147L254.767 86.2209L254.768 86.2573L255.441 105.677L255.437 105.692L251.892 120.453Z" fill="#3F3D56"/>
<path d="M344.476 189H109.991C109.872 189.003 109.756 188.966 109.661 188.895C109.565 188.824 109.496 188.724 109.463 188.609C109.443 188.532 109.44 188.45 109.456 188.371C109.472 188.292 109.506 188.218 109.555 188.154C109.604 188.09 109.666 188.038 109.738 188.003C109.81 187.967 109.89 187.949 109.97 187.949H344.433C344.559 187.944 344.681 187.982 344.782 188.057C344.883 188.132 344.955 188.238 344.988 188.36C345.005 188.437 345.004 188.516 344.987 188.593C344.969 188.67 344.934 188.742 344.885 188.803C344.836 188.864 344.774 188.914 344.703 188.948C344.632 188.982 344.555 189 344.476 189Z" fill="#CCCCCC"/>
<path d="M78.9235 189H0.544894C0.426297 189.003 0.310198 188.966 0.214686 188.895C0.119175 188.824 0.0496143 188.724 0.0168443 188.609C-0.00361442 188.532 -0.00599568 188.45 0.00988153 188.371C0.0257587 188.292 0.05947 188.218 0.108426 188.154C0.157381 188.09 0.220274 188.038 0.292264 188.003C0.364253 187.967 0.443422 187.949 0.523676 187.949H78.8806C79.0057 187.944 79.1286 187.982 79.2293 188.057C79.33 188.132 79.4025 188.238 79.4351 188.36C79.4521 188.437 79.4517 188.516 79.4339 188.593C79.4161 188.67 79.3813 188.742 79.3322 188.803C79.2831 188.864 79.2209 188.914 79.1502 188.948C79.0795 188.982 79.002 189 78.9235 189Z" fill="#CCCCCC"/>
</g>
<defs>
<clipPath id="clip0_62_6725">
<rect width="345" height="189" fill="white"/>
</clipPath>
</defs>
</svg>
