<svg width="835" height="521" viewBox="0 0 835 521" fill="none" xmlns="http://www.w3.org/2000/svg">
<g clip-path="url(#clip0_256_231)">
<path d="M495.47 15.9834C555.582 -15.8418 631.875 0.842521 672.324 57.273L670.947 58.2396C630.997 2.5057 555.637 -13.9686 496.266 17.4568C491.221 20.1273 486.352 23.1096 481.687 26.386C420.633 69.2348 406.191 153.244 449.495 213.657L448.118 214.624C404.276 153.46 418.897 68.4046 480.71 25.0235C485.434 21.7071 490.364 18.6878 495.47 15.9834Z" fill="#E6E6E6"/>
<path d="M813.916 152.016L616.204 136.797C613.135 136.557 610.287 135.122 608.285 132.808C606.284 130.493 605.292 127.487 605.527 124.45L614.098 29.3981C614.341 26.3612 615.79 23.5434 618.13 21.5629C620.469 19.5824 623.506 18.6009 626.576 18.8337L824.288 34.0533C827.357 34.293 830.205 35.7276 832.207 38.0422C834.208 40.3569 835.2 43.3626 834.965 46.4L826.394 141.452C826.151 144.489 824.702 147.307 822.362 149.287C820.023 151.268 816.985 152.249 813.916 152.016Z" fill="#E6E6E6"/>
<path d="M767.213 130.543C765.713 130.543 764.206 130.485 762.695 130.369L634.92 120.533C632.366 120.336 629.875 119.643 627.591 118.494C625.306 117.345 623.273 115.762 621.607 113.836C619.941 111.909 618.675 109.677 617.881 107.266C617.087 104.855 616.78 102.313 616.979 99.785L619.893 62.725C620.3 57.6215 622.736 52.8861 626.667 49.5578C630.598 46.2295 635.703 44.5801 640.862 44.9714L806.089 57.6904C811.247 58.0934 816.032 60.5041 819.395 64.3937C822.759 68.2833 824.426 73.3342 824.031 78.4384C822.916 92.6014 816.45 105.829 805.92 115.485C795.39 125.142 781.57 130.518 767.213 130.543Z" fill="white"/>
<path d="M802.136 87.152L640.163 74.6835C639.825 74.6575 639.496 74.5661 639.195 74.4143C638.893 74.2625 638.624 74.0534 638.404 73.7989C638.184 73.5445 638.017 73.2496 637.912 72.9312C637.807 72.6127 637.767 72.277 637.793 71.9431C637.819 71.6092 637.912 71.2837 638.065 70.9851C638.218 70.6866 638.43 70.4208 638.687 70.2031C638.944 69.9854 639.242 69.8199 639.564 69.7161C639.886 69.6123 640.225 69.5723 640.562 69.5983L802.536 82.0667C802.873 82.0927 803.202 82.1842 803.504 82.336C803.806 82.4877 804.074 82.6968 804.294 82.9513C804.514 83.2058 804.682 83.5006 804.786 83.8191C804.891 84.1375 804.932 84.4732 804.906 84.8072C804.879 85.1411 804.787 85.4666 804.633 85.7651C804.48 86.0637 804.269 86.3294 804.012 86.5471C803.754 86.7649 803.456 86.9303 803.135 87.0341C802.813 87.1379 802.473 87.178 802.136 87.152Z" fill="#E6E6E6"/>
<path d="M734.88 92.0827L639.373 84.7306C638.691 84.6778 638.059 84.3594 637.615 83.8455C637.171 83.3317 636.951 82.6643 637.004 81.9902C637.057 81.3161 637.379 80.6904 637.898 80.2506C638.417 79.8109 639.091 79.5931 639.772 79.6451L735.28 86.9972C735.618 87.023 735.947 87.1144 736.249 87.2661C736.551 87.4178 736.819 87.6269 737.04 87.8814C737.26 88.1359 737.427 88.4309 737.532 88.7494C737.637 89.068 737.678 89.4038 737.651 89.7379C737.625 90.0719 737.533 90.3976 737.379 90.6963C737.226 90.9949 737.014 91.2607 736.757 91.4784C736.5 91.6962 736.201 91.8617 735.879 91.9653C735.557 92.069 735.218 92.1089 734.88 92.0827Z" fill="#E6E6E6"/>
<path d="M755.919 103.81L638.583 94.7779C638.245 94.7521 637.916 94.6607 637.614 94.509C637.312 94.3573 637.043 94.1482 636.823 93.8937C636.603 93.6392 636.436 93.3442 636.331 93.0257C636.226 92.7071 636.185 92.3712 636.211 92.0372C636.238 91.7031 636.33 91.3775 636.484 91.0788C636.637 90.7802 636.849 90.5144 637.106 90.2966C637.363 90.0789 637.662 89.9134 637.983 89.8098C638.305 89.7061 638.645 89.6662 638.983 89.6924L756.319 98.7248C757 98.7776 757.633 99.096 758.077 99.6099C758.521 100.124 758.74 100.791 758.687 101.465C758.634 102.139 758.313 102.765 757.794 103.205C757.275 103.645 756.601 103.862 755.919 103.81Z" fill="#E6E6E6"/>
<path d="M800.686 281.048L602.974 265.828C599.905 265.589 597.057 264.154 595.055 261.839C593.054 259.525 592.062 256.519 592.297 253.482L600.868 158.43C601.111 155.393 602.56 152.575 604.9 150.595C607.239 148.614 610.276 147.633 613.346 147.865L811.058 163.085C814.127 163.325 816.975 164.759 818.977 167.074C820.978 169.388 821.97 172.394 821.735 175.432L813.164 270.484C812.921 273.52 811.472 276.338 809.132 278.319C806.793 280.299 803.755 281.281 800.686 281.048Z" fill="#E6E6E6"/>
<path d="M753.933 259.572C752.453 259.572 750.964 259.515 749.465 259.4L621.691 249.564C619.136 249.368 616.645 248.675 614.361 247.526C612.077 246.377 610.043 244.794 608.377 242.867C606.711 240.941 605.445 238.708 604.651 236.297C603.857 233.887 603.55 231.345 603.749 228.817L606.663 191.757C606.862 189.229 607.562 186.764 608.723 184.504C609.884 182.243 611.484 180.231 613.432 178.583C615.379 176.934 617.635 175.681 620.071 174.896C622.508 174.11 625.077 173.807 627.632 174.003L792.859 186.722C795.414 186.919 797.905 187.612 800.189 188.761C802.473 189.91 804.507 191.493 806.173 193.42C807.839 195.346 809.105 197.579 809.899 199.989C810.693 202.4 811 204.942 810.801 207.47C809.669 221.636 803.191 234.861 792.654 244.514C782.117 254.168 768.293 259.544 753.933 259.572Z" fill="white"/>
<path d="M788.906 216.184L626.933 203.715C626.595 203.689 626.266 203.598 625.965 203.446C625.663 203.294 625.394 203.085 625.174 202.831C624.954 202.576 624.787 202.281 624.682 201.963C624.577 201.644 624.537 201.309 624.563 200.975C624.589 200.641 624.682 200.315 624.835 200.017C624.988 199.718 625.2 199.452 625.457 199.235C625.714 199.017 626.012 198.852 626.334 198.748C626.656 198.644 626.995 198.604 627.332 198.63L789.306 211.098C789.643 211.124 789.972 211.216 790.274 211.368C790.576 211.519 790.844 211.728 791.064 211.983C791.284 212.237 791.451 212.532 791.556 212.851C791.661 213.169 791.702 213.505 791.675 213.839C791.649 214.173 791.557 214.498 791.403 214.797C791.25 215.095 791.039 215.361 790.781 215.579C790.524 215.796 790.226 215.962 789.904 216.066C789.583 216.17 789.243 216.21 788.906 216.184Z" fill="#E6E6E6"/>
<path d="M721.65 221.114L626.143 213.762C625.805 213.737 625.476 213.645 625.174 213.494C624.872 213.342 624.603 213.133 624.383 212.878C624.163 212.624 623.996 212.329 623.891 212.01C623.786 211.692 623.745 211.356 623.771 211.022C623.798 210.688 623.89 210.362 624.044 210.063C624.197 209.765 624.409 209.499 624.666 209.281C624.923 209.063 625.222 208.898 625.544 208.794C625.866 208.691 626.205 208.651 626.543 208.677L722.05 216.029C722.732 216.082 723.364 216.4 723.808 216.914C724.252 217.428 724.472 218.095 724.419 218.769C724.366 219.443 724.044 220.069 723.525 220.509C723.006 220.949 722.332 221.166 721.65 221.114Z" fill="#E6E6E6"/>
<path d="M742.689 232.842L625.353 223.81C624.671 223.757 624.039 223.439 623.594 222.925C623.15 222.411 622.93 221.743 622.983 221.069C623.036 220.395 623.357 219.769 623.877 219.329C624.396 218.889 625.071 218.672 625.753 218.724L743.089 227.756C743.771 227.809 744.403 228.127 744.848 228.641C745.292 229.155 745.512 229.823 745.459 230.497C745.406 231.171 745.084 231.797 744.565 232.237C744.046 232.677 743.371 232.894 742.689 232.842Z" fill="#E6E6E6"/>
<path d="M297.763 231.386C295.253 225.758 293.888 219.697 293.746 213.547C293.604 207.397 294.687 201.28 296.934 195.545C299.181 189.81 302.548 184.569 306.842 180.121C311.136 175.673 316.274 172.105 321.961 169.622C327.648 167.139 333.774 165.788 339.989 165.648C346.204 165.507 352.386 166.579 358.182 168.802C363.978 171.026 369.275 174.357 373.77 178.606C378.266 182.855 381.871 187.938 384.38 193.566L382.836 194.24C380.416 188.813 376.939 183.911 372.604 179.814C368.269 175.717 363.162 172.504 357.572 170.36C351.983 168.216 346.021 167.182 340.028 167.318C334.035 167.453 328.127 168.756 322.643 171.151C317.158 173.545 312.204 176.985 308.063 181.275C303.922 185.564 300.676 190.618 298.509 196.149C296.342 201.68 295.297 207.578 295.434 213.509C295.571 219.439 296.888 225.284 299.308 230.711L297.763 231.386Z" fill="#E6E6E6"/>
<path d="M788.44 492.607C807.768 483.544 822.165 465.311 819.919 445.272C802.579 459.166 778.971 466.924 754.6 466.739C745.107 466.666 734.476 465.711 727.578 470.981C723.286 474.261 721.35 479.468 721.106 484.658C720.861 489.848 722.133 495.101 723.397 500.285L723.012 501.513C745.706 502.943 769.112 501.67 788.44 492.607Z" fill="#F2F2F2"/>
<path d="M819.443 445.223C811.967 459.656 799.007 471.686 782.9 478.727C779.37 480.356 775.613 481.449 771.754 481.967C767.824 482.374 763.852 481.86 760.16 480.468C756.659 479.225 753.208 477.606 749.496 477.114C747.678 476.863 745.828 476.977 744.056 477.45C742.284 477.922 740.626 478.744 739.182 479.865C735.752 482.505 733.706 486.158 731.851 489.802C729.792 493.848 727.729 498.085 723.698 500.842C723.209 501.177 723.89 501.871 724.377 501.538C731.392 496.74 732.404 488.065 737.977 482.255C739.288 480.788 740.918 479.634 742.743 478.878C744.569 478.123 746.544 477.787 748.52 477.894C752.309 478.17 755.869 479.837 759.404 481.122C762.997 482.526 766.854 483.152 770.713 482.958C774.603 482.619 778.413 481.66 781.994 480.119C789.782 476.912 796.992 472.473 803.341 466.977C810.355 460.974 816.145 453.701 820.4 445.548C820.658 445.05 819.699 444.727 819.443 445.223Z" fill="white"/>
<path d="M788.295 476.693C790.33 479.068 793.062 480.757 796.112 481.524C799.162 482.291 802.377 482.098 805.311 480.973C805.874 480.739 805.414 479.923 804.851 480.157C802.121 481.21 799.127 481.389 796.289 480.67C793.451 479.951 790.912 478.369 789.029 476.148C788.634 475.673 787.902 476.22 788.295 476.693Z" fill="white"/>
<path d="M761.86 481.298C762.234 478.479 763.208 475.77 764.716 473.35C766.225 470.93 768.235 468.853 770.613 467.257C771.1 466.921 770.419 466.226 769.933 466.562C767.462 468.228 765.376 470.393 763.812 472.914C762.248 475.436 761.242 478.257 760.86 481.192C760.791 481.751 761.791 481.854 761.86 481.298Z" fill="white"/>
<path d="M809.207 460.362C808.278 459.655 807.546 458.725 807.082 457.66C806.618 456.595 806.436 455.43 806.555 454.276C806.632 453.718 805.632 453.615 805.555 454.169C805.43 455.444 805.632 456.73 806.142 457.908C806.652 459.085 807.454 460.116 808.473 460.906C808.565 460.996 808.685 461.052 808.814 461.066C808.942 461.079 809.071 461.05 809.18 460.982C809.228 460.945 809.266 460.9 809.294 460.847C809.321 460.795 809.337 460.737 809.34 460.678C809.342 460.619 809.332 460.56 809.309 460.505C809.286 460.451 809.251 460.402 809.207 460.362Z" fill="white"/>
<path d="M756.149 402.905C756.089 403.251 756.029 403.597 755.962 403.946C755.135 408.587 753.872 413.141 752.188 417.55C752.064 417.893 751.933 418.238 751.798 418.576C747.54 429.25 741.065 438.92 732.793 446.961C729.423 450.247 725.787 453.255 721.924 455.956C716.538 459.728 710.321 463.412 706.913 468.493C706.551 469.017 706.228 469.566 705.944 470.135L721.3 500.878C721.374 500.935 721.44 500.996 721.513 501.053L722.065 502.301C722.278 502.173 722.496 502.037 722.71 501.909C722.834 501.836 722.955 501.755 723.079 501.682C723.161 501.63 723.242 501.579 723.32 501.537C723.347 501.52 723.374 501.503 723.394 501.488C723.471 501.447 723.537 501.4 723.607 501.361C724.828 500.6 726.044 499.83 727.255 499.051C727.263 499.049 727.263 499.049 727.267 499.039C736.478 493.08 745.141 486.345 752.259 478.575C752.473 478.341 752.695 478.105 752.902 477.858C756.065 474.366 758.899 470.594 761.366 466.591C762.696 464.413 763.897 462.162 764.963 459.847C767.701 453.867 769.323 447.447 769.751 440.896C770.618 427.774 766.684 414.206 756.904 403.701C756.654 403.433 756.407 403.171 756.149 402.905Z" fill="#F2F2F2"/>
<path d="M755.756 403.114C760.033 419.345 758.559 436.462 751.317 451.028C749.811 454.262 747.736 457.206 745.189 459.722C742.461 462.196 739.107 463.894 735.483 464.635C732.012 465.448 728.321 465.916 725.204 467.479C723.675 468.237 722.349 469.342 721.334 470.704C720.319 472.065 719.645 473.646 719.365 475.315C718.603 479.384 719.57 483.574 720.675 487.654C721.901 492.185 723.255 496.879 722.123 501.368C721.986 501.912 722.971 502.139 723.108 501.596C725.077 493.785 719.9 485.887 720.098 477.985C720.19 474.298 721.548 470.705 725.008 468.661C728.034 466.875 731.839 466.389 735.364 465.593C738.926 464.909 742.264 463.372 745.087 461.117C747.777 458.743 749.985 455.883 751.592 452.691C755.277 445.658 757.646 438.024 758.583 430.156C759.707 421.028 759.067 411.771 756.695 402.88C756.548 402.319 755.609 402.557 755.756 403.114Z" fill="white"/>
<path d="M753.966 446.424C760.283 448.382 766.984 446.039 769.633 440.976C769.894 440.478 768.992 440.031 768.731 440.53C766.249 445.273 760.048 447.401 754.142 445.57C753.521 445.378 753.348 446.232 753.966 446.424Z" fill="white"/>
<path d="M737.324 464.433C735.706 462.018 734.602 459.303 734.077 456.453C733.552 453.603 733.618 450.678 734.271 447.854C734.406 447.309 733.421 447.083 733.287 447.626C732.614 450.567 732.552 453.613 733.105 456.578C733.658 459.543 734.814 462.366 736.503 464.876C736.833 465.387 737.653 464.941 737.324 464.433Z" fill="white"/>
<path d="M758.45 421.416C757.209 421.277 756.015 420.869 754.952 420.222C753.889 419.574 752.984 418.702 752.3 417.669C751.976 417.155 751.157 417.601 751.479 418.112C752.239 419.251 753.24 420.212 754.413 420.93C755.586 421.648 756.903 422.105 758.273 422.269C758.545 422.301 758.798 422.207 758.853 421.956C758.868 421.832 758.835 421.707 758.76 421.606C758.685 421.506 758.574 421.438 758.45 421.416Z" fill="white"/>
<path d="M788.748 274.32L777 212.438L753.938 182.402L736.847 193.459C739.262 206.42 757.53 230.616 757.53 230.616L773.722 278.474C773.657 278.723 773.597 278.974 773.554 279.232C773.297 280.746 773.439 282.3 773.967 283.744C774.494 285.188 775.389 286.472 776.565 287.474C777.741 288.475 779.158 289.16 780.68 289.461C782.201 289.762 783.775 289.67 785.25 289.193C786.725 288.716 788.05 287.871 789.099 286.739C790.147 285.607 790.883 284.227 791.234 282.732C791.586 281.237 791.542 279.677 791.106 278.203C790.671 276.73 789.858 275.392 788.748 274.32Z" fill="#FFB8B8"/>
<path d="M737.306 199.997L756.655 184.457L756.692 184.375C760.311 176.26 752.276 162.346 744.898 152.103C742.462 148.727 738.822 146.393 734.713 145.571C730.605 144.749 726.334 145.502 722.765 147.677C720.143 149.299 718.031 151.614 716.669 154.361C715.307 157.108 714.749 160.177 715.058 163.222L716.685 178.724L737.306 199.997Z" fill="#3F3D56"/>
<path d="M668.92 507.959L656.046 507.958L649.921 458.821L668.923 458.822L668.92 507.959Z" fill="#FFB8B8"/>
<path d="M672.205 503.8L668.581 503.8L654.433 498.106L646.85 503.799H646.849C642.564 503.799 638.454 505.483 635.424 508.482C632.394 511.48 630.692 515.546 630.691 519.787V520.306L672.204 520.308L672.205 503.8Z" fill="#2F2E41"/>
<path d="M726.046 507.959L713.172 507.958L707.047 458.821L726.049 458.822L726.046 507.959Z" fill="#FFB8B8"/>
<path d="M729.331 503.8L725.707 503.8L711.559 498.106L703.976 503.799H703.975C699.69 503.799 695.58 505.483 692.55 508.482C689.52 511.48 687.818 515.546 687.817 519.787V520.306L729.33 520.308L729.331 503.8Z" fill="#2F2E41"/>
<path d="M745.677 296.309C745.677 296.309 747.181 314.16 743.422 331.266C739.664 348.373 739.664 396.55 739.664 396.55L731.396 490.431L706.591 488.2L699.826 331.266L675.773 384.073L678.028 391.511L675.024 393.37C675.024 393.37 677.276 407.874 675.773 407.874C674.27 407.874 670.512 410.105 670.512 410.105L673.518 486.713L647.962 485.969L638.942 378.123L648.713 316.391L649.465 304.491L652.848 304.628L654.57 299.656L657.733 291.103L745.677 296.309Z" fill="#2F2E41"/>
<path d="M746.977 300.059L747.111 299.873C754.265 289.961 743.505 266.144 741.882 262.692L748.717 260.497L747.178 247.549L746.449 241.777L751.673 236.608L751.688 236.479L754.695 210.447L759.066 193.157C760.713 186.621 760.573 179.768 758.659 173.304C756.746 166.839 753.128 160.994 748.178 156.37L738.073 146.943L725.792 128.963H705.989L699.199 141.654C692.615 143.16 686.774 146.903 682.693 152.231C678.612 157.56 676.55 164.136 676.865 170.815L678.404 204.1L672.38 245.543L672.376 253.043L665.596 260.499L667.077 267.823L661.917 270.011L659.638 280.532C658.695 281.763 652.472 289.974 652.472 292.219C652.472 292.556 652.723 292.881 653.263 293.243C657.504 296.085 680.946 301.878 691.322 297.77C702.373 293.398 746.306 299.957 746.748 300.024L746.977 300.059Z" fill="#3F3D56"/>
<path d="M574.761 520.006C574.76 520.269 574.865 520.521 575.052 520.708C575.24 520.894 575.494 520.999 575.76 521H812.337C812.603 521 812.858 520.895 813.047 520.709C813.235 520.523 813.341 520.27 813.341 520.006C813.341 519.743 813.235 519.49 813.047 519.304C812.858 519.117 812.603 519.012 812.337 519.012H575.766C575.5 519.012 575.245 519.115 575.057 519.301C574.868 519.486 574.762 519.738 574.761 520V520.006Z" fill="#CCCCCC"/>
<path d="M713.333 123.159C727.818 123.159 739.56 111.54 739.56 97.2067C739.56 82.8738 727.818 71.2546 713.333 71.2546C698.847 71.2546 687.105 82.8738 687.105 97.2067C687.105 111.54 698.847 123.159 713.333 123.159Z" fill="#FFB8B8"/>
<path d="M710.82 123.579C714.882 123.538 718.933 123.153 722.928 122.43C726.884 121.528 735.612 114.85 737.99 110.905C739.758 107.974 740.818 103.441 741.397 100.154C742.179 95.8034 742.028 91.3393 740.955 87.0505C739.882 82.7616 737.911 78.7435 735.169 75.2564C734.112 73.7955 732.675 72.6445 731.012 71.9251C730.864 71.8724 730.713 71.8263 730.561 71.7874C728.149 71.2249 725.962 69.962 724.281 68.1608C723.954 67.7962 723.602 67.4552 723.226 67.1407C721.34 65.6466 719.124 64.6153 716.758 64.1311C712.935 63.2229 707.468 64.361 700.507 67.5169C697.01 69.1025 693.129 68.6602 690.138 68.0976C689.97 68.07 689.798 68.0863 689.638 68.1449C689.479 68.2035 689.338 68.3024 689.229 68.4318C687.994 69.6399 686.343 70.3406 684.607 70.3932C683.545 70.4666 682.467 71.9519 681.168 73.8861C680.874 74.3252 680.53 74.8376 680.28 75.1503L680.23 74.5631L679.646 75.2345C678.727 76.2899 678.094 77.5581 677.804 78.921C677.514 80.2839 677.577 81.6973 677.988 83.0295C678.399 84.3616 679.144 85.5693 680.153 86.5399C681.163 87.5106 682.404 88.2127 683.761 88.5809C684.838 88.8351 685.939 88.9799 687.045 89.013C687.716 89.0555 688.41 89.0995 689.077 89.1964C691.218 89.5736 693.223 90.4935 694.898 91.8665C696.572 93.2396 697.858 95.0187 698.63 97.0303C698.812 97.4951 699.1 97.9124 699.471 98.2497C699.842 98.587 700.286 98.8355 700.77 98.9759C701.254 99.1163 701.763 99.1448 702.26 99.0594C702.756 98.9739 703.226 98.7767 703.633 98.4829C704.311 97.9327 705.112 97.5527 705.97 97.3754C706.828 97.1981 707.717 97.2287 708.56 97.4646C709.293 97.8439 709.872 98.4612 710.2 99.2129C710.597 100.05 711.237 100.75 712.037 101.226C714.768 102.532 715.113 108.617 714.277 113.719C713.472 118.637 711.72 122.224 710.017 122.443C708.706 122.611 708.558 122.707 708.469 122.94L708.39 123.148L708.542 123.337C709.275 123.578 710.052 123.661 710.82 123.579Z" fill="#2F2E41"/>
<path d="M422.58 257.347C451.382 257.347 474.731 234.243 474.731 205.744C474.731 177.244 451.382 154.14 422.58 154.14C393.778 154.14 370.429 177.244 370.429 205.744C370.429 234.243 393.778 257.347 422.58 257.347Z" fill="#17882C"/>
<path d="M704.779 198.064L687.577 187.178C676.622 194.675 661.818 221.088 661.818 221.088L624.35 255.339C622.789 255.604 621.326 256.271 620.109 257.273C618.891 258.276 617.962 259.578 617.415 261.048C616.868 262.519 616.721 264.106 616.991 265.65C617.261 267.194 617.937 268.641 618.951 269.844C619.965 271.048 621.282 271.966 622.769 272.506C624.256 273.045 625.86 273.188 627.42 272.919C628.981 272.651 630.442 271.98 631.657 270.975C632.872 269.97 633.798 268.666 634.342 267.194L686.559 231.199L704.779 198.064Z" fill="#FFB8B8"/>
<path d="M703.139 202.481L714.596 175.272L710.452 160.236C709.628 157.287 707.986 154.625 705.713 152.55C703.44 150.476 700.626 149.072 697.588 148.497C693.466 147.746 689.209 148.571 685.678 150.806C682.147 153.042 679.606 156.52 678.568 160.539C675.43 172.729 673.02 188.576 679.358 194.847L679.422 194.911L703.139 202.481Z" fill="#3F3D56"/>
<path d="M35.9197 505.256C13.4924 493.866 -2.7792 471.854 0.622701 448.331C20.5255 465.339 48.0435 475.351 76.7608 476.033C87.9457 476.299 100.505 475.566 108.432 482.03C113.365 486.051 115.449 492.257 115.541 498.38C115.634 504.503 113.937 510.644 112.252 516.704L112.659 518.165C85.8709 519.011 58.3471 516.647 35.9197 505.256Z" fill="#F2F2F2"/>
<path d="M1.18532 448.29C9.44691 465.569 24.261 480.22 42.97 489.11C47.066 491.16 51.4516 492.585 55.9781 493.339C60.5924 493.963 65.2904 493.505 69.6926 492.001C73.8634 490.666 77.9895 488.886 82.3817 488.444C84.5325 488.215 86.7078 488.418 88.7774 489.04C90.8471 489.663 92.7687 490.692 94.4272 492.066C98.3688 495.303 100.642 499.681 102.688 504.043C104.961 508.885 107.231 513.953 111.877 517.35C112.439 517.762 111.612 518.555 111.05 518.144C102.968 512.233 102.103 501.977 95.7567 494.926C92.7953 491.636 88.6172 489.186 83.5011 489.399C79.0274 489.584 74.7709 491.416 70.5586 492.799C66.2719 494.321 61.7054 494.916 57.1668 494.544C52.5964 494.001 48.1447 492.731 43.9835 490.783C34.9302 486.717 26.6049 481.222 19.3332 474.512C11.2969 467.182 4.75026 458.4 0.0454119 448.638C-0.239969 448.041 0.901799 447.697 1.18532 448.29Z" fill="white"/>
<path d="M36.6904 486.514C31.7739 492.063 23.1208 493.939 16.4836 490.927C15.8297 490.631 16.4017 489.687 17.0564 489.984C20.2324 491.324 23.7532 491.646 27.1237 490.904C30.4941 490.161 33.5447 488.392 35.8463 485.846C36.3299 485.3 37.1713 485.972 36.6904 486.514Z" fill="white"/>
<path d="M67.6589 492.916C67.3242 489.581 66.2796 486.354 64.5938 483.448C62.9079 480.541 60.6191 478.02 57.8779 476.052C57.3169 475.639 58.1443 474.845 58.7046 475.258C61.5527 477.312 63.9285 479.939 65.6756 482.968C67.4227 485.996 68.5013 489.357 68.8404 492.828C68.9008 493.489 67.7189 493.574 67.6589 492.916Z" fill="white"/>
<path d="M12.6721 466.503C13.7937 465.704 14.6906 464.636 15.2778 463.398C15.8649 462.161 16.1229 460.795 16.0271 459.431C15.9571 458.772 17.1391 458.687 17.2086 459.343C17.3075 460.85 17.0211 462.357 16.3757 463.725C15.7304 465.093 14.7469 466.279 13.5162 467.171C13.4046 467.273 13.2612 467.335 13.1095 467.347C12.9579 467.358 12.8067 467.318 12.6808 467.234C12.6264 467.19 12.5824 467.134 12.5519 467.071C12.5215 467.009 12.5053 466.94 12.5044 466.87C12.5036 466.801 12.5182 466.732 12.5471 466.668C12.5761 466.604 12.6187 466.548 12.6721 466.503Z" fill="white"/>
<path d="M77.345 400.778C77.4021 401.188 77.4593 401.598 77.5252 402.011C78.3243 407.509 79.641 412.921 81.458 418.176C81.5909 418.585 81.7328 418.997 81.8791 419.4C86.4921 432.131 93.7544 443.762 103.196 453.541C107.042 457.536 111.211 461.214 115.661 464.539C121.864 469.181 129.047 473.751 132.871 479.862C133.277 480.493 133.637 481.151 133.95 481.832L114.699 517.481C114.611 517.546 114.531 517.614 114.442 517.679L113.745 519.129C113.499 518.971 113.247 518.802 113.001 518.643C112.857 518.552 112.718 518.453 112.574 518.362C112.48 518.298 112.386 518.235 112.296 518.183C112.265 518.162 112.233 518.14 112.211 518.123C112.121 518.07 112.045 518.013 111.964 517.964C110.555 517.023 109.151 516.071 107.754 515.109C107.745 515.105 107.745 515.105 107.74 515.094C97.1141 507.733 87.163 499.48 79.0717 490.064C78.8284 489.78 78.5759 489.494 78.3413 489.194C74.7462 484.964 71.5508 480.416 68.795 475.609C67.311 472.995 65.981 470.298 64.8118 467.532C61.8127 460.386 60.1443 452.763 59.8871 445.03C59.3606 429.54 64.507 413.701 76.4248 401.688C76.7299 401.381 77.0309 401.081 77.345 400.778Z" fill="#F2F2F2"/>
<path d="M77.7999 401.039C72.1485 420.001 73.2386 440.22 81.2204 457.646C82.8727 461.512 85.206 465.057 88.1114 468.115C91.232 471.13 95.1189 473.254 99.3602 474.261C103.419 475.348 107.749 476.035 111.361 477.992C113.134 478.941 114.655 480.291 115.799 481.933C116.943 483.575 117.678 485.461 117.944 487.438C118.689 492.26 117.392 497.16 115.936 501.926C114.32 507.217 112.548 512.697 113.712 518.028C113.853 518.674 112.684 518.904 112.544 518.259C110.518 508.985 116.915 499.872 116.981 490.556C117.011 486.209 115.547 481.926 111.548 479.391C108.051 477.175 103.587 476.462 99.4638 475.394C95.2939 474.457 91.4194 472.523 88.1785 469.762C85.0998 466.866 82.6071 463.416 80.8337 459.596C76.7581 451.175 74.2562 442.093 73.4491 432.791C72.4688 421.996 73.5728 411.115 76.7022 400.728C76.8974 400.073 77.9939 400.388 77.7999 401.039Z" fill="white"/>
<path d="M78.2745 452.125C70.7588 454.198 62.9524 451.191 60.0232 445.129C59.7346 444.532 60.814 444.039 61.1029 444.637C63.8471 450.316 71.0727 453.051 78.0983 451.113C78.8377 450.909 79.0097 451.922 78.2745 452.125Z" fill="white"/>
<path d="M97.1989 473.955C99.1953 471.17 100.599 468.013 101.325 464.675C102.051 461.337 102.083 457.888 101.421 454.537C101.282 453.891 102.451 453.66 102.589 454.306C103.271 457.795 103.229 461.385 102.466 464.857C101.702 468.33 100.234 471.613 98.1496 474.507C97.7406 475.097 96.7921 474.542 97.1989 473.955Z" fill="white"/>
<path d="M73.9363 422.499C75.4027 422.381 76.8249 421.945 78.1015 421.221C79.3781 420.498 80.4778 419.505 81.3222 418.312C81.7228 417.719 82.671 418.275 82.2729 418.864C81.3345 420.178 80.1186 421.274 78.7095 422.076C77.3004 422.879 75.7319 423.368 74.1126 423.511C73.7911 423.539 73.4958 423.418 73.4403 423.12C73.4271 422.974 73.4712 422.828 73.5634 422.712C73.6556 422.596 73.7891 422.52 73.9363 422.499Z" fill="white"/>
<path d="M145.193 222.108L146.883 237.613L145.888 257.944L191.4 252.594L195.676 222.108L190.227 222.161L145.193 222.108Z" fill="#FFB6B6"/>
<path d="M121.587 503.603H131.538L136.273 465.627H121.587V503.603Z" fill="#FFB6B6"/>
<path d="M118.34 496.859L134.237 495.921V502.66L149.35 512.988C150.096 513.498 150.659 514.231 150.954 515.079C151.25 515.928 151.264 516.848 150.994 517.705C150.724 518.562 150.185 519.311 149.454 519.843C148.723 520.375 147.84 520.662 146.932 520.662H128.007L124.745 513.996L123.471 520.662H116.335L118.34 496.859Z" fill="#2F2E41"/>
<path d="M177.479 503.603H187.43L192.165 465.627H177.479V503.603Z" fill="#FFB6B6"/>
<path d="M174.232 496.859L190.129 495.921V502.66L205.242 512.988C205.989 513.498 206.551 514.231 206.847 515.079C207.142 515.928 207.156 516.848 206.886 517.705C206.616 518.562 206.077 519.311 205.346 519.843C204.615 520.375 203.732 520.662 202.825 520.662H183.899L180.637 513.996L179.363 520.662H172.228L174.232 496.859Z" fill="#2F2E41"/>
<path d="M117.294 470.854H117.402L119.316 409.106C118.077 406.742 117.449 404.112 117.486 401.45C117.524 398.788 118.226 396.177 119.53 393.848L119.804 393.357L119.093 390.099C118.181 385.913 118.6 381.55 120.292 377.608L122.077 320.009C115.699 279.109 146.094 252.436 146.094 252.436H191.627L201.402 285.669C207.864 347.967 206.691 408.675 196.437 467.491L196.716 467.631C197.723 467.974 198.155 469.354 197.681 470.713C197.207 472.071 196.007 472.894 195 472.55L170.954 471.722C169.947 471.378 169.516 469.998 169.99 468.64C170.463 467.282 171.664 466.459 172.67 466.803L174.305 467.621L170.818 408.037L171.205 397.153L170.408 384.806L166.722 329.269L152.771 397.564L138.52 471.541C138.913 471.893 139.189 472.355 139.311 472.866C139.434 473.376 139.397 473.911 139.205 474.401C139.014 474.89 138.677 475.31 138.239 475.606C137.801 475.902 137.283 476.059 136.752 476.058H117.294C116.948 476.058 116.606 475.992 116.286 475.861C115.967 475.731 115.676 475.539 115.432 475.297C115.187 475.056 114.993 474.769 114.86 474.453C114.728 474.137 114.66 473.798 114.66 473.456C114.66 473.114 114.728 472.775 114.86 472.459C114.993 472.143 115.187 471.856 115.432 471.614C115.676 471.373 115.967 471.181 116.286 471.051C116.606 470.92 116.948 470.853 117.294 470.854Z" fill="#2F2E41"/>
<path d="M153.14 142.768C166.628 142.768 177.563 131.949 177.563 118.602C177.563 105.256 166.628 94.4369 153.14 94.4369C139.652 94.4369 128.718 105.256 128.718 118.602C128.718 131.949 139.652 142.768 153.14 142.768Z" fill="#FFB6B6"/>
<path d="M46.1237 230.246C49.5561 222.361 54.2694 215.086 60.0769 208.708C55.1592 216.463 52.3487 225.343 51.9176 234.489C53.6981 235.589 55.561 236.554 57.49 237.373C63.2874 239.779 69.4686 241.153 75.7489 241.432C79.1338 230.273 84.9763 219.995 92.856 211.338C87.1773 220.298 84.3216 230.728 84.6523 241.3C91.6573 240.701 98.559 239.237 105.197 236.943C115.164 233.551 124.838 228.484 131.73 220.603C139.19 212.074 142.866 200.818 144.053 189.597C145.241 178.386 144.124 167.068 142.999 155.848C142.468 150.5 146.968 144.347 146.437 138.999H146.082C143.717 135.791 141.307 132.504 140.146 128.699C138.995 124.903 139.296 120.424 141.945 117.434C143.429 115.873 145.302 114.724 147.376 114.103C147.571 113.858 147.783 113.621 148.005 113.385C152.016 109.168 156.737 105.674 161.958 103.058C158.193 105.872 155.677 109.054 154.507 112.341C157.767 111.631 161.028 110.924 164.288 110.22C165.377 109.076 166.525 107.988 167.725 106.959C169.47 105.46 170.046 105.346 172.128 103.935C170.447 105.398 169.144 107.237 168.328 109.299C172.518 108.256 176.708 106.687 178.888 103.119C182.502 97.2197 178.206 89.2601 172.208 85.7361C167.845 83.2974 162.818 82.2773 157.837 82.82C152.856 83.3627 148.174 85.4408 144.452 88.7604C135.779 82.4399 123.429 82.5452 113.781 87.2701C107.412 90.529 101.926 95.2516 97.7817 101.042C100.186 100.737 102.605 100.57 105.029 100.542C101.617 101.036 98.3689 102.309 95.5403 104.259C94.289 106.181 93.1416 108.168 92.1029 110.211C91.4208 111.552 90.777 112.911 90.1716 114.287C86.4596 122.65 84.0411 131.557 81.5339 140.358C78.6104 150.614 75.4742 160.941 69.9992 170.119C61.6047 184.075 48.3623 194.53 32.7462 199.529C31.4439 211.127 37.1669 222.471 46.1237 230.246Z" fill="#2F2E41"/>
<path d="M177.734 158.928L172.994 157.167L167.017 147.604L145.726 149.326L140.551 159.579L128.085 169L133.537 197.41L142.007 231.92L198.706 224.908L198.646 198.929C198.646 198.929 208.891 178.404 192.341 170.713L177.734 158.928Z" fill="#17882C"/>
<path d="M265.13 249.042C264.029 249.479 262.845 249.672 261.661 249.607C260.476 249.543 259.321 249.222 258.275 248.668C257.23 248.113 256.32 247.339 255.61 246.399C254.9 245.459 254.406 244.377 254.165 243.228L190.946 205.376L202.501 192.184L261.01 233.539C262.987 233.265 264.998 233.719 266.66 234.814C268.322 235.909 269.521 237.569 270.029 239.48C270.536 241.391 270.318 243.419 269.415 245.182C268.512 246.944 266.988 248.318 265.13 249.042Z" fill="#FFB6B6"/>
<path d="M169.88 187.427C169.88 187.427 166.859 190.435 174.44 195.381C180.509 199.34 207.579 218.907 217.176 222.002C217.055 223.397 217.408 224.791 218.177 225.966C218.946 227.141 220.088 228.029 221.424 228.491L230.112 209.598C228.231 205.279 225.223 206.279 223.64 207.258L213.147 199.45L187.379 173.989L172.025 185.214L169.88 187.427Z" fill="#17882C"/>
<path d="M144.607 89.4178C141.671 93.704 139.775 98.6025 139.065 103.732C138.356 108.862 138.852 114.085 140.515 118.994" fill="#FD6584"/>
<path d="M20.7046 520.006C20.7042 520.137 20.7299 520.266 20.7803 520.387C20.8306 520.508 20.9046 520.618 20.9979 520.71C21.0913 520.802 21.2021 520.875 21.3242 520.925C21.4462 520.975 21.577 521.001 21.709 521H258.28C258.546 521 258.802 520.895 258.99 520.709C259.179 520.523 259.284 520.27 259.284 520.006C259.284 519.743 259.179 519.49 258.99 519.304C258.802 519.117 258.546 519.012 258.28 519.012H21.709C21.577 519.012 21.4462 519.037 21.3242 519.087C21.2022 519.137 21.0913 519.21 20.9979 519.303C20.9046 519.395 20.8306 519.505 20.7803 519.625C20.7299 519.746 20.7042 519.876 20.7046 520.006Z" fill="#CCCCCC"/>
<path d="M110.838 294.119C110.249 294.324 109.766 294.752 109.495 295.31C109.224 295.867 109.188 296.508 109.394 297.092L142.354 391.089C142.561 391.673 142.994 392.151 143.558 392.418C144.121 392.686 144.769 392.722 145.359 392.518L337.138 325.938C337.727 325.733 338.21 325.304 338.481 324.746C338.752 324.189 338.788 323.548 338.582 322.964L305.622 228.967C305.415 228.383 304.981 227.905 304.418 227.638C303.855 227.37 303.207 227.334 302.617 227.538L110.838 294.119Z" fill="#E6E6E6"/>
<path d="M159.38 378.952C155.606 378.951 151.925 377.793 148.842 375.638C145.76 373.483 143.427 370.437 142.165 366.917L124.065 316.244C122.453 311.73 122.719 306.768 124.804 302.449C126.889 298.13 130.623 294.807 135.184 293.212L232.111 259.314C250.255 252.99 270.193 254.047 287.551 262.252C304.908 270.457 318.268 285.139 324.699 303.078C326.311 307.592 326.045 312.554 323.96 316.873C321.875 321.192 318.141 324.515 313.58 326.111L165.441 377.92C163.495 378.602 161.445 378.951 159.38 378.952Z" fill="white"/>
<path d="M287.916 279.063L201.127 309.193C199.904 309.618 198.388 308.484 197.742 306.66C197.095 304.836 197.562 303.013 198.785 302.589L285.574 272.458C286.797 272.034 288.313 273.168 288.959 274.992C289.606 276.815 289.14 278.64 287.916 279.063Z" fill="#E6E6E6"/>
<path d="M294.629 297.995L207.84 328.126C206.617 328.551 205.101 327.416 204.455 325.592C203.808 323.769 204.275 321.946 205.498 321.521L292.287 291.391C293.51 290.966 295.025 292.1 295.672 293.924C296.319 295.748 295.852 297.571 294.629 297.995Z" fill="#E6E6E6"/>
<path d="M189.384 319.494C190.316 322.093 190.768 324.836 190.72 327.592C190.702 328.854 190.576 330.112 190.344 331.352C189.604 335.36 187.808 339.104 185.137 342.205C182.466 345.305 179.015 347.653 175.132 349.011C171.25 350.369 167.075 350.688 163.028 349.937C158.981 349.186 155.206 347.39 152.085 344.732C151.77 344.466 151.463 344.19 151.165 343.906C148.616 341.489 146.653 338.533 145.424 335.258C144.195 331.984 143.731 328.476 144.068 324.999C144.404 321.522 145.532 318.165 147.367 315.181C149.201 312.197 151.695 309.662 154.661 307.768C157.627 305.873 160.988 304.668 164.492 304.242C167.996 303.817 171.552 304.182 174.892 305.31C178.233 306.438 181.273 308.301 183.783 310.757C186.292 313.214 188.207 316.201 189.384 319.494Z" fill="#E4E4E4"/>
<path d="M168.314 330.736C170.782 330.736 172.783 328.756 172.783 326.314C172.783 323.872 170.782 321.892 168.314 321.892C165.846 321.892 163.845 323.872 163.845 326.314C163.845 328.756 165.846 330.736 168.314 330.736Z" fill="#FD6584"/>
<path d="M151.165 343.906C152.312 341.272 153.668 337.251 156.809 338.715C158.361 339.381 161.141 341.403 162.269 339.051L171.106 320.748C171.273 320.406 171.508 320.102 171.796 319.851C172.084 319.601 172.42 319.41 172.784 319.29C173.148 319.17 173.532 319.123 173.915 319.152C174.297 319.181 174.67 319.286 175.011 319.459L190.72 327.592C190.702 328.854 190.576 330.112 190.344 331.352L152.085 344.732L151.165 343.906Z" fill="#3F3D56"/>
<path d="M155.725 289.853C154.619 289.428 153.622 288.768 152.802 287.92C151.982 287.072 151.36 286.056 150.98 284.944C150.6 283.833 150.471 282.652 150.601 281.486C150.732 280.319 151.12 279.195 151.737 278.193L131.737 207.807L149.285 205.993L163.426 275.751C165.059 276.888 166.213 278.579 166.67 280.502C167.127 282.426 166.855 284.448 165.906 286.187C164.957 287.925 163.396 289.258 161.519 289.934C159.643 290.61 157.581 290.581 155.725 289.853Z" fill="#FFB6B6"/>
<path d="M128.779 169.169C128.779 169.169 124.496 169.321 126.613 178.058C128.308 185.053 134.532 228.934 139.399 237.683C138.348 238.62 137.641 239.876 137.391 241.254C137.141 242.631 137.362 244.052 138.017 245.292L157.41 237.378C159.021 232.953 157.773 228.936 155.942 228.58L153.676 215.783L150.337 172.853L131.873 169.004L128.779 169.169Z" fill="#17882C"/>
<path d="M303.474 354.364L276.654 355.463C276.081 355.488 275.51 355.384 274.983 355.159C274.457 354.934 273.988 354.594 273.614 354.165C273.243 353.746 272.974 353.25 272.825 352.714C272.677 352.178 272.653 351.616 272.755 351.069C274.813 339.964 274.213 328.536 271.004 317.702C270.756 316.874 270.806 315.986 271.146 315.19C271.486 314.394 272.094 313.739 272.867 313.337C283.853 307.69 294.146 307.403 303.459 312.485C303.948 312.747 304.372 313.112 304.703 313.553C305.034 313.995 305.264 314.502 305.377 315.04C307.801 326.863 308.382 338.983 307.1 350.979C307.011 351.882 306.595 352.722 305.928 353.345C305.262 353.967 304.39 354.329 303.474 354.364Z" fill="#17882C"/>
<path d="M302.339 336.995L281.832 337.835C281.579 337.846 281.327 337.807 281.089 337.721C280.852 337.635 280.633 337.503 280.447 337.334C280.261 337.165 280.11 336.96 280.004 336.733C279.898 336.506 279.837 336.261 279.827 336.011C279.816 335.76 279.856 335.511 279.943 335.276C280.03 335.041 280.163 334.825 280.334 334.641C280.506 334.457 280.712 334.308 280.942 334.203C281.171 334.098 281.42 334.038 281.672 334.028L302.179 333.188C302.432 333.177 302.684 333.216 302.922 333.303C303.159 333.389 303.377 333.52 303.563 333.69C303.749 333.859 303.9 334.063 304.006 334.29C304.112 334.517 304.172 334.762 304.183 335.012C304.193 335.262 304.154 335.512 304.067 335.747C303.98 335.982 303.847 336.197 303.676 336.381C303.504 336.566 303.298 336.714 303.069 336.82C302.839 336.925 302.591 336.984 302.339 336.995Z" fill="white"/>
<path d="M302.06 330.319L281.553 331.16C281.043 331.18 280.545 331 280.169 330.658C279.794 330.316 279.571 329.84 279.55 329.335C279.528 328.83 279.711 328.338 280.057 327.966C280.402 327.594 280.883 327.374 281.393 327.353L301.9 326.512C302.411 326.491 302.908 326.672 303.284 327.014C303.66 327.356 303.883 327.832 303.904 328.337C303.925 328.842 303.742 329.334 303.397 329.706C303.051 330.078 302.57 330.298 302.06 330.319Z" fill="white"/>
<path d="M793.983 146.767L767.368 143.313C766.8 143.24 766.255 143.041 765.775 142.73C765.295 142.42 764.892 142.006 764.597 141.519C764.305 141.044 764.125 140.51 764.071 139.957C764.017 139.403 764.091 138.845 764.286 138.324C768.233 127.73 769.616 116.37 768.326 105.152C768.225 104.294 768.428 103.427 768.9 102.701C769.373 101.974 770.085 101.432 770.916 101.166C782.716 97.4604 792.907 98.9196 801.205 105.502C801.641 105.843 801.996 106.274 802.246 106.765C802.496 107.256 802.635 107.795 802.653 108.344C802.998 120.403 801.477 132.443 798.141 144.046C797.898 144.92 797.342 145.677 796.578 146.178C795.814 146.678 794.892 146.887 793.983 146.767Z" fill="#17882C"/>
<path d="M795.866 129.461L775.516 126.82C775.266 126.788 775.024 126.707 774.805 126.582C774.586 126.457 774.394 126.29 774.24 126.092C774.086 125.893 773.973 125.667 773.907 125.425C773.842 125.184 773.825 124.932 773.858 124.684C773.891 124.436 773.972 124.196 774.099 123.98C774.225 123.763 774.393 123.573 774.594 123.421C774.794 123.268 775.023 123.156 775.267 123.092C775.512 123.027 775.766 123.01 776.017 123.043L796.367 125.684C796.873 125.749 797.333 126.011 797.644 126.412C797.955 126.813 798.092 127.319 798.026 127.82C797.959 128.321 797.695 128.776 797.29 129.083C796.885 129.391 796.373 129.527 795.866 129.461Z" fill="white"/>
<path d="M796.744 122.837L776.394 120.196C776.143 120.164 775.901 120.083 775.681 119.958C775.462 119.833 775.269 119.667 775.115 119.468C774.96 119.27 774.847 119.043 774.781 118.801C774.716 118.559 774.699 118.307 774.732 118.059C774.765 117.81 774.847 117.571 774.973 117.354C775.1 117.137 775.268 116.947 775.469 116.794C775.67 116.642 775.9 116.53 776.144 116.466C776.389 116.401 776.644 116.385 776.895 116.418L797.245 119.059C797.496 119.091 797.738 119.172 797.958 119.297C798.177 119.422 798.37 119.588 798.524 119.787C798.678 119.985 798.792 120.212 798.857 120.454C798.923 120.696 798.94 120.948 798.907 121.196C798.874 121.445 798.792 121.684 798.666 121.901C798.539 122.118 798.37 122.308 798.17 122.46C797.969 122.613 797.739 122.725 797.495 122.789C797.25 122.854 796.995 122.87 796.744 122.837Z" fill="white"/>
<path d="M439.461 197.81H430.598V189.04C430.598 186.936 429.754 184.918 428.25 183.43C426.746 181.942 424.707 181.106 422.58 181.106C420.454 181.106 418.414 181.942 416.911 183.43C415.407 184.918 414.562 186.936 414.562 189.04V197.81H405.7C403.573 197.81 401.534 198.645 400.03 200.133C398.526 201.621 397.682 203.639 397.682 205.744C397.682 207.848 398.526 209.866 400.03 211.354C401.534 212.842 403.573 213.678 405.7 213.678H414.562V222.447C414.562 224.551 415.407 226.569 416.911 228.057C418.414 229.545 420.454 230.381 422.58 230.381C424.707 230.381 426.746 229.545 428.25 228.057C429.754 226.569 430.598 224.551 430.598 222.447V213.678H439.461C441.587 213.678 443.627 212.842 445.13 211.354C446.634 209.866 447.479 207.848 447.479 205.744C447.479 203.639 446.634 201.621 445.13 200.133C443.627 198.645 441.587 197.81 439.461 197.81Z" fill="white"/>
<path d="M726.458 35.5231C731.124 35.5231 734.908 31.7797 734.908 27.162C734.908 22.5443 731.124 18.8009 726.458 18.8009C721.791 18.8009 718.008 22.5443 718.008 27.162C718.008 31.7797 721.791 35.5231 726.458 35.5231Z" fill="#3F3D56"/>
<path d="M207.384 271.872C212.051 271.872 215.834 268.129 215.834 263.511C215.834 258.893 212.051 255.15 207.384 255.15C202.717 255.15 198.934 258.893 198.934 263.511C198.934 268.129 202.717 271.872 207.384 271.872Z" fill="#3F3D56"/>
</g>
<defs>
<clipPath id="clip0_256_231">
<rect width="835" height="521" fill="white"/>
</clipPath>
</defs>
</svg>
