<svg width="824" height="557" viewBox="0 0 824 557" fill="none" xmlns="http://www.w3.org/2000/svg">
<g clip-path="url(#clip0_256_33)">
<path d="M671.369 268.833H89.6628C81.8656 268.833 75.5222 261.315 75.5222 252.075V16.7569C75.5222 7.5171 81.8656 0 89.6628 0H671.369C679.166 0 685.51 7.5171 685.51 16.7569V252.075C685.51 261.315 679.166 268.833 671.369 268.833ZM89.6628 1.9978C82.7954 1.9978 77.2081 8.61892 77.2081 16.7569V252.075C77.2081 260.213 82.7954 266.835 89.6628 266.835H671.369C678.236 266.835 683.824 260.213 683.824 252.075V16.7569C683.824 8.61892 678.236 1.9978 671.369 1.9978H89.6628Z" fill="#3F3D56"/>
<path d="M824 550.214H0V551.896H824V550.214Z" fill="#E6E6E6"/>
<path d="M824 464.268H0V465.95H824V464.268Z" fill="#E6E6E6"/>
<path d="M328.076 277.619C328.668 285.295 332.985 291.201 337.717 290.811C342.449 290.422 345.804 283.885 345.211 276.207C345.015 273.137 344.11 270.16 342.57 267.525L339.665 235.037L324.924 236.769L329.353 268.612C328.237 271.466 327.799 274.555 328.076 277.619Z" fill="#FFB6B6"/>
<path d="M310.467 126.055C310.467 126.055 324.247 118.525 331.234 129.777C338.221 141.028 343.043 262.715 343.043 262.715L323.677 264.849L320.006 179.1L310.467 126.055Z" fill="#E6E6E6"/>
<path d="M281.867 457.919L293.086 457.918L298.423 413.251L281.864 413.252L281.867 457.919Z" fill="#FFB6B6"/>
<path d="M320.305 457.656C320.654 458.264 320.839 460.224 320.839 460.93C320.839 463.101 319.134 464.86 317.031 464.86H282.286C280.851 464.86 279.688 463.66 279.688 462.179V460.686C279.688 460.686 277.97 456.198 281.508 450.667C281.508 450.667 285.906 454.998 292.478 448.215L294.416 444.591L308.445 455.181L316.22 456.169C317.922 456.385 319.43 456.135 320.305 457.656Z" fill="#2F2E41"/>
<path d="M346.791 456.002L357.661 453.135L352.121 408.494L336.078 412.726L346.791 456.002Z" fill="#FFB6B6"/>
<path d="M383.971 445.928C384.455 446.427 385.103 448.279 385.273 448.963C385.793 451.066 384.563 453.207 382.526 453.744L348.862 462.62C347.472 462.986 346.057 462.12 345.702 460.686L345.344 459.239C345.344 459.239 342.603 455.33 344.705 449.067C344.705 449.067 350.005 452.14 354.746 443.889L355.754 439.883L371.886 446.559L379.656 445.53C381.356 445.305 382.758 444.677 383.971 445.928Z" fill="#2F2E41"/>
<path d="M272.584 116.453L272.052 112.468L278.375 96.5301L295.746 94.5379L299.497 117.355L272.584 116.453Z" fill="#FFB6B6"/>
<path opacity="0.1" d="M272.584 116.453L272.052 112.468L278.375 96.5301L295.746 94.5379L299.497 117.355L272.584 116.453Z" fill="black"/>
<path d="M252.318 229.015L244.597 250.93L250.388 262.883L279.34 436.21H298.589L294.782 282.806L339.176 436.21H358.226L342.907 332.612L331.455 236.984L324.509 232.555L290.921 213.077L252.318 229.015Z" fill="#2F2E41"/>
<path d="M301.537 243.957L289.956 245.949L274.515 208.096H309.258L301.537 243.957Z" fill="#E6E6E6"/>
<path d="M324.699 233.996L301.537 243.957L293.816 226.027L289.956 245.949L249.422 232.482L255.213 208.096L249.422 128.406L269.863 114.341L272.584 112.468L297.677 114.46L299.877 115.696L315.048 124.422L318.909 190.166L324.699 233.996Z" fill="#2F2E41"/>
<path d="M299.877 115.696L288.991 163.271L269.863 114.341L272.584 112.468L297.677 114.46L299.877 115.696Z" fill="#E6E6E6"/>
<path d="M281.27 112.468L277.41 119.33L281.27 121.618L279.34 163.394L287.061 174.228L294.781 158.216L288.991 121.618L290.921 112.468H281.27Z" fill="#2F2E41"/>
<path d="M287.061 108.484C297.188 108.484 305.397 100.01 305.397 89.5572C305.397 79.1044 297.188 70.6308 287.061 70.6308C276.934 70.6308 268.724 79.1044 268.724 89.5572C268.724 100.01 276.934 108.484 287.061 108.484Z" fill="#FFB6B6"/>
<path d="M275.342 91.2174L279.304 93.0022L281.033 82.2938C281.033 82.2938 287.95 78.7243 293.137 80.5091C298.325 82.2938 306.97 80.5091 306.97 80.5091C306.97 80.5091 306.97 62.6618 294.866 62.6618C282.763 62.6618 270.659 64.4465 270.659 69.8007C270.659 75.1549 265.471 80.5091 265.471 80.5091C265.471 80.5091 258.555 91.2174 265.471 98.3563C272.388 105.495 275.846 105.495 275.846 105.495L275.342 91.2174Z" fill="#2F2E41"/>
<path d="M239.763 277.06C239.562 284.756 243.246 291.102 247.992 291.233C252.737 291.365 256.746 285.232 256.946 277.533C257.067 274.458 256.473 271.399 255.213 268.61L255.666 235.988L240.83 236.095L241.959 268.243C240.555 270.959 239.802 273.982 239.763 277.06Z" fill="#FFB6B6"/>
<path d="M258.118 124.384C258.118 124.384 245.571 120.4 239.781 132.353C233.99 144.307 241.711 265.834 241.711 265.834H261.188L256.019 180.167L258.118 124.384Z" fill="#E6E6E6"/>
<path d="M697.765 350.79L650.978 336.007C649.943 335.68 648.857 335.56 647.779 335.655L410.656 356.485C407.276 356.782 406.426 361.489 409.476 363.022L417.072 366.842H416.869V549.68H424.026V370.339L447.831 382.309C449.653 383.225 451.685 383.599 453.701 383.389L456.234 383.125V549.68H463.391V382.378L646.793 363.257V549.68H653.951V362.511L684.369 359.34V549.68H691.526V358.593L697.075 358.015C700.971 357.609 701.509 351.973 697.765 350.79Z" fill="#3F3D56"/>
<path d="M479.495 355.761C483.968 355.761 550.172 347.45 550.172 347.45L560.013 361.301L491.125 375.153L479.495 355.761Z" fill="white"/>
<path d="M552.154 542.579L540.652 542.557L535.256 496.755L552.232 496.786L552.154 542.579Z" fill="#A0616A"/>
<path d="M512.747 542.24C512.388 542.862 512.196 544.871 512.194 545.595C512.191 547.82 513.935 549.627 516.092 549.631L551.712 549.694C553.183 549.697 554.377 548.468 554.38 546.95L554.382 545.419C554.382 545.419 556.152 540.822 552.534 535.145C552.534 535.145 548.017 539.577 541.291 532.611L539.311 528.892L524.911 539.723L516.937 540.722C515.193 540.94 513.647 540.682 512.747 542.24Z" fill="#2F2E41"/>
<path d="M613.887 521.28L604.812 528.345L574.09 495.578L587.484 485.151L613.887 521.28Z" fill="#A0616A"/>
<path d="M582.641 545.276C582.718 545.987 583.727 547.688 584.145 548.259C585.428 550.015 587.847 550.365 589.548 549.04L617.651 527.158C618.811 526.255 619.042 524.551 618.167 523.354L617.284 522.146C617.284 522.146 616.022 517.434 609.89 515.189C609.89 515.189 608.893 521.462 599.567 520.114L595.858 518.404L590.771 535.804L585.066 541.5C583.818 542.746 582.45 543.494 582.641 545.276Z" fill="#2F2E41"/>
<path d="M589.848 284.563C589.848 295.511 581.25 304.386 570.643 304.386C560.036 304.386 551.438 295.511 551.438 284.563C551.438 273.615 560.036 264.739 570.643 264.739C581.25 264.739 589.848 273.615 589.848 284.563Z" fill="#A0616A"/>
<path d="M588.039 398.858C588.039 398.858 517.327 394.727 513.324 402.99C509.322 411.252 534.962 524.747 534.962 524.747L557.839 519.798L546.679 440.171C546.679 440.171 605.686 456.301 613.691 437.022C621.696 417.742 619.392 410.564 619.392 410.564L588.039 398.858Z" fill="#2F2E41"/>
<path d="M606.156 384.989C606.156 384.989 536.904 400.312 535.162 409.373C533.419 418.435 587.234 520.885 587.234 520.885L608.027 509.867L576.857 436.123C576.857 436.123 637.897 435.567 640.676 414.789C643.454 394.01 639.392 387.717 639.392 387.717L606.156 384.989Z" fill="#2F2E41"/>
<path d="M614.055 307.281H580.785L558.019 345.84C558.019 345.84 552.683 370.758 558.019 373.447C563.356 376.136 563.356 405.055 563.356 405.055L619.392 410.564C619.392 410.564 627.397 323.806 624.729 315.544C622.06 307.281 614.055 307.281 614.055 307.281Z" fill="#17882C"/>
<path d="M561.355 332.757L558.019 373.447L520.503 357.012L511.549 352.364C509.795 350.004 507.519 348.111 504.912 346.845C498.427 343.583 491.543 344.391 489.532 348.649C487.521 352.907 491.146 359.002 497.629 362.262C500.203 363.602 503.05 364.286 505.933 364.257L532.132 379.616L532.162 379.556L532.279 379.77L573.363 397.481L582.816 344.065L561.355 332.757Z" fill="#A0616A"/>
<path d="M557.352 287.313C557.352 287.313 537.34 290.067 545.345 272.165C545.345 272.165 544.124 262.46 550.071 261.804C556.018 261.148 564.023 250.131 564.023 250.131C564.023 250.131 582.376 240.492 591.878 250.131C601.381 259.771 629.398 316.232 629.398 316.232L610.72 336.889C610.72 336.889 599.49 306.419 586.427 309.948C573.363 313.478 561.355 324.001 561.355 324.001C561.355 324.001 548.097 317.153 554.059 311.184C560.021 305.215 557.352 287.313 557.352 287.313Z" fill="#2F2E41"/>
<path d="M584.036 317.609C584.036 317.609 574.697 305.215 568.026 314.855C561.355 324.495 556.018 336.889 556.018 336.889L582.702 346.528L584.036 317.609Z" fill="#17882C"/>
<path d="M685.35 546.938L654.348 445.232L654.353 445.231H654.425L654.299 445.065L654.297 445.061L652.088 437.817L652.089 437.816C655.453 434.824 657.744 430.549 658.2 425.627L644.029 345.178C645.004 334.614 637.158 325.38 626.878 325.001L594.904 324.918C585.814 324.586 577.941 331.364 576.617 340.653L575.91 345.585L566.114 414.37C565.756 416.845 565.899 419.283 566.463 421.564L559.413 422.515L557.275 422.81L548.82 423.946L548.794 423.955L547.738 424.094H546.593V453.644H546.664V548.091C546.664 548.701 547.147 549.199 547.738 549.199C548.337 549.199 548.82 548.701 548.82 548.091V453.644H561.363L573.879 547.98C573.96 548.535 574.416 548.941 574.953 548.941C574.998 548.941 575.052 548.941 575.096 548.932C575.687 548.848 576.098 548.285 576.018 547.676L563.546 453.644H623.729C629.705 453.644 635.242 451.686 639.751 448.335L663.613 547.807C663.737 548.311 664.175 548.645 664.656 548.645C664.744 548.645 664.834 548.634 664.923 548.611C665.499 548.46 665.848 547.854 665.701 547.259L641.609 446.824C641.929 446.549 642.25 446.255 642.553 445.951L652.131 445.37L683.295 547.606C683.439 548.081 683.864 548.385 684.322 548.385C684.429 548.385 684.538 548.368 684.646 548.334C685.213 548.149 685.529 547.524 685.35 546.938ZM650.041 439.395C650.121 439.349 650.193 439.294 650.264 439.247L650.495 440.002L650.041 439.395Z" fill="#E6E6E6"/>
<path d="M166.115 374.542L186.98 360.846L195.462 366.127L166.115 400.934V374.542Z" fill="#FFB6B6"/>
<path d="M137.583 321.532C137.583 321.532 123.725 324.898 130.247 344.251C136.768 363.603 157.963 403.991 164.485 401.467C171.006 398.943 171.822 373.7 171.822 373.7C171.822 373.7 171.006 374.542 167.746 371.176C164.485 367.81 164.485 369.347 164.485 365.634C164.485 361.92 161.818 359.167 161.818 359.167L158.779 352.665C158.779 352.665 158.779 322.374 146.551 320.691C134.323 319.008 137.583 321.532 137.583 321.532Z" fill="#E6E6E6"/>
<path d="M202.33 365.223C207.742 359.636 209.42 352.311 206.077 348.861C202.734 345.411 195.637 347.142 190.225 352.728C184.813 358.314 183.136 365.64 186.478 369.09C189.821 372.54 196.918 370.809 202.33 365.223Z" fill="#FFB6B6"/>
<path d="M83.605 433.02L97.842 457.343L180.809 452.276L158.717 422.886L83.605 433.02Z" fill="#E6E6E6"/>
<path d="M108.396 546.779C107.913 546.779 107.492 546.411 107.424 545.903L82.6322 359.013C82.5587 358.458 82.9345 357.947 83.4717 357.871C84.0087 357.791 84.5039 358.183 84.5778 358.738L109.37 545.628C109.443 546.183 109.067 546.694 108.53 546.77C108.485 546.776 108.44 546.779 108.396 546.779Z" fill="#E6E6E6"/>
<path d="M83.6049 547.017C83.0627 547.017 82.623 546.563 82.623 546.003V358.911C82.623 358.352 83.0627 357.898 83.6049 357.898C84.1471 357.898 84.5868 358.352 84.5868 358.911V546.003C84.5868 546.563 84.1471 547.017 83.6049 547.017Z" fill="#E6E6E6"/>
<path d="M208.056 546.273C207.638 546.273 207.251 545.996 207.119 545.564L148.453 353.099C148.29 352.565 148.578 351.996 149.095 351.828C149.612 351.66 150.164 351.957 150.326 352.49L208.993 544.955C209.155 545.489 208.868 546.058 208.351 546.226C208.253 546.258 208.153 546.273 208.056 546.273Z" fill="#E6E6E6"/>
<path d="M190.136 546.51C189.698 546.51 189.298 546.205 189.185 545.747L148.438 375.883C148.304 375.341 148.622 374.789 149.148 374.651C149.675 374.514 150.208 374.841 150.341 375.383L191.089 545.247C191.222 545.789 190.904 546.341 190.379 546.479C190.298 546.5 190.216 546.51 190.136 546.51Z" fill="#E6E6E6"/>
<path d="M83.605 361.892L151.599 360.813L164.118 434.541H84.5868L83.605 361.892Z" fill="#E6E6E6"/>
<path d="M188.095 470.304L170.959 501.443L190.855 505.964L199.15 483.817L188.095 470.304Z" fill="#FFB6B6"/>
<path d="M177.114 495.564C177.114 495.564 176.448 490.486 172.533 492.097C168.619 493.709 157.321 499.698 157.321 499.698C157.321 499.698 186.788 549.118 192.38 546.816C197.973 544.513 191.278 530.544 191.278 530.544L192.756 505.85L177.114 495.564Z" fill="#2F2E41"/>
<path d="M112.312 409.881C112.312 409.881 106.198 438.91 124.948 449.007C143.697 459.104 207.69 434.282 207.69 434.282L178.343 479.669L198.723 488.133C198.723 488.133 245.189 425.027 241.928 414.93C238.667 404.833 216.657 403.991 216.657 403.991L166.93 406.515L153.887 402.308L112.312 409.881Z" fill="#2F2E41"/>
<path d="M162.744 484.124L135.805 506.692L152.743 518.376L168.278 500.862L162.744 484.124Z" fill="#FFB6B6"/>
<path d="M143.611 503.528C143.611 503.528 144.781 498.548 140.566 498.579C136.352 498.609 123.718 499.944 123.718 499.944C123.718 499.944 133.742 557.044 139.762 557C145.782 556.956 144.472 541.43 144.472 541.43L154.554 518.984L143.611 503.528Z" fill="#2F2E41"/>
<path d="M113.459 399.381C113.459 399.381 97.5299 424.123 111.434 440.57C125.339 457.017 193.695 457.931 193.695 457.931L150.359 489.184L166.358 504.722C166.358 504.722 231.887 463.395 232.409 452.765C232.931 442.136 212.727 433.085 212.727 433.085L165.519 416.759L154.853 407.942L113.459 399.381Z" fill="#2F2E41"/>
<path d="M154.378 342.071C154.378 342.071 138.89 336.182 131.553 336.182C130.852 336.182 130.159 336.266 129.466 336.417C124.771 337.444 120.45 341.609 118.38 343.88C117.572 344.772 117.108 345.37 117.108 345.37C117.108 345.37 117.157 344.789 117.255 343.771C117.735 338.42 119.513 320.859 122.7 309.618C123.841 305.604 125.154 302.399 126.662 300.842C130.175 297.207 131.798 292.849 132.548 289.601C133.183 286.816 133.183 284.855 133.183 284.855L127.241 282.213L126.14 274.792C125.944 275.667 125.04 277.375 121.999 280.648C121.738 280.926 121.453 281.161 121.151 281.363C116.765 284.207 107.823 279.26 103.005 276.146C105.01 268.952 108.646 262.372 115.249 261.295C130.738 258.771 130.738 249.516 140.52 259.613C141.327 260.446 142.142 261.245 142.958 262.019C146.088 268.195 147.229 276.475 147.637 282.23C147.93 286.26 147.857 289.062 147.857 289.062C147.857 289.062 151.933 314.305 158.454 319.353C164.976 324.402 154.378 342.071 154.378 342.071Z" fill="#2F2E41"/>
<path d="M124.216 301.683L113.201 318.36L138.074 325.243V301.683H124.216Z" fill="#FFB6B6"/>
<path opacity="0.1" d="M124.216 301.683L113.201 318.36L138.074 325.243V301.683H124.216Z" fill="black"/>
<path d="M139.621 317.746L115.981 307.649C115.981 307.649 84.1881 321.953 86.6337 349.72C89.0793 377.486 111.905 425.447 111.905 425.447L157.556 405.253L152.664 351.403L139.621 317.746Z" fill="#E6E6E6"/>
<path d="M129.485 309.129C141.004 309.129 150.342 299.49 150.342 287.601C150.342 275.712 141.004 266.073 129.485 266.073C117.966 266.073 108.628 275.712 108.628 287.601C108.628 299.49 117.966 309.129 129.485 309.129Z" fill="#FFB6B6"/>
<path d="M157.639 279.807C153.563 284.014 150.302 288.221 150.302 288.221L148.672 281.489C148.672 281.489 148.297 281.775 147.637 282.23C145.052 284.047 138.115 288.616 132.547 289.601C130.069 290.038 127.868 289.76 126.433 288.221C123.393 284.948 122.488 283.24 122.292 282.364L121.192 289.786L115.249 292.428C115.249 292.428 115.249 301.667 121.77 308.415C122.088 308.743 122.398 309.147 122.7 309.618C125.814 314.464 128.047 326.328 129.466 336.417C130.721 345.387 131.325 352.942 131.325 352.942C131.325 352.942 125.154 344.966 118.379 343.88C118.004 343.821 117.629 343.779 117.254 343.771C117.132 343.754 117.002 343.754 116.879 343.754C109.543 343.754 94.0539 349.644 94.0539 349.644C94.0539 349.644 83.4563 331.974 89.9779 326.926C96.4994 321.877 100.575 296.635 100.575 296.635C100.575 296.635 100.306 285.831 103.005 276.146C105.01 268.952 108.646 262.372 115.249 261.295C130.738 258.771 130.738 249.516 140.52 259.613C141.327 260.446 142.142 261.245 142.957 262.019C152.071 270.669 161.381 275.944 157.639 279.807Z" fill="#2F2E41"/>
<path d="M66.1631 392.755H58.4172V550.657H66.1631V392.755Z" fill="#3F3D56"/>
<path d="M254.001 392.755H246.255V550.657H254.001V392.755Z" fill="#3F3D56"/>
<path d="M204.621 325.797H153.304V378.764H204.621V325.797Z" fill="#17882C"/>
<path d="M123.725 382.114L144.59 368.419L153.072 373.7L123.725 408.506V382.114Z" fill="#FFB6B6"/>
<path d="M95.1933 329.105C95.1933 329.105 81.335 332.471 87.8566 351.823C94.3781 371.176 115.573 411.564 122.095 409.04C128.616 406.515 129.432 381.273 129.432 381.273C129.432 381.273 128.616 382.114 125.356 378.749C122.095 375.383 122.095 376.92 122.095 373.207C122.095 369.493 119.428 366.74 119.428 366.74L116.388 360.237C116.388 360.237 116.388 329.946 104.16 328.264C91.9326 326.581 95.1933 329.105 95.1933 329.105Z" fill="#E6E6E6"/>
<path d="M159.94 372.795C165.352 367.209 167.029 359.884 163.687 356.434C160.344 352.983 153.247 354.715 147.835 360.301C142.423 365.887 140.745 373.212 144.088 376.663C147.431 380.113 154.528 378.381 159.94 372.795Z" fill="#FFB6B6"/>
<path d="M269.492 386.759H35.1797V404.748H269.492V386.759Z" fill="#3F3D56"/>
<path d="M507.552 242.849H472.947C470.204 242.849 467.98 245.144 467.98 247.975V262.706C467.98 265.538 470.204 267.833 472.947 267.833H507.552C510.295 267.833 512.519 265.538 512.519 262.706V247.975C512.519 245.144 510.295 242.849 507.552 242.849Z" fill="#3F3D56"/>
<path d="M580.169 257.58H545.565C542.821 257.58 540.598 259.875 540.598 262.706V262.706C540.598 265.538 542.821 267.833 545.565 267.833H580.169C582.913 267.833 585.136 265.538 585.136 262.706V262.706C585.136 259.875 582.913 257.58 580.169 257.58Z" fill="#17882C"/>
</g>
<defs>
<clipPath id="clip0_256_33">
<rect width="824" height="557" fill="white"/>
</clipPath>
</defs>
</svg>
