<svg width="608" height="469" viewBox="0 0 608 469" fill="none" xmlns="http://www.w3.org/2000/svg">
<g clip-path="url(#clip0_256_163)">
<path d="M159.472 211.666C158.133 211.666 157.045 212.732 157.045 214.043V233.065C157.045 234.377 158.133 235.443 159.472 235.443C160.81 235.443 161.898 234.377 161.898 233.065V214.043C161.898 212.732 160.81 211.666 159.472 211.666Z" fill="#3F3D56"/>
<path d="M435.503 0H217.211C192.457 0 172.389 19.6621 172.389 43.9166V421.865C172.389 446.12 192.457 465.782 217.211 465.782H435.503C460.257 465.782 480.324 446.12 480.324 421.865V43.9166C480.324 19.6621 460.257 0 435.503 0Z" fill="white"/>
<path d="M435.503 469H217.211C191.911 469 171.328 448.833 171.328 424.044V46.0956C171.328 21.3067 191.911 1.13904 217.211 1.13904H435.503C460.802 1.13904 481.386 21.3067 481.386 46.0956V424.044C481.386 448.833 460.802 469 435.503 469ZM217.211 3.21892C193.081 3.21892 173.451 22.4533 173.451 46.0956V424.044C173.451 447.686 193.081 466.92 217.211 466.92H435.503C459.632 466.92 479.263 447.686 479.263 424.044V46.0956C479.263 22.4532 459.632 3.21892 435.503 3.21892H217.211Z" fill="#3F3D56"/>
<path d="M451.315 92.0935H363.573C359.852 92.0935 356.824 89.1269 356.824 85.4805C356.824 81.8341 359.852 78.8674 363.573 78.8674H451.315C455.036 78.8674 458.064 81.8341 458.064 85.4805C458.064 89.1269 455.036 92.0935 451.315 92.0935Z" fill="#E6E6E6"/>
<path d="M369.002 144.098H283.713C281.563 144.098 279.813 142.384 279.813 140.277C279.813 138.17 281.563 136.457 283.713 136.457H369.002C371.152 136.457 372.901 138.17 372.901 140.277C372.901 142.384 371.152 144.098 369.002 144.098Z" fill="#17882C"/>
<path d="M248.554 16.3823H199.662C199.535 16.3823 199.432 16.4832 199.432 16.6076V22.3564C199.432 22.4808 199.535 22.5817 199.662 22.5817H248.554C248.68 22.5817 248.783 22.4808 248.783 22.3564V16.6076C248.783 16.4832 248.68 16.3823 248.554 16.3823Z" fill="#E6E6E6"/>
<path d="M412.469 22.5817C415.265 22.5817 417.531 20.3613 417.531 17.6222C417.531 14.8832 415.265 12.6627 412.469 12.6627C409.674 12.6627 407.407 14.8832 407.407 17.6222C407.407 20.3613 409.674 22.5817 412.469 22.5817Z" fill="#E6E6E6"/>
<path d="M426.389 22.5817C429.184 22.5817 431.451 20.3613 431.451 17.6222C431.451 14.8832 429.184 12.6627 426.389 12.6627C423.593 12.6627 421.327 14.8832 421.327 17.6222C421.327 20.3613 423.593 22.5817 426.389 22.5817Z" fill="#E6E6E6"/>
<path d="M440.309 22.5817C443.104 22.5817 445.371 20.3613 445.371 17.6222C445.371 14.8832 443.104 12.6627 440.309 12.6627C437.513 12.6627 435.247 14.8832 435.247 17.6222C435.247 20.3613 437.513 22.5817 440.309 22.5817Z" fill="#E6E6E6"/>
<path d="M216.68 164.551C216.68 165.237 217.242 165.788 217.943 165.788H434.771C435.471 165.788 436.034 165.237 436.034 164.551C436.034 163.865 435.471 163.313 434.771 163.313H217.943C217.242 163.313 216.68 163.865 216.68 164.551Z" fill="#3F3D56"/>
<path d="M388.646 339.581C388.646 340.267 389.209 340.818 389.909 340.818H606.737C607.438 340.818 608 340.267 608 339.581C608 338.894 607.438 338.343 606.737 338.343H389.909C389.209 338.343 388.646 338.894 388.646 339.581Z" fill="#3F3D56"/>
<path d="M413.978 261.817H283.856C281.705 261.817 279.956 260.103 279.956 257.996C279.956 255.889 281.705 254.176 283.856 254.176H413.978C416.128 254.176 417.877 255.889 417.877 257.996C417.877 260.103 416.128 261.817 413.978 261.817Z" fill="#17882C"/>
<path d="M244.389 266.884C249.665 266.884 253.941 262.693 253.941 257.524C253.941 252.355 249.665 248.165 244.389 248.165C239.113 248.165 234.837 252.355 234.837 257.524C234.837 262.693 239.113 266.884 244.389 266.884Z" fill="#17882C"/>
<path d="M243.328 273.123V271.044C251.228 271.044 257.656 264.745 257.656 257.004C257.656 249.263 251.228 242.965 243.328 242.965V240.885C252.399 240.885 259.779 248.116 259.779 257.004C259.779 265.893 252.399 273.123 243.328 273.123Z" fill="#3F3D56"/>
<path d="M129.553 219.779C133.45 215.893 138.654 214.714 141.178 217.144C143.701 219.574 142.587 224.693 138.689 228.579C137.153 230.152 135.255 231.342 133.154 232.05L116.432 248.307L108.813 240.456L126.107 225.262C126.792 223.191 127.974 221.311 129.553 219.779Z" fill="#FFB6B6"/>
<path d="M76.075 206.359L93.6075 244.468L121.604 229.62L131.624 234.83C131.624 234.83 108.737 272.32 93.0665 268.052C77.396 263.784 49.5692 225.088 54.5829 213.145C59.5966 201.202 76.075 206.359 76.075 206.359Z" fill="#E6E6E6"/>
<path d="M0 467.724C0 468.204 0.392876 468.589 0.882113 468.589H541.456C541.946 468.589 542.338 468.204 542.338 467.724C542.338 467.245 541.946 466.86 541.456 466.86H0.882113C0.392876 466.86 0 467.245 0 467.724Z" fill="#3F3D56"/>
<path d="M161.828 281.412C188.396 281.412 209.933 260.754 209.933 235.272C209.933 209.789 188.396 189.131 161.828 189.131C135.26 189.131 113.723 209.789 113.723 235.272C113.723 260.754 135.26 281.412 161.828 281.412Z" fill="#17882C"/>
<path d="M68.3871 460.342L81.1711 460.341L87.2525 412.026L68.3845 412.028L68.3871 460.342Z" fill="#FFB6B6"/>
<path d="M112.187 460.058C112.585 460.715 112.795 462.835 112.795 463.599C112.795 465.947 110.852 467.85 108.456 467.85H68.8653C67.2305 467.85 65.9052 466.552 65.9052 464.95V463.335C65.9052 463.335 63.9467 458.481 67.9789 452.498C67.9789 452.498 72.9904 457.183 80.4789 449.846L82.6872 445.926L98.6722 457.38L107.532 458.449C109.471 458.683 111.19 458.413 112.187 460.058Z" fill="#2F2E41"/>
<path d="M78.0609 208.804L78.3195 191.91L67.6864 185.415L56.1243 199.273L78.0609 208.804Z" fill="#FFB6B6"/>
<path opacity="0.1" d="M78.061 208.804L78.7492 192.331L67.6865 185.415L71.4451 205.802L78.061 208.804Z" fill="black"/>
<path d="M103.884 320.519L86.2681 437.972H64.1666L67.1055 370.927L68.6522 335.674L64.1666 318.894C64.1666 318.894 62.1215 315.164 60.3985 310.643C58.4565 305.54 56.9226 299.424 59.1998 296.523C60.0376 295.454 62.216 294.662 65.1763 294.073C66.9851 293.711 69.0905 293.429 71.3633 293.21C84.4334 291.943 103.025 292.734 103.025 292.734L103.497 308.016L103.759 316.549L103.884 320.519Z" fill="#2F2E41"/>
<path d="M45.8677 454.598L58.5159 456.419L71.7052 409.485L53.0377 406.797L45.8677 454.598Z" fill="#FFB6B6"/>
<path d="M89.2436 460.559C89.5399 461.266 89.433 463.393 89.3196 464.149C88.971 466.472 86.7666 468.078 84.3957 467.736L45.2262 462.094C43.6088 461.861 42.4904 460.388 42.7282 458.803L42.9679 457.205C42.9679 457.205 41.7508 452.123 46.6283 446.779C46.6283 446.779 50.8911 452.128 59.3892 445.936L62.1559 442.373L76.2704 455.984L84.8777 458.304C86.7608 458.811 88.5014 458.789 89.2436 460.559Z" fill="#2F2E41"/>
<path d="M104.161 300.931L101.745 321.319L88.5683 364.282L66.8774 435.013L45.0134 431.865L64.6361 331.295L62.6931 314.05C62.6931 314.05 62.0604 312.336 61.3351 309.827C59.8954 304.862 58.0897 296.777 60.0762 292.653C60.3445 292.092 60.6812 291.605 61.0978 291.212C61.8792 290.469 63.4672 290.018 65.5949 289.779C74.488 288.794 92.8029 291.611 100.953 292.994L104.161 300.931Z" fill="#2F2E41"/>
<path d="M58.5554 195.699L80.0381 205.802C80.0381 205.802 102.81 271.896 102.81 275.264C102.81 278.631 109.255 280.736 105.388 284.525C101.521 288.314 112.585 291.523 106.623 294.549C100.662 297.576 63.4711 314.13 59.3356 312.637C47.93 308.52 59.819 293.391 59.819 293.391C59.819 293.391 51.2512 286.63 52.5402 283.262C53.8292 279.894 44.8064 215.485 44.8064 215.485L58.5554 195.699Z" fill="#E6E6E6"/>
<path d="M124.015 253.937C129.347 252.394 134.481 253.838 135.483 257.163C136.485 260.488 132.975 264.433 127.642 265.976C125.52 266.621 123.271 266.759 121.083 266.378L98.4091 272.638L95.6379 262.15L118.285 257.092C119.911 255.607 121.876 254.525 124.015 253.937Z" fill="#FFB6B6"/>
<path d="M83.9102 216.768L80.3563 258.424L112.19 258.76L118.368 268.081C118.368 268.081 79.784 289.97 68.1984 278.786C56.6128 267.601 51.4578 220.534 61.7584 212.477C72.059 204.421 83.9102 216.768 83.9102 216.768Z" fill="#E6E6E6"/>
<path d="M77.6133 196.811C87.777 196.811 96.0163 188.738 96.0163 178.78C96.0163 168.821 87.777 160.748 77.6133 160.748C67.4495 160.748 59.2102 168.821 59.2102 178.78C59.2102 188.738 67.4495 196.811 77.6133 196.811Z" fill="#FFB6B6"/>
<path d="M67.6871 178.851C67.6871 178.851 70.5852 174.165 72.1792 171.752C73.7731 169.338 73.7731 165.802 73.7731 165.802C73.7731 165.802 88.5535 165.505 93.4804 169.622C98.4072 173.739 101.885 158.548 97.103 153.294C97.103 153.294 95.0743 155.566 95.509 156.418L95.9438 157.27C95.9438 157.27 93.4804 147.615 86.38 145.769C86.38 145.769 82.4301 147.768 83.5356 148.899C84.6411 150.029 75.0773 142.078 72.1792 146.763C72.1792 146.763 65.0788 146.621 65.9482 149.177L65.5135 150.739C65.5135 150.739 59.4275 148.893 58.9927 153.294C58.9927 153.294 61.1663 153.294 62.3256 154.43C63.4848 155.566 58.1233 158.832 58.1233 158.832C58.1233 158.832 51.8923 175.585 60.2969 182.4C60.2969 182.4 60.3693 174.236 63.7022 176.224C67.035 178.212 67.6871 178.851 67.6871 178.851Z" fill="#2F2E41"/>
<path d="M85.2003 189.499L84.5396 191.203L89.4953 191.345L89.8257 189.783L85.2003 189.499Z" fill="#2F2E41"/>
<path d="M90.1562 183.394C90.1562 183.394 82.7226 181.406 78.2624 187.37L77.2712 188.505C77.2712 188.505 67.8552 178.141 68.6812 174.307L66.6989 174.449L64.7166 184.388C64.7166 184.388 70.9939 195.036 79.7491 195.462C79.7491 195.462 88.1739 197.45 89.991 194.043C91.8082 190.635 94.9367 185.61 94.9367 185.61L90.1562 183.394ZM88.8041 192.907H83.8789C82.7226 192.907 79.7491 188.789 79.7491 188.789C81.401 186.234 86.3568 186.092 86.3568 186.092H91.7385L92.1385 187.653L88.8041 192.907Z" fill="#2F2E41"/>
<path d="M448.89 461.714L440.81 460.003L443.7 428.651L455.626 431.176L448.89 461.714Z" fill="#A0616A"/>
<path d="M421.246 455.674C420.902 456.036 420.474 457.348 420.368 457.831C420.041 459.315 421.003 460.778 422.518 461.098L447.542 466.396C448.575 466.614 449.594 465.971 449.817 464.959L450.042 463.938C450.042 463.938 451.956 461.132 450.242 456.811C450.242 456.811 446.421 459.101 442.711 453.462L441.861 450.689L430.161 455.79L424.412 455.28C423.154 455.168 422.105 454.767 421.246 455.674Z" fill="#2F2E41"/>
<path d="M434.437 459.316L427.696 454.627L442.944 426.919L452.893 433.838L434.437 459.316Z" fill="#A0616A"/>
<path d="M411.448 443.105C410.988 443.305 410.067 444.346 409.775 444.749C408.878 445.987 409.176 447.703 410.439 448.582L431.317 463.1C432.179 463.699 433.374 463.5 433.986 462.656L434.603 461.804C434.603 461.804 437.49 459.962 437.649 455.329C437.649 455.329 433.217 455.962 432.07 449.346L432.403 446.469L419.598 446.648L414.517 443.963C413.406 443.375 412.603 442.603 411.448 443.105Z" fill="#2F2E41"/>
<path d="M531.551 304.311C531.551 304.311 544.122 321.057 518.98 339.884L467.649 323.813L485.982 286.349L502.219 277.624L531.551 304.311Z" fill="#2F2E41"/>
<path d="M467.649 323.813L447.746 361.79L435.175 440.824L450.888 441.851L466.602 366.922L494.363 326.379L474.982 317.654" fill="#2F2E41"/>
<path d="M518.98 327.955V339.884L483.363 378.213C483.363 378.213 483.363 406.952 469.745 420.296L454.031 443.903L440.413 436.719L460.316 367.949L495.934 322.786L518.98 327.955Z" fill="#2F2E41"/>
<path d="M493.67 209.69L499.071 234.754L519.663 229.823C519.663 229.823 509.484 209.08 511.51 200.862L493.67 209.69Z" fill="#A0616A"/>
<path opacity="0.1" d="M493.67 209.69L499.071 234.754L519.663 229.823C519.663 229.823 509.484 209.08 511.51 200.862L493.67 209.69Z" fill="black"/>
<path d="M513.219 213.473L497.505 220.658C497.505 220.658 489.422 225.499 489.273 228.724C489.125 231.949 490.172 247.345 490.172 247.345C490.172 247.345 483.887 253.503 488.077 265.82L485.982 286.349L533.123 310.983L528.932 267.873L531.027 227.843L513.219 213.473Z" fill="#E6E6E6"/>
<path d="M527.324 330.281C525.484 334.417 521.815 336.839 519.128 335.692C516.442 334.544 515.757 330.261 517.598 326.124C518.31 324.462 519.418 322.99 520.83 321.834L528.851 304.406L537.118 308.268L528.333 325.039C528.428 326.84 528.082 328.638 527.324 330.281Z" fill="#A0616A"/>
<path d="M518.98 230.409C518.98 230.409 530.504 223.224 534.694 231.435C538.884 239.647 548.312 281.73 548.312 281.73L534.694 321.76L522.123 316.628L533.123 273.547L518.98 230.409Z" fill="#E6E6E6"/>
<path d="M459.921 323.82C456.656 327.001 452.333 327.928 450.268 325.892C448.202 323.855 449.175 319.626 452.442 316.444C453.729 315.156 455.313 314.188 457.06 313.622L471.07 300.315L477.303 306.89L462.83 319.31C462.242 321.019 461.244 322.566 459.921 323.82Z" fill="#A0616A"/>
<path d="M489.716 227.96C489.716 227.96 509.806 227.155 510.614 236.302C511.422 245.448 497.689 286.259 497.689 286.259L469.977 318.558L460.22 309.25L486.644 273.169L489.716 227.96Z" fill="#E6E6E6"/>
<path d="M547.724 336.353L419.262 316.052C417.139 315.717 415.69 313.751 416.033 311.671C416.375 309.591 418.381 308.173 420.503 308.508L548.965 328.81C551.088 329.145 552.536 331.11 552.194 333.189C551.851 335.269 549.846 336.689 547.724 336.353Z" fill="#17882C"/>
<path d="M380.996 315.016C386.272 315.016 390.549 310.825 390.549 305.656C390.549 300.487 386.272 296.297 380.996 296.297C375.721 296.297 371.444 300.487 371.444 305.656C371.444 310.825 375.721 315.016 380.996 315.016Z" fill="#17882C"/>
<path d="M377.413 320.891L377.751 318.837C385.551 320.07 392.92 314.856 394.178 307.213C395.436 299.57 390.114 292.35 382.314 291.117L382.652 289.064C391.608 290.479 397.719 298.769 396.274 307.544C394.83 316.319 386.369 322.306 377.413 320.891Z" fill="#3F3D56"/>
<path d="M495.73 215.017C504.468 215.017 511.551 208.077 511.551 199.516C511.551 190.954 504.468 184.014 495.73 184.014C486.992 184.014 479.909 190.954 479.909 199.516C479.909 208.077 486.992 215.017 495.73 215.017Z" fill="#A0616A"/>
<path d="M505.079 199.516C505.079 199.516 495.203 190.731 488.874 193.832C482.546 196.932 479.382 198.999 479.382 198.999C479.382 198.999 474.108 191.248 482.019 184.531C482.019 184.531 465.918 177.638 477.66 166.875C489.402 156.111 499.949 160.245 499.949 160.245C499.949 160.245 514.188 166.446 504.168 178.847C504.168 178.847 518.765 187.918 511.203 202.759C511.203 202.759 510.496 193.315 508.387 195.899C506.277 198.482 505.079 199.516 505.079 199.516Z" fill="#2F2E41"/>
<path d="M178.356 252.644C172.308 238.074 166.259 223.504 160.211 208.935C159.376 206.922 156.759 206.851 155.944 208.935C149.968 224.21 146.063 240.149 144.186 256.4C143.866 259.169 148.294 259.146 148.611 256.4C149.346 250.041 150.436 243.729 151.837 237.484C156.82 237.74 161.845 237.193 166.654 235.888C169.132 241.858 171.611 247.827 174.089 253.797C175.147 256.347 179.43 255.232 178.356 252.644ZM152.84 233.198C154.331 227.22 156.118 221.312 158.191 215.5L164.974 231.839C161.001 232.861 156.938 233.315 152.84 233.198Z" fill="white"/>
<path d="M186.885 256.288C189.341 256.288 191.333 254.337 191.333 251.93C191.333 249.524 189.341 247.573 186.885 247.573C184.429 247.573 182.438 249.524 182.438 251.93C182.438 254.337 184.429 256.288 186.885 256.288Z" fill="white"/>
<path d="M140.187 217.796C142.644 217.796 144.635 215.845 144.635 213.438C144.635 211.032 142.644 209.081 140.187 209.081C137.731 209.081 135.74 211.032 135.74 213.438C135.74 215.845 137.731 217.796 140.187 217.796Z" fill="white"/>
</g>
<defs>
<clipPath id="clip0_256_163">
<rect width="608" height="469" fill="white"/>
</clipPath>
</defs>
</svg>
