<svg width="661" height="514" viewBox="0 0 661 514" fill="none" xmlns="http://www.w3.org/2000/svg">
<g clip-path="url(#clip0_256_310)">
<path d="M476.607 95.1026H428.219V17.8867L476.607 33.3299V95.1026Z" fill="#2F2E41"/>
<path d="M485.198 487.151L475.212 487.387L469.646 442.524L484.382 442.176L485.198 487.151Z" fill="#A0616A"/>
<path d="M450.938 507.985C450.938 509.671 452.135 511.039 453.611 511.039H473.432C473.432 511.039 475.383 503.198 483.336 499.824L483.885 511.039H494.109L492.871 493.006C492.871 493.006 495.606 483.358 489.925 478.426C484.245 473.495 488.846 474.181 488.846 474.181L486.611 463.02L471.16 464.837L471.047 482.357L463.548 499.748L452.55 505.181C451.571 505.664 450.938 506.766 450.938 507.985Z" fill="#2F2E41"/>
<path d="M434.02 487.151L424.034 487.387L418.468 442.524L433.204 442.176L434.02 487.151Z" fill="#A0616A"/>
<path d="M399.76 507.985C399.76 509.671 400.957 511.039 402.434 511.039H422.255C422.255 511.039 424.205 503.198 432.158 499.824L432.707 511.039H442.932L441.693 493.006C441.693 493.006 444.428 483.358 438.748 478.426C433.067 473.495 437.668 474.181 437.668 474.181L435.434 463.02L419.982 464.837L419.869 482.357L412.371 499.748L401.372 505.181C400.394 505.664 399.76 506.766 399.76 507.985Z" fill="#2F2E41"/>
<path d="M479.696 179.525L415.864 217.619L401.451 276.303L408.658 457.503H440.265L447.265 282.995L461.278 457.503H493.38L501.5 261.537C503.736 247.295 501.971 232.713 496.402 219.416L479.696 179.525Z" fill="#2F2E41"/>
<path d="M465.283 63.1867L438.514 61.1276L431.307 75.5412L410.717 80.6889L405.569 144.521C415.752 170.978 422.145 196.262 415.864 217.618L494.11 213.5L481.046 178.176C481.046 178.176 480.726 165.112 487.932 147.609C495.139 130.107 483.814 84.8071 483.814 84.8071L467.342 80.6889L465.283 63.1867Z" fill="#17882C"/>
<path d="M285.045 88.0173C287.652 88.0981 290.06 87.5834 291.955 86.6615L316.736 88.9993L317.504 77.1747L292.283 76.0764C290.449 75.0389 288.077 74.3761 285.47 74.2954C279.516 74.1109 274.594 77.0331 274.476 80.8223C274.359 84.6115 279.091 87.8328 285.045 88.0173Z" fill="#A0616A"/>
<path d="M431.638 124.115C431.638 124.115 430.762 86.4458 422.5 80.7917C419.093 78.46 366.702 77.9303 364.793 77.7325C353.023 76.5127 344.647 71.8396 334.737 71.3274C310.585 70.0791 298.375 75.94 298.375 75.94L297.949 88.034L431.638 124.115Z" fill="#17882C"/>
<path d="M449.618 60.1517C461.423 60.1517 470.992 50.5822 470.992 38.7776C470.992 26.973 461.423 17.4034 449.618 17.4034C437.814 17.4034 428.244 26.973 428.244 38.7776C428.244 50.5822 437.814 60.1517 449.618 60.1517Z" fill="#A0616A"/>
<path d="M443.135 6.9502C438.538 9.84825 435.171 7.7734 431.887 9.23499C425.471 12.0907 414.639 32.1479 415.616 40.545C416.999 52.4376 421.371 52.9273 421.24 61.4597C421.031 75.1608 419.942 75.1039 422.748 79.8879C425.869 85.2088 443.545 83.7641 446.826 76.5486C447.474 75.1251 440.283 75.6849 432.337 57.0094C428.35 47.638 430.967 39.0986 432.337 35.389C432.658 34.5205 432.804 28.3547 433.488 29.039C439.488 35.039 442.852 30.653 446.475 30.1497C453.91 29.1167 459.509 35.1153 461.765 32.9617C463.444 31.3592 461.303 27.1222 462.117 26.8104C462.985 26.4779 465.859 31.126 467.741 36.1253C468.954 39.3492 469.561 40.9612 469.498 42.8039C469.305 48.4947 467.854 64.6297 465.282 69.364C459.73 79.5877 466.721 83.4453 471.08 82.7C474.602 82.0979 490.169 84.4686 491.021 82.7481C491.78 81.2154 490.046 65.4493 488.224 50.7921C486.035 33.1749 477.258 16.9858 463.496 5.77099C462.689 5.11332 462.087 4.66208 461.765 4.48967C461.003 4.08129 453.144 0.000525117 447.353 3.25941C445.222 4.45913 445.569 5.41623 443.135 6.9502Z" fill="#2F2E41"/>
<path d="M176.137 503.837L164.278 503.836L158.636 458.093L176.139 458.094L176.137 503.837Z" fill="#FFB6B6"/>
<path d="M135.506 503.568C135.137 504.19 134.942 506.197 134.942 506.92C134.942 509.143 136.744 510.945 138.967 510.945H175.693C177.21 510.945 178.439 509.716 178.439 508.199V506.67C178.439 506.67 180.256 502.075 176.515 496.411C176.515 496.411 171.867 500.846 164.92 493.899L162.871 490.188L148.043 501.033L139.824 502.045C138.025 502.266 136.431 502.01 135.506 503.568Z" fill="#2F2E41"/>
<path d="M226.137 503.837L214.278 503.836L208.636 458.093L226.139 458.094L226.137 503.837Z" fill="#FFB6B6"/>
<path d="M185.506 503.568C185.137 504.19 184.942 506.197 184.942 506.92C184.942 509.143 186.744 510.945 188.967 510.945H225.693C227.21 510.945 228.439 509.716 228.439 508.199V506.67C228.439 506.67 230.256 502.075 226.515 496.411C226.515 496.411 221.867 500.846 214.92 493.899L212.871 490.188L198.043 501.033L189.824 502.045C188.025 502.266 186.431 502.01 185.506 503.568Z" fill="#2F2E41"/>
<path d="M228.488 215.039L141.488 214.039L132.488 271.039L154.488 468.039H183.331L189.988 284.539L201.988 471.539H231.52L244.988 258.539L228.488 215.039Z" fill="#2F2E41"/>
<path d="M597.321 495.981C599.387 496.11 600.529 493.543 598.966 492.047L598.81 491.429C598.831 491.38 598.851 491.33 598.872 491.281C600.961 486.299 608.042 486.333 610.113 491.323C611.952 495.751 614.293 500.186 614.869 504.869C615.127 506.935 615.011 509.041 614.553 511.069C618.861 501.658 621.128 491.382 621.128 481.048C621.128 478.452 620.986 475.855 620.695 473.265C620.456 471.147 620.127 469.041 619.7 466.955C617.395 455.678 612.402 444.937 605.2 435.965C601.738 434.073 598.851 431.115 597.107 427.569C596.481 426.29 595.99 424.914 595.757 423.513C596.151 423.564 597.243 417.564 596.946 417.196C597.495 416.363 598.478 415.948 599.077 415.136C602.06 411.092 606.168 411.798 608.313 417.293C612.896 419.605 612.94 423.441 610.128 427.13C608.34 429.476 608.094 432.652 606.524 435.164C606.686 435.371 606.854 435.571 607.015 435.778C609.976 439.576 612.537 443.658 614.696 447.947C614.086 443.18 614.987 437.438 616.523 433.737C618.271 429.52 621.548 425.968 624.433 422.322C627.899 417.943 635.006 419.854 635.617 425.405C635.623 425.459 635.629 425.513 635.634 425.567C635.206 425.808 634.786 426.065 634.376 426.336C632.036 427.884 632.845 431.51 635.617 431.938L635.68 431.948C635.525 433.492 635.26 435.022 634.872 436.527C638.574 450.843 630.582 456.057 619.171 456.291C618.919 456.421 618.673 456.55 618.422 456.672C619.578 459.928 620.501 463.267 621.186 466.651C621.8 469.642 622.226 472.665 622.465 475.7C622.762 479.53 622.736 483.38 622.413 487.203L622.433 487.068C623.253 482.857 625.539 478.923 628.859 476.198C633.805 472.135 640.792 470.639 646.127 467.373C648.696 465.801 651.987 467.833 651.539 470.81L651.517 470.953C650.722 471.276 649.947 471.651 649.198 472.07C648.769 472.312 648.35 472.569 647.939 472.84C645.6 474.388 646.408 478.014 649.18 478.442L649.243 478.452C649.289 478.458 649.327 478.465 649.372 478.471C648.01 481.707 646.111 484.71 643.734 487.3C641.419 499.798 631.478 500.983 620.844 497.344H620.837C619.675 502.408 617.976 507.355 615.793 512.07H597.773C597.708 511.87 597.65 511.663 597.592 511.463C599.258 511.566 600.937 511.47 602.578 511.166C601.241 509.525 599.904 507.872 598.567 506.231C598.535 506.199 598.509 506.167 598.483 506.134C597.805 505.295 597.12 504.462 596.442 503.622L596.442 503.621C596.399 501.043 596.709 498.474 597.321 495.981Z" fill="#F2F2F2"/>
<path d="M0 512.478C0 513.138 0.53003 513.668 1.19006 513.668H659.48C660.14 513.668 660.67 513.138 660.67 512.478C660.67 511.818 660.14 511.288 659.48 511.288H1.19006C0.53003 511.288 0 511.818 0 512.478Z" fill="#CCCCCC"/>
<path d="M198.988 65.5389H168.024L161.988 77.5389L132.488 91.0862L142.988 168.539L134.988 219.539H234.921L225.988 160.539L237.988 89.5389L204.988 76.5389L198.988 65.5389Z" fill="#E6E6E6"/>
<path d="M302.636 253.221C301.286 250.466 300.67 247.634 300.739 245.156L286.216 219.721L298.521 213.165L311.929 239.672C313.93 241.135 315.791 243.357 317.141 246.112C320.227 252.406 319.48 259.1 315.475 261.064C311.469 263.027 305.721 259.516 302.636 253.221Z" fill="#FFB6B6"/>
<path d="M206.909 86.1258C206.909 86.1258 216.706 76.0454 227.696 83.0603C238.687 90.0752 278.78 161.859 278.78 161.859L309.706 223.571L287.877 233.742L261.54 174.647L206.229 115.125L206.909 86.1258Z" fill="#E6E6E6"/>
<path d="M182.195 59.6898C197.637 59.6898 210.155 47.1714 210.155 31.7292C210.155 16.287 197.637 3.76868 182.195 3.76868C166.753 3.76868 154.234 16.287 154.234 31.7292C154.234 47.1714 166.753 59.6898 182.195 59.6898Z" fill="#FFB6B6"/>
<path d="M173.42 54.2321C173.549 56.9714 173.614 58.3411 173.193 58.5066C171.926 59.0049 155.614 49.371 153.693 42.9579C152.797 39.9668 153.554 39.9072 152.9 31.3976C152.274 23.2589 151.573 23.194 152.402 21.1805C153.323 18.9425 156.137 16.1851 161.765 10.6703C163.893 8.58515 164.956 7.54256 165.628 7.00351C167.664 5.36975 175.247 -0.716568 182.2 0.0697617C185.115 0.399372 184.616 1.56305 195.505 7.46769C196.443 7.97627 197.7 8.64763 199.437 9.41845C203.661 11.2932 206.282 11.7792 207.662 12.302C216.022 15.4704 213.569 33.1202 212.85 33.2214C212.588 33.2583 212.517 30.9696 211.145 30.7803C209.91 30.61 209.124 32.348 208.001 32.4112C204.936 32.5839 208.34 29.6496 200.838 26.3905C197.921 25.1235 206.037 30.836 198.311 30.7433C186.23 30.5983 193.957 31.3672 189.369 33.7772C186.023 35.5349 172.563 25.8623 173.11 28.9531C173.495 31.1331 175.077 31.7607 174.849 34.2029C174.628 36.569 172.85 39.1191 171.281 39.2128C169.836 39.2992 169.043 37.2705 168.561 37.4646C168.037 37.6758 168.613 40.2215 169.744 42.837C171.18 46.1574 172.037 46.1834 172.794 48.7371C173.23 50.206 173.293 51.548 173.42 54.2321Z" fill="#2F2E41"/>
<path d="M393.795 245.011L213.637 199.174C202.12 196.244 195.135 184.491 198.065 172.975L220.478 84.8836C223.408 73.3672 235.161 66.3816 246.677 69.3117L426.835 115.149C438.352 118.079 445.337 129.832 442.407 141.348L419.994 229.439C417.064 240.956 405.311 247.941 393.795 245.011Z" fill="white"/>
<path d="M393.795 245.011L213.637 199.174C207.879 197.709 203.253 194.039 199.949 189.171C195.141 182.089 193.887 173.173 195.997 164.878L214.792 91.0076C216.902 82.7124 222.265 75.4801 229.873 71.5569C235.102 68.8605 240.919 67.8466 246.677 69.3117L426.835 115.149C438.37 118.083 445.342 129.813 442.407 141.348L419.994 229.439C417.064 240.956 405.311 247.941 393.795 245.011ZM246.184 71.2499C235.72 68.5875 238.455 78.0648 235.792 88.5293C222.803 139.584 249.669 192.367 298.6 211.887C325.014 222.425 346.984 231.038 346.984 231.038C383.574 240.347 420.782 218.232 430.091 181.642L440.469 140.855C443.131 130.391 436.806 119.749 426.342 117.087L246.184 71.2499Z" fill="#3F3D56"/>
<path d="M330.479 140.668C329.223 130.348 319.839 122.999 309.519 124.255C299.297 125.498 291.995 134.718 293.077 144.922L292.778 144.958L297.324 182.332L331.714 178.148C332.801 178.207 333.907 178.178 335.025 178.042C345.345 176.786 352.694 167.402 351.439 157.082C350.183 146.762 340.799 139.413 330.479 140.668Z" fill="#17882C"/>
<path d="M264.56 493.722C263.103 489.969 258.88 488.107 255.127 489.564C251.409 491.007 249.549 495.164 250.93 498.89L250.821 498.932L256.095 512.524L268.602 507.67C269.015 507.588 269.428 507.472 269.834 507.314C273.587 505.857 275.449 501.634 273.993 497.881C272.536 494.128 268.313 492.266 264.56 493.722Z" fill="#E6E6E6"/>
<path d="M544.56 493.722C543.103 489.969 538.88 488.107 535.127 489.564C531.409 491.007 529.549 495.164 530.93 498.89L530.821 498.932L536.095 512.524L548.602 507.67C549.016 507.588 549.428 507.472 549.834 507.314C553.587 505.857 555.449 501.634 553.993 497.881C552.536 494.128 548.313 492.266 544.56 493.722Z" fill="#E6E6E6"/>
<path d="M315.712 248.386C328.967 248.386 339.712 237.641 339.712 224.386C339.712 211.131 328.967 200.386 315.712 200.386C302.457 200.386 291.712 211.131 291.712 224.386C291.712 237.641 302.457 248.386 315.712 248.386Z" fill="#17882C"/>
<path d="M206.611 127.053C204.036 128.721 201.297 129.67 198.829 129.895L175.3 147.338L167.328 135.9L192.053 119.437C193.268 117.276 195.253 115.164 197.828 113.496C203.711 109.684 210.446 109.629 212.872 113.373C215.297 117.117 212.494 123.242 206.611 127.053Z" fill="#FFB6B6"/>
<path d="M151.504 86.3484C151.504 86.3484 133.504 84.3484 130.504 91.3484C127.504 98.3484 121.504 168.348 121.504 168.348L131.504 185.348L197.083 135.716L183.802 122.436L155.697 135.716L151.504 86.3484Z" fill="#E6E6E6"/>
<path d="M412.218 108.968C414.357 111.168 416.815 112.702 419.172 113.471L438.225 135.716L448.545 126.341L428.106 104.785C427.403 102.407 425.939 99.9068 423.8 97.7068C418.913 92.6809 412.359 91.1275 409.161 94.2371C405.963 97.3467 407.331 103.942 412.218 108.968Z" fill="#A0616A"/>
<path d="M475.006 81.5579C475.006 81.5579 492.999 83.6167 494.365 91.1091C495.731 98.6014 485.991 168.18 485.991 168.18L472.456 182.526L419.578 119.535L435.482 109.546L459.924 128.752L475.006 81.5579Z" fill="#17882C"/>
<path d="M232.392 162.343C240.679 162.343 247.397 155.625 247.397 147.338C247.397 139.051 240.679 132.334 232.392 132.334C224.105 132.334 217.388 139.051 217.388 147.338C217.388 155.625 224.105 162.343 232.392 162.343Z" fill="#E6E6E6"/>
</g>
<defs>
<clipPath id="clip0_256_310">
<rect width="660.67" height="513.668" fill="white"/>
</clipPath>
</defs>
</svg>
