<svg width="302" height="208" viewBox="0 0 302 208" fill="none" xmlns="http://www.w3.org/2000/svg">
<path d="M297.778 0.211426H4.21708C3.09893 0.212446 2.02688 0.658023 1.23624 1.45032C0.445596 2.24262 0.000982183 3.31691 0 4.43737V203.774C0.000980905 204.894 0.445596 205.969 1.23624 206.761C2.02688 207.553 3.09893 207.999 4.21708 208H297.778C298.388 208 298.99 207.867 299.544 207.611C300.097 207.355 300.589 206.982 300.985 206.517C301.018 206.481 301.049 206.442 301.076 206.401C301.328 206.092 301.532 205.748 301.681 205.378C301.893 204.87 302.002 204.325 302 203.774V4.4374C301.999 3.31614 301.553 2.24123 300.762 1.44883C299.97 0.656433 298.897 0.211362 297.778 0.211426ZM300.796 203.774C300.796 204.364 300.623 204.94 300.298 205.431C300.009 205.864 299.616 206.217 299.156 206.459C298.73 206.679 298.258 206.794 297.778 206.793H4.21708C3.41829 206.792 2.65248 206.474 2.08764 205.908C1.52281 205.342 1.20506 204.574 1.20409 203.774V4.4374C1.20505 3.63695 1.52281 2.86955 2.08764 2.30354C2.65248 1.73753 3.41828 1.41911 4.21708 1.41814H297.778C298.578 1.41804 299.344 1.73596 299.91 2.30206C300.476 2.86816 300.795 3.63616 300.796 4.4374V203.774Z" fill="#3F3D56"/>
<path d="M301.395 17.1488H0.600891V18.3569H301.395V17.1488Z" fill="#3F3D56"/>
<path d="M10.8485 12.8963C12.846 12.8963 14.4653 11.2737 14.4653 9.27208C14.4653 7.27046 12.846 5.64783 10.8485 5.64783C8.85103 5.64783 7.23175 7.27046 7.23175 9.27208C7.23175 11.2737 8.85103 12.8963 10.8485 12.8963Z" fill="#3F3D56"/>
<path d="M21.2466 12.8963C23.2441 12.8963 24.8634 11.2737 24.8634 9.27208C24.8634 7.27046 23.2441 5.64783 21.2466 5.64783C19.2492 5.64783 17.6299 7.27046 17.6299 9.27208C17.6299 11.2737 19.2492 12.8963 21.2466 12.8963Z" fill="#3F3D56"/>
<path d="M31.645 12.8963C33.6425 12.8963 35.2617 11.2737 35.2617 9.27208C35.2617 7.27046 33.6425 5.64783 31.645 5.64783C29.6475 5.64783 28.0282 7.27046 28.0282 9.27208C28.0282 11.2737 29.6475 12.8963 31.645 12.8963Z" fill="#3F3D56"/>
<path d="M133.953 119.851C130.336 117.492 128.537 112.008 129.423 106.993C130.31 101.979 133.647 97.6591 137.649 95.7963C139.595 94.9172 141.729 94.5365 143.858 94.6882C145.988 94.8398 148.047 95.5193 149.849 96.6654C153.519 98.9138 158.708 100.145 160.451 104.644C161.79 108.1 160.091 115.12 158.289 118.478C156.731 121.38 153.771 122.707 150.99 123.284C147.914 123.913 144.738 123.872 141.679 123.164C138.619 122.457 135.747 121.099 133.256 119.184L133.953 119.851Z" fill="#2F2E41"/>
<path d="M132.067 146.486L129.175 151.483L128.793 152.142L128.236 153.111H119.71L120.286 152.142L121.775 149.627L125.248 143.753L129.179 145.328L132.067 146.486Z" fill="#FFB8B8"/>
<path d="M119.072 153.111L117.514 152.142L117.321 152.021L127.095 134.172C127.515 133.399 128.084 132.718 128.769 132.167C129.454 131.617 130.241 131.208 131.085 130.964C132.15 130.646 133.278 130.604 134.364 130.843C134.997 130.977 135.607 131.205 136.173 131.521C136.405 131.649 136.63 131.791 136.845 131.948C137.671 132.528 138.351 133.295 138.828 134.186C139.396 135.23 139.676 136.406 139.641 137.594C139.605 138.782 139.254 139.94 138.625 140.947L134.857 146.981L131.636 152.142L131.032 153.111H119.072Z" fill="#2F2E41"/>
<path d="M144.184 126.186C150.744 126.186 156.062 120.857 156.062 114.283C156.062 107.709 150.744 102.38 144.184 102.38C137.623 102.38 132.305 107.709 132.305 114.283C132.305 120.857 137.623 126.186 144.184 126.186Z" fill="#FFB8B8"/>
<path d="M156.108 153.111H129.407L129.528 152.767C129.46 152.559 129.397 152.35 129.339 152.142C129.276 151.924 129.223 151.701 129.175 151.483C128.741 149.454 128.742 147.356 129.179 145.328C130.655 138.068 136.54 132.17 136.54 132.17C136.642 132.093 136.743 132.02 136.845 131.947C137.721 131.305 138.671 130.771 139.674 130.358C144.046 128.541 148.631 129.272 151.711 130.212C152.784 130.538 153.833 130.938 154.85 131.41C155.208 131.579 155.402 131.686 155.402 131.686L155.706 140.995L156.074 152.142L156.108 153.111Z" fill="#17882C"/>
<path d="M168.46 152.142L166.419 141.742L164.358 131.255C164.272 130.821 164.058 130.424 163.743 130.116C163.428 129.807 163.027 129.601 162.593 129.524L158.279 128.778L154.265 128.085C153.878 128.015 153.479 128.053 153.112 128.194C152.744 128.335 152.422 128.574 152.181 128.885C151.879 129.261 151.714 129.73 151.711 130.213C151.711 130.511 151.772 130.806 151.89 131.08C153.985 135.975 154.023 143.724 153.491 152.142C153.467 152.462 153.448 152.786 153.423 153.111H168.653L168.46 152.142Z" fill="#2F2E41"/>
<path d="M139.674 130.358C139.585 130.005 139.41 129.68 139.165 129.412C138.92 129.144 138.612 128.941 138.269 128.822C137.926 128.703 137.559 128.671 137.201 128.729C136.842 128.788 136.504 128.934 136.216 129.156L134.364 130.843L126.781 137.763C126.544 137.976 126.359 138.239 126.239 138.534C125.383 140.584 123.715 144.63 121.775 149.627C121.461 150.441 121.137 151.279 120.803 152.142C120.687 152.462 120.561 152.786 120.435 153.111H132.932C133.034 152.786 133.136 152.462 133.237 152.142C133.793 150.383 134.335 148.657 134.857 146.981C136.385 142.11 137.764 137.686 138.828 134.187C139.123 133.217 139.392 132.322 139.635 131.502C139.749 131.131 139.762 130.736 139.674 130.358Z" fill="#2F2E41"/>
<path d="M171.264 153.111H172.072L171.961 152.84L171.666 152.142L167.115 141.32L166.419 141.742L160.828 145.13L163.696 152.142L164.092 153.111H168.653H171.264Z" fill="#FFB8B8"/>
<path d="M166.651 132.737C166.035 131.122 164.82 129.808 163.26 129.07C161.699 128.333 159.915 128.228 158.279 128.778C158.07 128.847 157.865 128.928 157.665 129.02C156.519 129.532 155.543 130.361 154.85 131.41C154.568 131.828 154.335 132.279 154.159 132.752C153.845 133.573 153.696 134.449 153.722 135.328C153.748 136.207 153.947 137.073 154.309 137.874L155.706 140.995L160.707 152.142L161.142 153.111H171.264L171.961 152.84L173.77 152.142L174.021 152.045L166.651 132.737Z" fill="#2F2E41"/>
<path d="M153.513 100.612C153.927 100.737 154.37 100.721 154.774 100.567C155.178 100.414 155.521 100.131 155.748 99.7624C155.963 99.387 156.09 98.9671 156.119 98.5351C156.147 98.103 156.076 97.6702 155.912 97.2697C155.575 96.4704 155.043 95.7683 154.366 95.2273C153.597 94.5301 152.661 94.0445 151.65 93.8178C151.144 93.7088 150.621 93.71 150.116 93.8213C149.611 93.9325 149.136 94.1513 148.722 94.4626C148.316 94.7844 148.016 95.2202 147.858 95.7142C147.701 96.2082 147.694 96.7381 147.839 97.2359C148.147 98.1297 148.98 98.7285 149.812 99.1745C151.463 100.058 153.283 100.576 155.15 100.695L153.513 100.612Z" fill="#2F2E41"/>
<path d="M155.823 113.928C153.914 114.191 154.159 113.217 153.394 111.444C152.629 109.671 151.605 107.566 149.686 107.386C148.113 107.239 146.817 108.499 145.543 109.435C143.271 111.103 140.211 111.919 137.578 110.919C134.945 109.918 133.115 106.774 134.114 104.136C134.425 103.407 134.882 102.751 135.457 102.206C136.031 101.662 136.711 101.242 137.455 100.971C138.946 100.44 140.529 100.22 142.108 100.324C145.62 100.436 149.065 101.32 152.199 102.912C154.361 104.013 156.467 105.589 157.288 107.877C158.108 110.164 158.648 113.379 156.302 113.998L155.823 113.928Z" fill="#2F2E41"/>
<path d="M152.537 94.3199C151.593 92.6734 152.372 90.4143 153.916 89.3142C155.461 88.2141 157.532 88.1062 159.376 88.5474C161.198 89.0075 162.868 89.9397 164.218 91.2506C165.567 92.5615 166.549 94.205 167.065 96.0161C167.847 98.8954 167.382 101.988 168.045 104.897C168.398 106.448 169.064 107.91 170.002 109.193C170.94 110.476 172.131 111.553 173.5 112.358C174.869 113.163 176.388 113.678 177.964 113.872C179.539 114.067 181.138 113.936 182.661 113.487C184.645 112.904 186.661 111.484 186.856 109.422C187.061 111.79 186.522 114.164 185.315 116.21C184.107 118.257 182.291 119.874 180.12 120.834C177.564 121.903 174.713 121.972 171.945 121.901C170.14 121.855 168.295 121.746 166.631 121.046C165.479 120.52 164.444 119.769 163.586 118.836C162.727 117.904 162.064 116.809 161.633 115.617C160.786 113.219 160.557 110.646 160.968 108.136C161.24 106.184 161.782 104.271 161.934 102.305C162.085 100.34 161.798 98.2415 160.589 96.6866C159.379 95.1318 157.07 94.3376 155.351 95.2958C154.66 95.6809 154.102 96.3099 153.352 96.5585C152.601 96.807 151.537 96.3702 151.606 95.581L152.537 94.3199Z" fill="#2F2E41"/>
<path d="M233.594 153.111L233.686 152.142L236.414 123.704C237.308 123.002 238.268 122.391 239.282 121.877C244.896 119.042 250.313 120.399 253.244 121.572C254.021 121.876 254.771 122.244 255.488 122.672L257.084 152.142L257.137 153.111H233.594Z" fill="#17882C"/>
<path d="M246.368 116.135C252.928 116.135 258.246 110.806 258.246 104.233C258.246 97.6587 252.928 92.3296 246.368 92.3296C239.808 92.3296 234.49 97.6587 234.49 104.233C234.49 110.806 239.808 116.135 246.368 116.135Z" fill="#FFB8B8"/>
<path d="M256.006 111.49C256.889 110.558 257.475 109.383 257.69 108.116C257.905 106.849 257.739 105.546 257.213 104.374C256.686 103.201 255.824 102.212 254.736 101.532C253.647 100.852 252.381 100.512 251.099 100.555C249.457 100.61 247.909 101.284 246.342 101.778C243.966 102.588 241.431 102.817 238.949 102.445C236.453 102.057 234.2 100.724 232.654 98.7204C231.185 96.6963 230.726 93.889 231.765 91.6123C232.963 88.984 235.763 87.5357 238.397 86.359C239.459 85.8261 240.593 85.4526 241.764 85.2504C242.35 85.1528 242.951 85.1775 243.527 85.3231C244.103 85.4688 244.644 85.732 245.114 86.0965C245.854 86.7344 246.288 87.6933 247.093 88.2461C248 88.8684 249.178 88.8521 250.271 88.9618C252.734 89.2088 255.064 90.2014 256.95 91.8076C258.836 93.4137 260.19 95.5573 260.831 97.9531C261.472 100.349 261.369 102.884 260.538 105.22C259.706 107.556 258.184 109.583 256.175 111.032L256.006 111.49Z" fill="#2F2E41"/>
<path d="M241.052 126.801L239.282 121.877L239.171 121.57C239.119 121.425 239.034 121.293 238.923 121.185C238.813 121.077 238.679 120.996 238.532 120.948C238.386 120.899 238.23 120.885 238.077 120.906C237.924 120.926 237.778 120.982 237.65 121.068L235.64 122.41C235.64 122.41 222.751 122.41 221.716 130.159C221.702 130.28 221.683 130.416 221.668 130.561C221.667 130.568 221.666 130.575 221.663 130.581C221.533 131.09 219.1 140.511 217.011 152.142C216.953 152.462 216.895 152.786 216.837 153.111H244.843C245.755 141.427 245.245 130.564 241.052 126.801Z" fill="#2F2E41"/>
<path d="M274.461 152.142C272.932 140.21 270.746 130.561 270.746 130.561C270.727 130.416 270.708 130.28 270.693 130.159C269.663 122.41 256.774 122.41 256.774 122.41L254.766 121.068C254.637 120.982 254.491 120.927 254.338 120.906C254.185 120.885 254.029 120.9 253.883 120.948C253.736 120.997 253.602 121.078 253.491 121.186C253.381 121.294 253.296 121.426 253.244 121.572L251.363 126.801C247.169 130.564 246.66 141.427 247.571 153.111L274.581 153.111C274.543 152.786 274.499 152.462 274.461 152.142Z" fill="#2F2E41"/>
<path d="M47.6013 124.974L44.7286 152.142L44.627 153.111H36.8553C36.9471 152.796 37.039 152.471 37.1358 152.142C39.3412 144.562 42.3444 133.498 42.0202 130.566C41.5125 125.991 45.0672 124.465 45.0672 124.465L45.2897 124.508L47.6013 124.974Z" fill="#17882C"/>
<path d="M60.1352 116.588C66.6955 116.588 72.0136 111.259 72.0136 104.685C72.0136 98.1112 66.6955 92.7821 60.1352 92.7821C53.575 92.7821 48.2569 98.1112 48.2569 104.685C48.2569 111.259 53.575 116.588 60.1352 116.588Z" fill="#A0616A"/>
<path d="M75.5113 147.344C74.9123 148.451 74.4216 149.613 74.046 150.814C73.9057 151.241 73.7704 151.686 73.6445 152.142C73.5527 152.457 73.4705 152.782 73.3883 153.111H42.0589C42.1026 152.791 42.141 152.467 42.1847 152.142C43.7856 139.469 45.0815 126.607 45.2896 124.508C45.3089 124.31 45.3186 124.208 45.3186 124.208C64.0929 114.293 77.794 127.261 77.794 127.261C77.794 127.261 77.8134 127.353 77.8425 127.533C78.1424 129.345 79.6705 139.929 75.5113 147.344Z" fill="#17882C"/>
<path d="M74.0461 150.814L71.9569 146.326L72.4646 128.531L77.8426 127.533L78.0313 127.499C80.811 129.118 82.9621 131.632 84.1345 134.632C85.1792 137.249 87.1668 145.12 88.8451 152.142C88.9225 152.467 88.9997 152.791 89.0772 153.111H75.1149L74.665 152.142L74.0461 150.814Z" fill="#17882C"/>
<path d="M93.1541 73.1477H24.4696C22.9963 73.1495 21.5839 73.7367 20.5422 74.7806C19.5004 75.8245 18.9144 77.2398 18.9126 78.7161V147.543C18.9144 149.019 19.5004 150.434 20.5422 151.478C21.5839 152.522 22.9963 153.109 24.4696 153.111H93.1541C94.6276 153.11 96.0404 152.523 97.0823 151.479C98.1242 150.435 98.7099 149.019 98.7109 147.543V78.7161C98.7099 77.2396 98.1242 75.8238 97.0823 74.7797C96.0404 73.7357 94.6276 73.1487 93.1541 73.1477ZM97.7436 147.543C97.7426 148.762 97.2587 149.931 96.3983 150.794C95.5378 151.656 94.371 152.141 93.1541 152.142H24.4696C23.2529 152.14 22.0866 151.655 21.2262 150.793C20.3659 149.931 19.8817 148.762 19.8798 147.543V78.7161C19.8817 77.4969 20.3659 76.3281 21.2262 75.466C22.0866 74.6039 23.2529 74.1188 24.4696 74.117H93.1541C94.371 74.118 95.5378 74.6029 96.3983 75.4652C97.2587 76.3274 97.7426 77.4966 97.7436 78.7161V147.543ZM44.7285 152.142L44.6269 153.111H73.3883C73.4704 152.782 73.5526 152.457 73.6445 152.142H44.7285Z" fill="#3F3D56"/>
<path d="M185.338 73.1477H116.654C115.18 73.1495 113.768 73.7367 112.726 74.7806C111.684 75.8245 111.098 77.2398 111.097 78.7161V147.543C111.098 149.019 111.684 150.434 112.726 151.478C113.768 152.522 115.18 153.109 116.654 153.111H185.338C186.811 153.11 188.224 152.523 189.266 151.479C190.308 150.435 190.894 149.019 190.895 147.543V78.7161C190.894 77.2396 190.308 75.8238 189.266 74.7797C188.224 73.7357 186.811 73.1487 185.338 73.1477ZM189.928 147.543C189.926 148.762 189.443 149.931 188.582 150.794C187.722 151.656 186.555 152.141 185.338 152.142H116.654C115.437 152.14 114.27 151.655 113.41 150.793C112.55 149.931 112.066 148.762 112.064 147.543V78.7161C112.066 77.4969 112.55 76.3281 113.41 75.466C114.27 74.6039 115.437 74.1188 116.654 74.117H185.338C186.555 74.118 187.722 74.6029 188.582 75.4652C189.443 76.3274 189.926 77.4966 189.928 78.7161V147.543ZM129.339 152.142C129.397 152.35 129.46 152.559 129.528 152.767L129.407 153.111H153.423C153.448 152.786 153.467 152.462 153.491 152.142H129.339Z" fill="#3F3D56"/>
<path d="M277.527 73.1477H208.842C207.369 73.1486 205.956 73.7356 204.914 74.7797C203.872 75.8237 203.286 77.2395 203.285 78.7161V147.543C203.286 149.019 203.872 150.435 204.914 151.479C205.956 152.523 207.369 153.11 208.842 153.111H277.527C279 153.109 280.412 152.522 281.454 151.478C282.496 150.434 283.082 149.019 283.084 147.543V78.7161C283.082 77.2398 282.496 75.8245 281.454 74.7807C280.412 73.7368 279 73.1495 277.527 73.1477ZM282.116 147.543C282.114 148.762 281.63 149.931 280.77 150.793C279.91 151.655 278.743 152.14 277.527 152.142H208.842C207.625 152.141 206.459 151.656 205.598 150.794C204.737 149.931 204.254 148.762 204.253 147.543V78.7161C204.254 77.4966 204.737 76.3274 205.598 75.4651C206.459 74.6028 207.625 74.118 208.842 74.117H277.527C278.743 74.1188 279.91 74.604 280.77 75.4661C281.63 76.3282 282.114 77.4969 282.116 78.7161V147.543ZM244.916 152.142C244.892 152.462 244.867 152.786 244.843 153.111H265.683C265.721 152.791 265.765 152.467 265.804 152.142H244.916Z" fill="#3F3D56"/>
<path d="M230.796 181.219H71.1998C70.1737 181.219 69.1896 180.811 68.464 180.084C67.7384 179.357 67.3308 178.371 67.3308 177.342C67.3308 176.314 67.7384 175.328 68.464 174.601C69.1896 173.874 70.1737 173.465 71.1998 173.465H230.796C231.822 173.465 232.807 173.874 233.532 174.601C234.258 175.328 234.665 176.314 234.665 177.342C234.665 178.371 234.258 179.357 233.532 180.084C232.807 180.811 231.822 181.219 230.796 181.219Z" fill="#CCCCCC"/>
<path d="M186.061 52.7933H115.935C114.909 52.7933 113.925 52.3849 113.199 51.6578C112.474 50.9307 112.066 49.9446 112.066 48.9163C112.066 47.8881 112.474 46.902 113.199 46.1749C113.925 45.4478 114.909 45.0393 115.935 45.0393H186.061C187.087 45.0393 188.071 45.4478 188.797 46.1749C189.522 46.902 189.93 47.8881 189.93 48.9163C189.93 49.9446 189.522 50.9307 188.797 51.6578C188.071 52.3849 187.087 52.7933 186.061 52.7933Z" fill="#17882C"/>
<path d="M65.8168 115.055C66.2191 115.453 66.7509 115.692 67.3147 115.728C67.8784 115.764 68.4363 115.595 68.8859 115.252C71.6854 113.173 74.1431 110.584 75.5975 107.427C77.2641 103.81 77.4501 99.3702 75.4407 95.9318C73.742 93.0251 70.7425 91.1494 67.753 89.6093C66.5923 88.9528 65.342 88.4699 64.0418 88.176C62.7276 87.8855 61.3524 88.1078 60.1962 88.7978C59.6305 89.1532 59.1849 89.6712 58.9174 90.2842C58.6499 90.8972 58.573 91.5767 58.6967 92.2342C57.2607 90.5924 55.4215 89.3552 53.3614 88.6452C52.0641 88.1367 50.6436 88.0335 49.2867 88.3492C47.3896 88.8884 46.0046 90.5774 45.2471 92.4018C44.6345 93.7895 44.423 95.3217 44.6366 96.8239C44.749 97.5715 45.0167 98.2871 45.4225 98.9244C45.8283 99.5618 46.363 100.107 46.9921 100.524C48.5606 101.496 50.5616 101.426 52.3629 101.029C54.1641 100.632 55.9078 99.9407 57.7439 99.7659C59.58 99.5912 61.6247 100.05 62.7421 101.52C63.5291 102.556 63.7311 103.909 63.9078 105.198L64.8266 111.905C64.9017 112.875 65.149 113.824 65.5568 114.707C65.6274 114.835 65.7149 114.952 65.8168 115.055Z" fill="#2F2E41"/>
</svg>
