<svg width="308" height="213" viewBox="0 0 308 213" fill="none" xmlns="http://www.w3.org/2000/svg">
<g clip-path="url(#clip0_133_153)">
<path d="M153.583 97.9346C159.005 97.9346 163.4 93.6317 163.4 88.3238C163.4 83.0159 159.005 78.713 153.583 78.713C148.162 78.713 143.767 83.0159 143.767 88.3238C143.767 93.6317 148.162 97.9346 153.583 97.9346Z" fill="#17882C"/>
<path d="M46.3603 12.8013V104.333C46.363 106.557 47.2664 108.689 48.8724 110.261C50.4783 111.833 52.6557 112.718 54.9268 112.72H299.433C301.705 112.718 303.882 111.833 305.488 110.261C307.094 108.689 307.997 106.557 308 104.333V12.8013C307.997 10.5777 307.094 8.44588 305.488 6.87354C303.882 5.3012 301.705 4.41668 299.433 4.414H54.9268C52.6557 4.41668 50.4783 5.3012 48.8724 6.87354C47.2664 8.44588 46.363 10.5777 46.3603 12.8013ZM47.1154 12.8013C47.1154 10.7729 47.9384 8.82762 49.4033 7.39334C50.8682 5.95906 52.8551 5.15329 54.9268 5.15329H248.47C264.058 5.15329 279.008 11.216 290.03 22.0078C301.053 32.7996 307.245 47.4364 307.245 62.6982V104.333C307.245 106.362 306.422 108.307 304.957 109.741C303.492 111.175 301.505 111.981 299.433 111.981H54.9268C52.8551 111.981 50.8682 111.175 49.4033 109.741C47.9384 108.307 47.1154 106.362 47.1154 104.333V12.8013Z" fill="#3F3D56"/>
<path d="M49.1796 205.642L54.6566 205.642L57.2621 184.958L49.1784 184.959L49.1796 205.642Z" fill="#FFB6B6"/>
<path d="M48.9867 211.236L65.8292 211.236V211.027C65.8291 209.325 65.1384 207.693 63.909 206.489C62.6796 205.285 61.0123 204.609 59.2737 204.609H59.2732L56.1968 202.324L50.4567 204.609L48.9864 204.609L48.9867 211.236Z" fill="#2F2E41"/>
<path d="M25.2877 205.642L30.7648 205.642L33.3702 184.958L25.2866 184.959L25.2877 205.642Z" fill="#FFB6B6"/>
<path d="M25.095 211.236L41.9375 211.236V211.027C41.9374 209.325 41.2467 207.693 40.0173 206.489C38.7879 205.285 37.1205 204.609 35.3819 204.609H35.3815L32.305 202.324L26.565 204.609L25.0947 204.609L25.095 211.236Z" fill="#2F2E41"/>
<path d="M62.8168 92.9417C62.8168 92.9417 68.0864 108.788 67.1138 110.874C66.1411 112.959 64.4815 111.334 66.1411 112.959C67.8006 114.584 69.2493 112.857 67.6952 115.616C66.1411 118.375 63.7867 141.09 62.7512 142.189C61.7157 143.289 60.2919 143.318 61.557 144.387C62.8221 145.455 64.4816 143.289 62.822 145.455C61.1625 147.622 56.7589 197.598 56.7589 197.598H48.1563C48.1563 197.598 46.0138 195.18 47.2266 193.607C48.4394 192.033 47.1201 191.426 47.2266 190.376C47.3331 189.325 46.9297 187.06 46.8548 186.026C46.7799 184.992 45.3261 160.366 48.8189 146.141L42.4498 119.054L34.7347 151.792C34.7347 151.792 38.2837 179.252 34.7347 188.08C34.7347 188.08 37.596 190.412 36.327 191.764C35.0581 193.116 33.9517 192.033 35.0581 193.116C36.1644 194.199 33.3986 197.991 33.3986 197.991L23.9945 197.449L18.6719 146.141C18.6719 146.141 17.7746 140.79 18.6719 139.873C19.5691 138.956 19.5691 142.206 19.5691 138.956V134.623C19.5691 134.623 20.0889 107.974 20.1582 106.405C20.2275 104.835 26.8656 93.4615 26.8656 93.4615L62.8168 92.9417Z" fill="#2F2E41"/>
<path d="M62.7383 38.2108V69.457C61.7081 72.4826 61.1766 75.6495 61.1639 78.8387C61.1979 84.1505 62.3909 90.2718 62.3872 92.9481C62.403 93.303 62.3636 93.6583 62.2701 94.0016C56.9882 108.991 29.0385 95.3693 26.4976 94.094C26.3768 94.0348 26.3126 94.0016 26.3126 94.0016L26.8638 77.2122L26.7694 72.3846L26.1163 39.268L26.7015 38.8096L31.8285 34.8064L32.3307 34.4145L33.8711 36.6139L47.6024 35.6898L52.8428 34.2704L54.4776 34.921L61.8473 37.856L62.7383 38.2108Z" fill="#17882C"/>
<path d="M110.594 62.7647L100.971 59.6498L98.387 64.7836L108.68 67.7224C109.017 68.2452 109.496 68.6658 110.063 68.9368C110.63 69.2079 111.263 69.3186 111.891 69.2567C112.519 69.1947 113.117 68.9625 113.617 68.5861C114.118 68.2097 114.501 67.704 114.725 67.126C114.948 66.5479 115.002 65.9204 114.881 65.314C114.759 64.7075 114.468 64.1462 114.039 63.6931C113.61 63.2399 113.06 62.913 112.451 62.749C111.843 62.585 111.2 62.5904 110.594 62.7647Z" fill="#FFB6B6"/>
<path d="M53.4171 35.1715L53.3773 35.3275C52.6253 38.2726 51.6653 46.685 53.7225 48.9565C56.3642 51.877 77.703 60.793 81.9422 60.0666C85.2301 59.5032 84.5532 59.6923 86.1262 61.2947C87.6993 62.897 85.0883 63.2712 88.5973 63.5516C92.1062 63.832 92.1762 62.5164 92.9277 63.9754C93.6793 65.4343 93.0107 66.3135 95.3988 66.2323C97.7869 66.1511 98.3856 66.5875 99.2071 66.7309C100.029 66.8743 105.187 69.2683 105.187 69.2683C105.187 69.2683 107.256 63.4882 109.861 61.2871C109.861 61.2871 103.887 60.5767 103.435 59.3359C102.983 58.0952 103.352 56.9978 101.786 57.2223C100.219 57.4469 99.404 59.1304 99.6204 57.0104C99.8368 54.8905 88.5519 50.7635 88.5519 50.7635C81.7416 44.1985 67.7492 39.6376 53.4171 35.1715Z" fill="#17882C"/>
<path d="M22.887 100.43L22.4505 90.5163L16.6314 89.9703L17.4738 100.436C17.0938 100.929 16.8618 101.516 16.804 102.132C16.7462 102.747 16.8649 103.366 17.1467 103.919C17.4285 104.472 17.8623 104.937 18.3992 105.262C18.9361 105.586 19.555 105.758 20.1861 105.758C20.8173 105.757 21.4357 105.584 21.972 105.258C22.5082 104.932 22.9409 104.466 23.2215 103.913C23.5022 103.359 23.6195 102.74 23.5604 102.125C23.5013 101.509 23.2681 100.923 22.887 100.43Z" fill="#FFB6B6"/>
<path d="M28.9698 38.3032L28.8067 38.322C27.2899 38.4972 25.8396 39.0318 24.5813 39.8793C23.323 40.7269 22.2947 41.862 21.5854 43.1863C19.7327 46.6401 13.8713 70.0328 15.3065 73.2431C16.6449 76.2369 16.5895 75.5007 15.6169 77.5089C14.6443 79.517 13.3612 77.2594 14.3374 80.5712C15.3136 83.883 16.5949 83.4807 15.4679 84.6859C14.341 85.8911 13.2643 85.5907 14.1885 87.7482C15.1126 89.9057 14.908 90.6085 15.0623 91.4114C15.2167 92.2143 14.759 97.7855 14.759 97.7855C14.759 97.7855 21.0128 97.6309 24.0382 99.235C24.0382 99.235 22.5991 93.5145 23.6237 92.6606C24.6484 91.8068 25.8274 91.7558 25.0575 90.4012C24.2877 89.0466 22.3909 88.8973 24.4923 88.3439C26.5936 87.7904 26.5344 75.9962 26.5344 75.9962L28.9698 38.3032Z" fill="#17882C"/>
<path d="M43.9629 25.6687C43.7175 25.7241 43.4721 25.7722 43.2267 25.8092C42.477 25.9297 41.7159 25.9681 40.9576 25.9237C38.9822 25.8199 37.0748 25.1824 35.4469 24.0819C33.819 22.9814 32.5343 21.461 31.7351 19.6892C30.936 17.9175 30.6537 15.9636 30.9195 14.0443C31.1854 12.1251 31.989 10.3154 33.2413 8.81601C34.4936 7.31664 36.1455 6.18617 38.014 5.54996C39.8825 4.91375 41.8944 4.79667 43.8267 5.2117C45.759 5.62674 47.5361 6.55766 48.9609 7.90124C50.3858 9.24483 51.4027 10.9485 51.8989 12.8235C51.9216 12.9085 51.9442 12.9898 51.9631 13.0748C52.6073 15.7835 52.1264 18.6318 50.6262 20.9935C49.1259 23.3551 46.7292 25.0368 43.9629 25.6687Z" fill="#FFB6B6"/>
<path d="M34.0779 24.4313C32.5883 23.2899 32.4437 21.1142 31.1725 19.7428C29.0472 17.4498 28.0486 14.9828 29.162 12.2658C30.1467 9.86271 29.9374 6.9087 32.0582 5.36185C31.0166 4.99267 30.7715 4.226 31.6906 4.21184C32.3103 4.2023 34.6208 5.36207 33.5091 3.9173C32.3973 2.47254 34.5018 3.04282 34.3626 2.45143C34.2234 1.86004 33.3308 1.53249 32.9372 2.00127C34.194 0.559425 36.9387 0.866825 37.8305 2.54931C39.0832 0.711163 40.4129 -0.553656 42.3298 0.612831C44.2125 1.75849 44.1879 3.1747 46.2125 2.83435C47.1643 2.67435 47.2542 4.43491 47.9044 5.13399C48.5546 5.83307 49.5051 6.37411 50.454 6.19853C51.4029 6.02296 52.1285 4.86515 51.5968 4.07588L53.8333 9.07137L54.7346 7.98889C56.1669 8.90276 55.6965 11.2874 54.2548 12.1869C52.8131 13.0864 50.0617 11.0074 49.2793 12.4955C48.046 14.8414 45.1528 13.6568 43.1659 11.999C40.7565 9.98847 37.8482 16.1014 39.0089 18.9849C37.8046 17.8271 35.5768 18.7879 34.9529 20.3234C34.3291 21.8588 34.7865 23.5888 35.249 25.178L34.0779 24.4313Z" fill="black"/>
<path d="M182.891 58.9469H171.558C171.264 58.9466 170.982 58.8321 170.774 58.6285C170.566 58.4249 170.449 58.1489 170.448 57.861V46.9004C170.449 46.6125 170.566 46.3365 170.774 46.1329C170.982 45.9293 171.264 45.8148 171.558 45.8145H182.891C183.185 45.8148 183.467 45.9293 183.675 46.1329C183.883 46.3365 184 46.6125 184 46.9004V57.861C184 58.1489 183.883 58.4249 183.675 58.6285C183.467 58.8321 183.185 58.9466 182.891 58.9469Z" fill="#F2F2F2"/>
<path d="M184.778 59.8706H173.444C173.15 59.8703 172.868 59.7557 172.66 59.5522C172.453 59.3486 172.336 59.0725 172.335 58.7846V47.824C172.336 47.5361 172.453 47.2601 172.66 47.0565C172.868 46.8529 173.15 46.7384 173.444 46.7381H184.778C185.072 46.7384 185.353 46.8529 185.561 47.0565C185.769 47.2601 185.886 47.5361 185.887 47.824V58.7846C185.886 59.0725 185.769 59.3486 185.561 59.5521C185.354 59.7557 185.072 59.8703 184.778 59.8706Z" fill="#C7C7C7"/>
<path d="M171.795 46.138C171.526 46.138 171.267 46.2428 171.077 46.4294C170.886 46.616 170.779 46.8691 170.779 47.1329V57.6284C170.779 57.8923 170.886 58.1454 171.077 58.332C171.267 58.5185 171.526 58.6234 171.795 58.6234H178.725C180.036 58.6234 181.294 58.1133 182.221 57.2055C183.148 56.2977 183.669 55.0664 183.669 53.7825V47.1329C183.669 46.8691 183.562 46.616 183.372 46.4294C183.181 46.2428 182.923 46.138 182.653 46.138H171.795Z" fill="white"/>
<path d="M180.259 49.3232H174.165C174.109 49.3232 174.056 49.3014 174.016 49.2627C173.976 49.224 173.954 49.1715 173.954 49.1167C173.954 49.062 173.976 49.0095 174.016 48.9707C174.056 48.932 174.109 48.9103 174.165 48.9103H180.259C180.315 48.9103 180.369 48.932 180.409 48.9707C180.448 49.0095 180.47 49.062 180.47 49.1167C180.47 49.1715 180.448 49.224 180.409 49.2627C180.369 49.3014 180.315 49.3232 180.259 49.3232Z" fill="#C7C7C7"/>
<path d="M180.259 53.7255H174.165C174.109 53.7255 174.056 53.7038 174.016 53.6651C173.976 53.6263 173.954 53.5738 173.954 53.5191C173.954 53.4643 173.976 53.4118 174.016 53.3731C174.056 53.3344 174.109 53.3126 174.165 53.3126H180.259C180.315 53.3126 180.369 53.3344 180.409 53.3731C180.448 53.4118 180.47 53.4643 180.47 53.5191C180.47 53.5738 180.448 53.6263 180.409 53.6651C180.369 53.7038 180.315 53.7255 180.259 53.7255Z" fill="#C7C7C7"/>
<path d="M182.734 51.5258H171.69C171.634 51.5258 171.581 51.5041 171.541 51.4653C171.502 51.4266 171.479 51.3741 171.479 51.3194C171.479 51.2646 171.502 51.2121 171.541 51.1734C171.581 51.1347 171.634 51.1129 171.69 51.1129H182.734C182.79 51.1129 182.844 51.1347 182.883 51.1734C182.923 51.2121 182.945 51.2646 182.945 51.3194C182.945 51.3741 182.923 51.4266 182.883 51.4653C182.844 51.5041 182.79 51.5258 182.734 51.5258Z" fill="#C7C7C7"/>
<path d="M182.847 55.5155H178.857C178.801 55.5155 178.748 55.4937 178.708 55.455C178.669 55.4163 178.647 55.3638 178.647 55.309C178.647 55.2543 178.669 55.2018 178.708 55.1631C178.748 55.1244 178.801 55.1026 178.857 55.1026H182.847C182.903 55.1026 182.957 55.1244 182.996 55.1631C183.036 55.2018 183.058 55.2543 183.058 55.309C183.058 55.3638 183.036 55.4163 182.996 55.455C182.957 55.4937 182.903 55.5155 182.847 55.5155Z" fill="#C7C7C7"/>
<path d="M148.712 65.8081L148.564 65.737C139.965 61.5743 130.661 61.5781 120.123 65.7484L119.841 65.0629C130.529 60.8334 139.988 60.8134 148.751 65.0031C161.083 60.4083 169.011 52.621 172.316 41.8544L173.04 42.0674C169.649 53.1102 161.516 61.0787 148.865 65.7514L148.712 65.8081Z" fill="#C7C7C7"/>
<path d="M184.586 65.8082L184.439 65.7403C175.987 61.8579 166.678 61.8615 155.98 65.7522L155.717 65.0591C166.551 61.1188 176.005 61.0997 184.611 65.0032C198.418 59.6018 206.345 51.828 208.173 41.8954L208.916 42.0264C207.032 52.2634 198.897 60.2449 184.738 65.7491L184.586 65.8082Z" fill="#C7C7C7"/>
<path d="M212.859 65.4149L212.766 65.3755C205.802 62.4444 196.741 62.4505 184.253 65.3954L184.076 64.6767C196.675 61.7058 205.861 61.6986 212.97 64.6572C227.083 62.9676 234.776 55.4072 236.486 41.5469L237.236 41.6357C235.473 55.9165 227.533 63.691 212.96 65.403L212.859 65.4149Z" fill="#C7C7C7"/>
<path d="M175.859 43.5965C177.527 43.5965 178.879 42.2726 178.879 40.6394C178.879 39.0062 177.527 37.6822 175.859 37.6822C174.191 37.6822 172.838 39.0062 172.838 40.6394C172.838 42.2726 174.191 43.5965 175.859 43.5965Z" fill="#17882C"/>
<path d="M209.838 43.5965C211.506 43.5965 212.858 42.2726 212.858 40.6394C212.858 39.0062 211.506 37.6822 209.838 37.6822C208.17 37.6822 206.818 39.0062 206.818 40.6394C206.818 42.2726 208.17 43.5965 209.838 43.5965Z" fill="#17882C"/>
<path d="M237.021 43.2269C238.689 43.2269 240.042 41.9029 240.042 40.2697C240.042 38.6365 238.689 37.3126 237.021 37.3126C235.353 37.3126 234.001 38.6365 234.001 40.2697C234.001 41.9029 235.353 43.2269 237.021 43.2269Z" fill="#17882C"/>
<path d="M152.825 88.3334H121.077C120.253 88.3325 119.463 88.0116 118.881 87.4413C118.298 86.871 117.97 86.0977 117.969 85.2912V54.5861C117.97 53.7796 118.298 53.0063 118.881 52.436C119.463 51.8657 120.253 51.5448 121.077 51.5439H152.825C153.649 51.5448 154.439 51.8657 155.021 52.436C155.604 53.0063 155.932 53.7796 155.932 54.5861V85.2912C155.932 86.0977 155.604 86.871 155.021 87.4413C154.439 88.0116 153.649 88.3325 152.825 88.3334Z" fill="#C7C7C7"/>
<path d="M147.54 85.7458H115.791C114.967 85.7449 114.177 85.4241 113.595 84.8538C113.012 84.2835 112.685 83.5102 112.684 82.7036V51.9986C112.685 51.1921 113.012 50.4188 113.595 49.8485C114.177 49.2781 114.967 48.9573 115.791 48.9564H147.54C148.363 48.9573 149.153 49.2781 149.736 49.8485C150.318 50.4188 150.646 51.1921 150.647 51.9986V82.7036C150.646 83.5102 150.318 84.2835 149.736 84.8538C149.153 85.4241 148.363 85.7449 147.54 85.7458Z" fill="#C7C7C7"/>
<path d="M121.704 49.8629C119.557 49.8629 117.498 50.6978 115.98 52.1839C114.462 53.6701 113.61 55.6857 113.61 57.7875V82.0522C113.61 82.4182 113.683 82.7807 113.826 83.1188C113.969 83.457 114.179 83.7642 114.443 84.0231C114.708 84.2819 115.022 84.4872 115.367 84.6273C115.712 84.7673 116.083 84.8394 116.456 84.8394H135.87C137.689 84.8394 139.49 84.4886 141.17 83.8071C142.851 83.1256 144.378 82.1267 145.664 80.8674C146.95 79.6081 147.971 78.1131 148.667 76.4678C149.363 74.8224 149.721 73.059 149.721 71.2781V52.6501C149.721 51.9109 149.421 51.2019 148.887 50.6792C148.353 50.1565 147.629 49.8629 146.874 49.8629H121.704Z" fill="white"/>
<path d="M140.168 58.7859H123.096C122.939 58.7859 122.789 58.7249 122.678 58.6165C122.567 58.508 122.505 58.3609 122.505 58.2075C122.505 58.0542 122.567 57.9071 122.678 57.7986C122.789 57.6901 122.939 57.6292 123.096 57.6292H140.168C140.325 57.6292 140.475 57.6901 140.586 57.7986C140.697 57.9071 140.759 58.0542 140.759 58.2075C140.759 58.3609 140.697 58.508 140.586 58.6165C140.475 58.7249 140.325 58.7859 140.168 58.7859Z" fill="#C7C7C7"/>
<path d="M140.168 71.1186H123.096C123.018 71.1188 122.941 71.104 122.869 71.075C122.797 71.0461 122.732 71.0035 122.677 70.9498C122.622 70.896 122.578 70.8322 122.549 70.762C122.519 70.6917 122.503 70.6164 122.503 70.5403C122.503 70.4642 122.519 70.3889 122.549 70.3187C122.578 70.2484 122.622 70.1846 122.677 70.1308C122.732 70.0771 122.797 70.0346 122.869 70.0056C122.941 69.9766 123.018 69.9618 123.096 69.962H140.168C140.325 69.9624 140.475 70.0235 140.585 70.1319C140.696 70.2403 140.758 70.3872 140.758 70.5403C140.758 70.6934 140.696 70.8403 140.585 70.9487C140.475 71.0572 140.325 71.1182 140.168 71.1186Z" fill="#C7C7C7"/>
<path d="M147.101 64.9563H116.163C116.006 64.9563 115.856 64.8953 115.745 64.7869C115.634 64.6784 115.572 64.5313 115.572 64.378C115.572 64.2246 115.634 64.0775 115.745 63.969C115.856 63.8605 116.006 63.7996 116.163 63.7996H147.101C147.258 63.7996 147.408 63.8605 147.519 63.969C147.63 64.0775 147.692 64.2246 147.692 64.378C147.692 64.5313 147.63 64.6784 147.519 64.7869C147.408 64.8953 147.258 64.9563 147.101 64.9563Z" fill="#C7C7C7"/>
<path d="M147.417 76.1331H136.241C136.163 76.1331 136.086 76.1181 136.015 76.0891C135.943 76.06 135.878 76.0174 135.823 75.9637C135.768 75.91 135.725 75.8463 135.695 75.7761C135.665 75.7059 135.65 75.6307 135.65 75.5548C135.65 75.4788 135.665 75.4036 135.695 75.3335C135.725 75.2633 135.768 75.1995 135.823 75.1458C135.878 75.0921 135.943 75.0495 136.015 75.0205C136.086 74.9914 136.163 74.9764 136.241 74.9764H147.417C147.574 74.9764 147.724 75.0374 147.835 75.1458C147.946 75.2543 148.008 75.4014 148.008 75.5548C148.008 75.7082 147.946 75.8553 147.835 75.9637C147.724 76.0722 147.574 76.1331 147.417 76.1331Z" fill="#C7C7C7"/>
<path d="M222.911 57.4684H211.578C211.283 57.468 211.002 57.3535 210.794 57.1499C210.586 56.9463 210.469 56.6703 210.468 56.3824V45.4218C210.469 45.1339 210.586 44.8579 210.794 44.6543C211.002 44.4507 211.283 44.3362 211.578 44.3359H222.911C223.205 44.3362 223.487 44.4507 223.695 44.6543C223.902 44.8579 224.019 45.1339 224.02 45.4218V56.3824C224.019 56.6703 223.902 56.9463 223.695 57.1499C223.487 57.3535 223.205 57.468 222.911 57.4684Z" fill="#F2F2F2"/>
<path d="M224.797 58.392H213.464C213.17 58.3917 212.888 58.2772 212.68 58.0736C212.472 57.87 212.355 57.594 212.355 57.3061V46.3455C212.355 46.0576 212.472 45.7815 212.68 45.5779C212.888 45.3744 213.17 45.2598 213.464 45.2595H224.797C225.091 45.2598 225.373 45.3744 225.581 45.5779C225.789 45.7815 225.906 46.0576 225.907 46.3455V57.3061C225.906 57.594 225.789 57.87 225.581 58.0736C225.373 58.2772 225.091 58.3917 224.797 58.392Z" fill="#C7C7C7"/>
<path d="M211.815 44.6594C211.546 44.6594 211.287 44.7642 211.096 44.9508C210.906 45.1374 210.799 45.3905 210.799 45.6544V56.1498C210.799 56.4137 210.906 56.6668 211.096 56.8534C211.287 57.04 211.546 57.1448 211.815 57.1448H218.745C220.056 57.1448 221.314 56.6348 222.241 55.7269C223.168 54.8191 223.689 53.5878 223.689 52.3039V45.6544C223.689 45.3905 223.582 45.1374 223.392 44.9508C223.201 44.7642 222.943 44.6594 222.673 44.6594H211.815Z" fill="white"/>
<path d="M220.279 47.8446H214.185C214.129 47.8446 214.075 47.8229 214.036 47.7841C213.996 47.7454 213.974 47.6929 213.974 47.6382C213.974 47.5834 213.996 47.5309 214.036 47.4922C214.075 47.4534 214.129 47.4317 214.185 47.4317H220.279C220.335 47.4317 220.389 47.4534 220.428 47.4922C220.468 47.5309 220.49 47.5834 220.49 47.6382C220.49 47.6929 220.468 47.7454 220.428 47.7841C220.389 47.8229 220.335 47.8446 220.279 47.8446Z" fill="#C7C7C7"/>
<path d="M220.279 52.2469H214.185C214.129 52.2469 214.075 52.2252 214.036 52.1865C213.996 52.1478 213.974 52.0952 213.974 52.0405C213.974 51.9857 213.996 51.9332 214.036 51.8945C214.075 51.8558 214.129 51.834 214.185 51.834H220.279C220.335 51.834 220.389 51.8558 220.428 51.8945C220.468 51.9332 220.49 51.9857 220.49 52.0405C220.49 52.0952 220.468 52.1478 220.428 52.1865C220.389 52.2252 220.335 52.2469 220.279 52.2469Z" fill="#C7C7C7"/>
<path d="M222.754 50.0472H211.71C211.654 50.0472 211.601 50.0255 211.561 49.9868C211.522 49.9481 211.499 49.8955 211.499 49.8408C211.499 49.786 211.522 49.7335 211.561 49.6948C211.601 49.6561 211.654 49.6343 211.71 49.6343H222.754C222.81 49.6343 222.864 49.6561 222.903 49.6948C222.943 49.7335 222.965 49.786 222.965 49.8408C222.965 49.8955 222.943 49.9481 222.903 49.9868C222.864 50.0255 222.81 50.0472 222.754 50.0472Z" fill="#C7C7C7"/>
<path d="M222.867 54.0369H218.877C218.821 54.0369 218.768 54.0152 218.728 53.9765C218.689 53.9377 218.666 53.8852 218.666 53.8305C218.666 53.7757 218.689 53.7232 218.728 53.6845C218.768 53.6458 218.821 53.624 218.877 53.624H222.867C222.923 53.624 222.977 53.6458 223.016 53.6845C223.056 53.7232 223.078 53.7757 223.078 53.8305C223.078 53.8852 223.056 53.9377 223.016 53.9765C222.977 54.0152 222.923 54.0369 222.867 54.0369Z" fill="#C7C7C7"/>
<path d="M92.9935 206.121C92.818 206.129 92.6443 206.084 92.4959 205.992C92.3474 205.9 92.2315 205.765 92.1637 205.607C92.0959 205.448 92.0796 205.273 92.117 205.105C92.1543 204.937 92.2436 204.784 92.3725 204.667L92.4313 204.439C92.4235 204.42 92.4158 204.402 92.4079 204.384C92.2311 203.975 91.9349 203.626 91.5564 203.382C91.1779 203.137 90.7341 203.008 90.2806 203.009C89.8272 203.011 89.3843 203.144 89.0077 203.391C88.6311 203.638 88.3375 203.989 88.1638 204.399C87.4696 206.036 86.5859 207.676 86.3682 209.406C86.2724 210.171 86.3128 210.947 86.4877 211.698C84.8574 208.216 84.0108 204.432 84.0053 200.601C84.005 199.64 84.0595 198.68 84.1687 197.724C84.2589 196.941 84.3841 196.164 84.5442 195.392C85.4181 191.203 87.2943 187.277 90.0187 183.937C91.3373 183.232 92.4037 182.149 93.0742 180.833C93.3171 180.36 93.4887 179.855 93.5838 179.334C93.4351 179.353 93.023 177.135 93.1352 176.999C92.9279 176.691 92.5568 176.537 92.3304 176.237C91.2045 174.742 89.6532 175.003 88.8434 177.034C87.1133 177.889 87.0966 179.307 88.1581 180.67C88.8335 181.538 88.9262 182.712 89.5188 183.641C89.4578 183.717 89.3944 183.791 89.3335 183.867C88.2191 185.27 87.2478 186.777 86.4335 188.365C86.6316 186.586 86.3952 184.786 85.744 183.113C85.084 181.554 83.8469 180.241 82.7574 178.893C82.4693 178.531 82.078 178.261 81.633 178.117C81.188 177.972 80.7093 177.961 80.2574 178.082C79.8055 178.204 79.4006 178.455 79.0941 178.802C78.7875 179.149 78.5929 179.578 78.5349 180.033C78.5327 180.053 78.5305 180.073 78.5284 180.093C78.6902 180.182 78.8486 180.277 79.0036 180.377C79.1983 180.505 79.3492 180.687 79.4364 180.899C79.5237 181.112 79.5433 181.346 79.4926 181.57C79.442 181.793 79.3235 181.997 79.1526 182.154C78.9817 182.31 78.7665 182.413 78.535 182.448L78.5113 182.452C78.569 183.023 78.6709 183.588 78.8162 184.144C77.4186 189.436 80.4359 191.363 84.7442 191.45C84.8393 191.498 84.932 191.546 85.0271 191.591C84.209 193.861 83.6959 196.225 83.5006 198.624C83.39 200.04 83.3965 201.462 83.5201 202.877L83.5128 202.826C83.2006 201.254 82.3436 199.834 81.0864 198.808C79.2192 197.307 76.5812 196.754 74.5668 195.546C74.3528 195.412 74.1038 195.34 73.8494 195.339C73.595 195.339 73.3457 195.409 73.131 195.543C72.9163 195.677 72.745 195.867 72.6374 196.093C72.5298 196.319 72.4904 196.57 72.5239 196.817L72.5321 196.87C72.8324 196.989 73.1248 197.127 73.4075 197.283C73.5693 197.372 73.7277 197.467 73.8827 197.567C74.0774 197.695 74.2283 197.877 74.3155 198.089C74.4028 198.302 74.4224 198.536 74.3717 198.76C74.3211 198.983 74.2026 199.187 74.0317 199.344C73.8608 199.5 73.6456 199.603 73.4141 199.638L73.3904 199.642C73.3734 199.644 73.3587 199.646 73.3417 199.649C73.8548 200.848 74.5749 201.952 75.4705 202.912C76.3444 207.532 80.0977 207.97 84.1126 206.625H84.1151C84.5556 208.499 85.1938 210.323 86.0196 212.068H92.823C92.8474 211.994 92.8694 211.918 92.8913 211.844C92.2616 211.883 91.6293 211.846 91.0088 211.734C91.5135 211.128 92.0183 210.517 92.5231 209.91C92.5344 209.899 92.5449 209.887 92.5548 209.874C92.8109 209.564 93.0693 209.256 93.3254 208.946L93.3255 208.945C93.3392 207.994 93.2274 207.045 92.9935 206.121Z" fill="#F2F2F2"/>
<path d="M1.98961e-06 212.088C-0.000173976 212.146 0.0113237 212.203 0.0338415 212.257C0.0563593 212.31 0.0894491 212.359 0.131207 212.4C0.172964 212.441 0.222567 212.473 0.277159 212.495C0.331751 212.517 0.390254 212.528 0.449306 212.528H96.078C96.1972 212.528 96.3115 212.482 96.3957 212.399C96.48 212.317 96.5273 212.205 96.5273 212.088C96.5273 211.972 96.48 211.86 96.3957 211.777C96.3115 211.695 96.1972 211.648 96.078 211.648H0.449306C0.390255 211.648 0.33175 211.659 0.277159 211.682C0.222568 211.704 0.172969 211.736 0.131212 211.777C0.0894553 211.818 0.0563658 211.866 0.0338473 211.92C0.0113288 211.973 -0.000171971 212.03 1.98961e-06 212.088Z" fill="#CCCCCC"/>
<path d="M40.9576 25.9242L43.2267 25.8091C42.477 25.9302 41.716 25.9688 40.9576 25.9242Z" fill="#F2F2F2"/>
<path d="M54.4777 34.921L54.1039 35.3867L53.0996 36.6361L44.4274 47.4335L31.8287 34.8064L32.3308 34.4145L35.0038 28.8514L48.7352 27.9272L52.8429 34.2704L54.4777 34.921Z" fill="#3F3D56"/>
</g>
<defs>
<clipPath id="clip0_133_153">
<rect width="308" height="212.365" fill="white" transform="translate(0 0.163086)"/>
</clipPath>
</defs>
</svg>
