<svg width="331" height="339" viewBox="0 0 331 339" fill="none" xmlns="http://www.w3.org/2000/svg">
<g clip-path="url(#clip0_34_586)">
<path d="M294.308 29.1757H33.2143C23.6365 29.1757 15.8482 35.7482 15.8482 43.8309V194.821C15.8482 202.904 23.6365 209.477 33.2143 209.477H294.308C303.886 209.477 311.674 202.904 311.674 194.821V43.8309C311.674 35.7482 303.886 29.1757 294.308 29.1757Z" fill="#F2F2F2"/>
<path d="M294.805 40.806H33.7109C24.1331 40.806 16.3448 47.3785 16.3448 55.4612V206.452C16.3448 214.534 24.1331 221.107 33.7109 221.107H294.805C304.383 221.107 312.171 214.534 312.171 206.452V55.4612C312.171 47.3785 304.383 40.806 294.805 40.806ZM310.345 162.011C310.345 193.798 279.81 219.566 242.144 219.566H33.7109C25.1284 219.566 18.1709 213.694 18.1709 206.452V55.4612C18.1709 48.2184 25.1283 42.347 33.7108 42.347H294.805C303.387 42.347 310.345 48.2184 310.345 55.4612V162.011Z" fill="#3F3D56"/>
<path d="M45.1665 188.385L43.6213 187.564C44.6258 186.217 45.6623 184.911 46.7011 183.682L48.1874 184.578C47.1687 185.782 46.1527 187.063 45.1665 188.385Z" fill="#CCCCCC"/>
<path d="M55.2354 177.403L53.9283 176.327C56.7147 173.917 59.6473 171.848 62.6441 170.178L63.6508 171.464C60.7623 173.074 57.9309 175.072 55.2354 177.403ZM100.792 167.676C98.6117 167.676 96.6251 167.44 95.1378 167.235L95.433 165.714C96.9399 165.922 98.7548 166.135 100.792 166.135C102.592 166.135 104.36 165.968 106.199 165.625L106.593 167.13C104.623 167.497 102.726 167.676 100.792 167.676ZM73.4682 167.472L72.919 166.002C74.8806 165.48 76.9126 165.089 78.9585 164.839C80.7155 164.624 82.3954 164.52 84.0935 164.52H84.2059V166.061H84.0935C82.4836 166.061 80.8898 166.16 79.2202 166.364C77.2715 166.602 75.3358 166.975 73.4682 167.472ZM116.994 163.018L115.827 161.833C118.347 160.067 120.153 157.931 122.065 155.67L122.828 154.77L124.31 155.671L123.552 156.565C121.569 158.91 119.696 161.125 116.994 163.018ZM131.639 148.889L130.515 147.674C132.977 146.053 135.758 144.739 139.017 143.659C139.572 143.474 140.102 143.31 140.611 143.163L141.201 144.622C140.716 144.761 140.213 144.917 139.685 145.093C136.591 146.119 133.96 147.36 131.639 148.889ZM153.684 143.536C153.07 143.536 152.487 143.531 151.927 143.526L151.949 141.985C152.521 141.991 153.118 141.992 153.751 141.995C155.899 141.995 158.892 141.944 162.997 141.543L163.208 143.073C158.967 143.488 155.927 143.531 153.684 143.536ZM174.316 141.518L173.954 140.008C177.234 139.448 181.05 138.782 184.827 137.959L185.283 139.452C181.463 140.283 177.619 140.955 174.316 141.518ZM196.04 136.53L195.357 135.101C199.018 133.855 202.198 132.45 205.077 130.805L206.1 132.082C203.113 133.788 199.822 135.243 196.04 136.53ZM214.49 125.519L213.008 124.618C213.518 124.021 213.958 123.439 214.384 122.876C215.641 121.215 216.942 119.497 220.038 117.388L220.255 117.241L221.386 118.45L221.185 118.586C218.32 120.538 217.156 122.077 215.923 123.706C215.484 124.287 215.029 124.887 214.49 125.519ZM230.872 113.961L230.206 112.526C233.46 111.449 237.136 110.583 241.131 109.95L241.468 111.465C237.586 112.08 234.02 112.92 230.872 113.961Z" fill="#CCCCCC"/>
<path d="M252.63 110.333L252.516 108.795C254.29 108.702 256.145 108.64 258.03 108.611L258.063 110.152C256.205 110.18 254.377 110.241 252.63 110.333Z" fill="#CCCCCC"/>
<path d="M58.091 57.504H32.4709C31.1836 57.504 30.1335 58.3901 30.1335 59.4765C30.1335 60.5706 31.1836 61.4567 32.4709 61.4567H58.091C59.3784 61.4567 60.4284 60.5706 60.4284 59.4765C60.4284 58.3901 59.3784 57.504 58.091 57.504Z" fill="#E6E6E6"/>
<path d="M101.004 57.504H75.384C74.0966 57.504 73.0466 58.3901 73.0466 59.4765C73.0466 60.5706 74.0966 61.4567 75.384 61.4567H101.004C102.291 61.4567 103.341 60.5706 103.341 59.4765C103.341 58.3901 102.291 57.504 101.004 57.504Z" fill="#E6E6E6"/>
<path d="M143.917 57.504H118.297C117.01 57.504 115.96 58.3901 115.96 59.4765C115.96 60.5706 117.01 61.4567 118.297 61.4567H143.917C145.204 61.4567 146.254 60.5706 146.254 59.4765C146.254 58.3901 145.204 57.504 143.917 57.504Z" fill="#E6E6E6"/>
<path d="M262.934 187.204H30.1079V188.745H262.934V187.204Z" fill="#E6E6E6"/>
<path d="M250.635 51.1531C234.064 51.5152 221.701 55.6298 213.867 63.3658C210.973 66.2321 209.795 68.4897 208.553 70.8783C207.321 73.2361 206.061 75.6632 203.13 78.83V76.2103C204.947 73.9604 205.924 72.0803 206.882 70.2542C208.179 67.7577 209.411 65.3999 212.479 62.3718C220.66 54.2814 233.479 49.9896 250.581 49.6121L250.635 51.1531Z" fill="#CCCCCC"/>
<path d="M208.553 70.0058C207.321 72.3636 206.061 74.7907 203.13 77.9576C202.783 78.3351 202.408 78.7281 202.007 79.1365C191.434 89.7465 177.309 93.2292 165.951 96.0339C165.238 96.2111 164.544 96.3729 163.869 96.527C153.771 98.8385 148.237 98.7538 144.12 98.6998C139.984 98.6382 137.254 98.5997 132.369 100.957C123.412 105.265 119.741 111.567 116.19 117.662C112.528 123.934 109.077 129.86 100.275 132.641C94.167 134.567 89.8758 133.612 85.3379 132.61C81.4392 131.74 74.4126 110.308 68.191 107.183C55.3444 109.456 47.5379 144.885 37.7957 163.855L36.1157 163.238C46.1136 143.79 54.3492 108.062 67.8074 105.673C73.8061 104.61 81.704 130.206 85.8035 131.115C90.0583 132.063 94.0666 132.949 99.6362 131.193C107.762 128.634 110.903 123.233 114.546 116.984C118.052 110.974 122.024 104.163 131.456 99.6168C136.779 97.051 139.874 97.0972 144.147 97.1588C148.219 97.2205 153.716 97.2975 163.869 94.9321C164.38 94.8088 164.901 94.6855 165.439 94.5545C176.56 91.8114 190.393 88.398 200.601 78.1502C201.605 77.1408 202.436 76.2085 203.13 75.3378C204.947 73.0879 205.924 71.2078 206.882 69.3817C208.179 66.8852 209.795 67.6172 208.553 70.0058Z" fill="#6C63FF"/>
<path d="M60.092 271.729C59.3692 269.605 58.1315 267.794 56.658 266.502L51.3042 245.906L39.6344 248.318L46.3218 268.951C45.882 270.697 45.97 272.781 46.6928 274.905C48.3439 279.757 52.682 282.979 56.3821 282.102C60.0822 281.226 61.7431 276.581 60.092 271.729Z" fill="#AF6152"/>
<path d="M58.4775 136.626C58.4775 136.626 40.0484 136.308 35.3623 147.633C31.0971 157.942 26.0407 186.264 28.7741 187.9L40.4087 257.621L56.9995 255.697L52.7415 172.043L58.4775 136.626Z" fill="#17882C"/>
<path d="M141.915 265.026L138.646 338.225H95.2768L93.5238 305.424L85.8177 338.225H39.3347L45.1325 281.839L51.122 269.981L55.1759 261.944L141.915 265.026Z" fill="#3D3131"/>
<path d="M107.219 121.71L77.089 120.169L67.0455 130.956L45.1325 137.891L55.1759 220.336L50.6107 269.649C50.6107 269.649 114.524 312.798 141.915 265.026L134.611 207.237L136.437 140.203L115.437 132.497L107.219 121.71Z" fill="#17882C"/>
<path d="M170.804 102.957C171.131 105.628 170.716 108.14 169.76 110.154L174.779 135.436L160.454 137.1L156.905 111.275C155.481 109.468 154.466 107.08 154.139 104.409C153.392 98.3064 156.517 93.0341 161.119 92.633C165.721 92.2319 170.057 96.854 170.804 102.957Z" fill="#AF6152"/>
<path d="M145.852 143.097C140.914 135.974 128.663 135.302 123.177 142.134C121.677 144.002 122.095 146.101 121.737 148.623C120.216 159.33 144.53 190.971 161.354 194.614C163.562 195.092 164.819 197.101 167.047 197.505C173.648 198.703 179.794 194.281 179.438 188.591L174.868 115.617L155.669 121.144L156.898 159.03L145.852 143.097Z" fill="#17882C"/>
<path d="M93.4424 118.373C108.077 118.373 119.941 108.217 119.941 95.6893C119.941 83.1617 108.077 73.0061 93.4424 73.0061C78.8076 73.0061 66.9438 83.1617 66.9438 95.6893C66.9438 108.217 78.8076 118.373 93.4424 118.373Z" fill="#AF6152"/>
<path d="M121.862 79.3317C121.633 79.378 125.355 76.3166 125.514 76.2497C129.166 74.7086 125.413 89.7722 122.775 89.3485C116.283 88.3082 113.48 86.2433 110.96 91.398C110.257 92.8312 109.819 94.4493 108.449 95.4741C106.568 96.8687 103.446 96.7531 101.912 98.4174C100.679 99.7581 101.035 101.731 101.948 103.241C102.861 104.759 104.249 106.046 105.08 107.594C106.011 109.336 102.039 114.876 100.524 117.989V117.996L100.515 118.014C100.112 118.831 99.155 116.479 98.1446 116.244C96.9355 115.963 95.1543 118.372 93.2285 117.935C93.2194 117.935 93.2103 117.927 93.2011 117.927C91.3659 117.495 89.3207 117.033 87.2938 116.571H87.2846C81.5781 115.261 80.1355 117.141 79.8616 117.087L76.319 113.959C75.1032 113.212 75.2406 110.8 74.3833 110.152C73.6822 109.623 71.9344 110.847 71.4192 110.338C68.8934 107.841 68.3123 105.344 66.8233 100.413C65.4629 95.9056 62.6416 82.4138 68.4394 81.8051C73.9085 81.2272 69.9094 74.8011 75.4151 75.04C75.0864 73.8688 75.6981 72.6128 76.6933 71.7498C77.6794 70.8792 78.9942 70.3398 80.3181 69.8775C86.8464 67.6276 85.7599 65.6936 92.6442 67.0035C93.329 66.1944 103.272 66.7338 104.514 67.0035C104.605 67.0189 101.437 67.6584 106.34 67.0035C106.157 67.9512 109.262 68.3673 109.079 69.315C109.764 68.5368 117.123 73.0058 117.296 73.9381C117.525 75.1016 115.443 74.5083 116.831 74.6855C117.652 74.7934 119.059 76.2034 118.922 76.9046C119.515 76.2265 120.109 75.5562 120.711 74.8781C120.821 74.8858 120.921 74.9013 121.031 74.9166C123.806 75.3636 120.624 83.0209 120.739 80.6339C120.949 76.2497 124.628 78.8155 121.862 79.3317Z" fill="#2F2E41"/>
<path d="M282.665 214.567H268.25C267.886 214.567 267.591 214.317 267.591 214.011C267.591 213.704 267.886 213.455 268.25 213.455H282.665C283.028 213.455 283.324 213.704 283.324 214.011C283.324 214.317 283.028 214.567 282.665 214.567Z" fill="#E6E6E6"/>
<path d="M282.665 226.427H268.25C267.886 226.427 267.591 226.178 267.591 225.871C267.591 225.564 267.886 225.315 268.25 225.315H282.665C283.028 225.315 283.324 225.564 283.324 225.871C283.324 226.178 283.028 226.427 282.665 226.427Z" fill="#E6E6E6"/>
<path d="M290.4 220.501H260.515C260.151 220.501 259.855 220.251 259.855 219.945C259.855 219.638 260.151 219.389 260.515 219.389H290.4C290.764 219.389 291.059 219.638 291.059 219.945C291.059 220.251 290.764 220.501 290.4 220.501Z" fill="#E6E6E6"/>
<path d="M290.753 231.249H278.282C277.919 231.249 277.623 231 277.623 230.693C277.623 230.387 277.919 230.137 278.282 230.137H290.753C291.116 230.137 291.412 230.387 291.412 230.693C291.412 231 291.116 231.249 290.753 231.249Z" fill="#E6E6E6"/>
</g>
<defs>
<clipPath id="clip0_34_586">
<rect width="331" height="337.631" fill="white" transform="translate(0 0.594238)"/>
</clipPath>
</defs>
</svg>
