<svg width="319" height="227" viewBox="0 0 319 227" fill="none" xmlns="http://www.w3.org/2000/svg">
<g clip-path="url(#clip0_133_74)">
<path d="M203.283 169.851V224.347H63.6351C47.7241 224.347 34.7788 212.123 34.7788 197.099C34.7788 182.075 47.7241 169.851 63.6351 169.851H203.283Z" fill="#F2F2F2"/>
<path d="M206.713 223.928C206.713 224.483 206.487 225.016 206.085 225.409C205.683 225.802 205.138 226.023 204.569 226.024H61.1477C53.3582 226.024 45.8878 222.998 40.3798 217.613C34.8718 212.228 31.7774 204.924 31.7774 197.309C31.7774 189.693 34.8718 182.389 40.3798 177.004C45.8878 171.619 53.3582 168.594 61.1477 168.594H204.569C205.138 168.594 205.683 168.815 206.085 169.208C206.487 169.601 206.713 170.134 206.713 170.69C206.713 171.246 206.487 171.779 206.085 172.172C205.683 172.565 205.138 172.786 204.569 172.786H61.1477C54.4954 172.786 48.1155 175.369 43.4116 179.968C38.7077 184.567 36.0651 190.805 36.0651 197.309C36.0651 203.813 38.7077 210.05 43.4116 214.649C48.1155 219.248 54.4954 221.832 61.1477 221.832H204.569C205.138 221.832 205.683 222.053 206.085 222.446C206.487 222.839 206.713 223.372 206.713 223.928Z" fill="#17882C"/>
<path d="M203.283 182.427H53.2156C53.1019 182.427 52.9929 182.383 52.9125 182.304C52.832 182.226 52.7869 182.119 52.7869 182.008C52.7869 181.897 52.832 181.79 52.9125 181.712C52.9929 181.633 53.1019 181.589 53.2156 181.589H203.283C203.397 181.589 203.506 181.633 203.586 181.712C203.666 181.79 203.712 181.897 203.712 182.008C203.712 182.119 203.666 182.226 203.586 182.304C203.506 182.383 203.397 182.427 203.283 182.427Z" fill="#CCCCCC"/>
<path d="M203.283 192.488H53.2156C53.1019 192.488 52.9929 192.444 52.9125 192.365C52.832 192.287 52.7869 192.18 52.7869 192.069C52.7869 191.958 52.832 191.851 52.9125 191.772C52.9929 191.694 53.1019 191.65 53.2156 191.65H203.283C203.397 191.65 203.506 191.694 203.586 191.772C203.666 191.851 203.712 191.958 203.712 192.069C203.712 192.18 203.666 192.287 203.586 192.365C203.506 192.444 203.397 192.488 203.283 192.488Z" fill="#CCCCCC"/>
<path d="M203.283 202.549H53.2156C53.1019 202.549 52.9929 202.504 52.9125 202.426C52.832 202.347 52.7869 202.241 52.7869 202.129C52.7869 202.018 52.832 201.912 52.9125 201.833C52.9929 201.754 53.1019 201.71 53.2156 201.71H203.283C203.397 201.71 203.506 201.754 203.586 201.833C203.666 201.912 203.712 202.018 203.712 202.129C203.712 202.241 203.666 202.347 203.586 202.426C203.506 202.504 203.397 202.549 203.283 202.549Z" fill="#CCCCCC"/>
<path d="M203.283 212.609H53.2156C53.1019 212.609 52.9929 212.565 52.9125 212.487C52.832 212.408 52.7869 212.301 52.7869 212.19C52.7869 212.079 52.832 211.972 52.9125 211.894C52.9929 211.815 53.1019 211.771 53.2156 211.771H203.283C203.397 211.771 203.506 211.815 203.586 211.894C203.666 211.972 203.712 212.079 203.712 212.19C203.712 212.301 203.666 212.408 203.586 212.487C203.506 212.565 203.397 212.609 203.283 212.609Z" fill="#CCCCCC"/>
<path d="M311.21 180.109L276.238 222.544L167.497 136.881C155.108 127.121 152.872 109.662 162.513 97.9631C172.155 86.2642 190.08 84.6867 202.469 94.4469L311.21 180.109Z" fill="#F2F2F2"/>
<path d="M279.178 224.322C278.821 224.754 278.303 225.031 277.738 225.09C277.173 225.15 276.606 224.987 276.164 224.639L164.484 136.661C158.419 131.883 154.543 124.945 153.71 117.373C152.877 109.801 155.154 102.215 160.042 96.2852C164.929 90.355 172.026 86.5659 179.77 85.7514C187.515 84.9368 195.274 87.1636 201.339 91.9418L313.019 179.919C313.238 180.092 313.421 180.305 313.556 180.547C313.691 180.788 313.776 181.054 313.806 181.327C313.836 181.601 313.811 181.878 313.732 182.142C313.652 182.406 313.521 182.653 313.344 182.867C313.167 183.082 312.949 183.26 312.702 183.392C312.455 183.524 312.183 183.607 311.903 183.636C311.623 183.666 311.34 183.641 311.07 183.563C310.8 183.485 310.548 183.356 310.329 183.183L198.649 95.206C196.084 93.184 193.137 91.6758 189.976 90.7675C186.815 89.8593 183.502 89.5688 180.226 89.9127C176.95 90.2566 173.776 91.2281 170.884 92.7718C167.992 94.3154 165.44 96.401 163.373 98.9093C161.306 101.418 159.764 104.299 158.836 107.39C157.909 110.481 157.613 113.72 157.966 116.923C158.319 120.126 159.314 123.229 160.894 126.056C162.474 128.882 164.608 131.377 167.174 133.397L278.854 221.374C279.296 221.723 279.579 222.23 279.64 222.782C279.701 223.335 279.535 223.889 279.178 224.322Z" fill="#CCCCCC"/>
<path d="M303.14 189.902L186.285 97.8479C186.241 97.8134 186.205 97.7707 186.178 97.7224C186.151 97.6741 186.134 97.6211 186.128 97.5663C186.122 97.5116 186.127 97.4562 186.143 97.4034C186.159 97.3506 186.185 97.3013 186.22 97.2585C186.256 97.2156 186.299 97.18 186.349 97.1536C186.398 97.1272 186.452 97.1106 186.508 97.1047C186.564 97.0988 186.621 97.1038 186.675 97.1193C186.729 97.1348 186.779 97.1605 186.823 97.1951L303.678 189.249C303.722 189.284 303.758 189.326 303.785 189.375C303.812 189.423 303.829 189.476 303.835 189.531C303.841 189.586 303.836 189.641 303.821 189.694C303.805 189.747 303.778 189.796 303.743 189.839C303.708 189.882 303.664 189.918 303.614 189.944C303.565 189.97 303.511 189.987 303.455 189.993C303.399 189.999 303.342 189.994 303.288 189.978C303.234 189.962 303.183 189.937 303.14 189.902Z" fill="#CCCCCC"/>
<path d="M296.683 197.736L179.829 105.682C179.74 105.612 179.684 105.511 179.672 105.4C179.66 105.29 179.693 105.179 179.764 105.093C179.836 105.006 179.939 104.951 180.052 104.939C180.165 104.927 180.278 104.96 180.367 105.029L297.221 197.083C297.265 197.118 297.302 197.16 297.329 197.209C297.356 197.257 297.373 197.31 297.379 197.365C297.385 197.42 297.38 197.475 297.364 197.528C297.348 197.581 297.322 197.63 297.287 197.673C297.251 197.716 297.208 197.752 297.158 197.778C297.109 197.804 297.054 197.821 296.998 197.827C296.942 197.833 296.886 197.828 296.832 197.812C296.777 197.797 296.727 197.771 296.683 197.736Z" fill="#CCCCCC"/>
<path d="M290.227 205.57L173.373 113.516C173.284 113.446 173.227 113.345 173.215 113.234C173.203 113.124 173.236 113.013 173.308 112.927C173.379 112.84 173.483 112.785 173.596 112.773C173.709 112.761 173.822 112.793 173.911 112.863L290.765 204.917C290.809 204.952 290.845 204.995 290.872 205.043C290.899 205.091 290.916 205.144 290.922 205.199C290.928 205.254 290.923 205.309 290.907 205.362C290.891 205.415 290.865 205.464 290.83 205.507C290.794 205.55 290.751 205.585 290.701 205.612C290.652 205.638 290.598 205.655 290.542 205.661C290.486 205.666 290.429 205.661 290.375 205.646C290.321 205.63 290.271 205.605 290.227 205.57Z" fill="#CCCCCC"/>
<path d="M283.77 213.404L166.916 121.35C166.872 121.316 166.836 121.273 166.809 121.225C166.782 121.176 166.765 121.123 166.759 121.069C166.753 121.014 166.758 120.958 166.774 120.906C166.79 120.853 166.816 120.804 166.851 120.761C166.887 120.718 166.93 120.682 166.98 120.656C167.029 120.629 167.083 120.613 167.139 120.607C167.195 120.601 167.252 120.606 167.306 120.621C167.36 120.637 167.41 120.663 167.454 120.697L284.309 212.751C284.352 212.786 284.389 212.829 284.416 212.877C284.443 212.925 284.46 212.978 284.466 213.033C284.472 213.088 284.467 213.143 284.451 213.196C284.436 213.249 284.409 213.298 284.374 213.341C284.338 213.384 284.295 213.42 284.245 213.446C284.196 213.472 284.142 213.489 284.086 213.495C284.029 213.501 283.973 213.496 283.919 213.48C283.865 213.465 283.814 213.439 283.77 213.404Z" fill="#CCCCCC"/>
<path d="M318.571 226.443H0.428763C0.315048 226.443 0.20599 226.399 0.125582 226.32C0.0451728 226.241 0 226.135 0 226.024C0 225.912 0.0451728 225.806 0.125582 225.727C0.20599 225.649 0.315048 225.604 0.428763 225.604H318.571C318.685 225.604 318.794 225.649 318.874 225.727C318.955 225.806 319 225.912 319 226.024C319 226.135 318.955 226.241 318.874 226.32C318.794 226.399 318.685 226.443 318.571 226.443Z" fill="#CCCCCC"/>
<path d="M144.957 164.124L140.055 164.123L137.724 145.638L144.958 145.639L144.957 164.124Z" fill="#FFB8B8"/>
<path d="M136.554 162.754H146.007V168.573H130.602C130.602 167.809 130.756 167.052 131.055 166.346C131.354 165.64 131.792 164.999 132.345 164.458C132.898 163.918 133.554 163.489 134.276 163.197C134.998 162.904 135.772 162.754 136.554 162.754Z" fill="#2F2E41"/>
<path d="M94.8794 164.124L89.9777 164.123L87.6465 145.638L94.8811 145.639L94.8794 164.124Z" fill="#FFB8B8"/>
<path d="M86.4764 162.754H95.9297V168.573H80.5243C80.5243 167.809 80.6783 167.052 80.9774 166.346C81.2765 165.64 81.7149 164.999 82.2676 164.458C82.8203 163.918 83.4765 163.489 84.1986 163.197C84.9208 162.904 85.6947 162.754 86.4764 162.754Z" fill="#2F2E41"/>
<path d="M111.252 27.0095V24.9135C111.252 21.328 112.708 17.8894 115.302 15.354C117.895 12.8187 121.412 11.3944 125.079 11.3944C128.747 11.3944 132.264 12.8187 134.857 15.354C137.45 17.8894 138.907 21.328 138.907 24.9135V27.0095C138.907 29.5943 137.857 32.0733 135.987 33.9011C134.118 35.7289 131.582 36.7557 128.938 36.7557H121.22C119.911 36.7557 118.615 36.5037 117.406 36.0139C116.196 35.5241 115.097 34.8061 114.171 33.9011C113.246 32.9961 112.511 31.9217 112.01 30.7392C111.509 29.5567 111.252 28.2894 111.252 27.0095Z" fill="#2F2E41"/>
<path d="M125.079 37.477C130.895 37.477 135.61 32.8674 135.61 27.1811C135.61 21.4949 130.895 16.8853 125.079 16.8853C119.263 16.8853 114.548 21.4949 114.548 27.1811C114.548 32.8674 119.263 37.477 125.079 37.477Z" fill="#FFB8B8"/>
<path d="M67.798 62.5666C68.2254 62.1721 68.736 61.874 69.294 61.6933C69.8519 61.5125 70.4436 61.4536 71.0274 61.5207C71.6111 61.5877 72.1728 61.7791 72.6727 62.0813C73.1726 62.3835 73.5987 62.7892 73.9209 63.2698L82.9484 61.6003L85.3241 66.7164L72.5417 68.899C71.68 69.3747 70.6698 69.5248 69.7024 69.3209C68.735 69.117 67.8778 68.5733 67.293 67.7928C66.7083 67.0122 66.4368 66.0491 66.5299 65.0859C66.6229 64.1227 67.0742 63.2263 67.798 62.5666Z" fill="#FFB8B8"/>
<path d="M116.987 44.1358L102.184 53.6701L77.2047 61.4685C76.8736 61.5726 76.5896 61.7856 76.4011 62.0713C76.2125 62.357 76.131 62.6978 76.1706 63.0356L76.7155 67.6244C76.7397 67.8275 76.807 68.0234 76.9131 68.1996C77.0193 68.3757 77.1619 68.5283 77.3318 68.6474C77.5018 68.7665 77.6953 68.8496 77.9001 68.8914C78.1048 68.9331 78.3162 68.9325 78.5207 68.8897L102.03 63.963C103.167 63.726 104.243 63.2629 105.19 62.6025L121.821 51.034C122.424 50.6124 122.905 50.0454 123.218 49.3881C123.53 48.7309 123.663 48.0058 123.604 47.2833C123.543 46.5599 123.291 45.8644 122.871 45.2653C122.452 44.6663 121.88 44.1843 121.213 43.8667C120.545 43.5491 119.804 43.4069 119.063 43.4541C118.323 43.5013 117.607 43.7362 116.987 44.1358Z" fill="#CCCCCC"/>
<path d="M140.143 158.878C139.766 158.878 139.398 158.771 139.083 158.57C138.768 158.369 138.52 158.082 138.369 157.746L115.897 103.46C115.845 103.342 115.757 103.243 115.645 103.175C115.533 103.108 115.403 103.076 115.271 103.083C115.14 103.09 115.015 103.136 114.911 103.216C114.808 103.295 114.732 103.403 114.693 103.526L96.3597 156.375C96.2824 156.621 96.1543 156.849 95.9835 157.045C95.8127 157.241 95.6028 157.4 95.3666 157.514C95.1304 157.627 94.8729 157.692 94.61 157.705C94.3471 157.718 94.0844 157.678 93.8379 157.587L87.6902 155.333C87.3565 155.212 87.0637 155.003 86.8444 154.729C86.6252 154.454 86.4879 154.126 86.448 153.78C83.6823 130.225 107.8 70.7672 108.044 70.1696L108.112 70.004L130.098 74.7588L130.143 74.8075C138.915 84.1631 146.125 143.171 147.481 154.905C147.532 155.329 147.433 155.757 147.202 156.118C146.97 156.48 146.619 156.754 146.207 156.894L140.781 158.771C140.576 158.842 140.36 158.878 140.143 158.878Z" fill="#2F2E41"/>
<path d="M121.2 76.6726C115.873 76.6726 109.934 75.6342 108.106 71.3485L108.064 71.25L108.121 71.1588C109.564 68.8442 111.471 64.8958 110.446 64.1546C108.427 62.695 107.447 60.2938 107.534 57.0177C107.723 49.9057 112.679 43.5913 119.868 41.3052C121.874 40.6774 123.916 40.1634 125.983 39.7658C127.49 39.4685 129.046 39.5012 130.538 39.8615C132.031 40.2219 133.423 40.9009 134.615 41.8499C135.822 42.8051 136.798 44.0098 137.473 45.3775C138.147 46.7453 138.503 48.2421 138.515 49.7604C138.591 57.3607 137.394 67.9464 131.264 75.214C130.977 75.5512 130.577 75.7785 130.135 75.8559C127.186 76.3774 124.197 76.6506 121.2 76.6726Z" fill="#CCCCCC"/>
<path d="M119.218 76.388C119.508 75.3713 120.197 74.5076 121.134 73.9845C122.072 73.4614 123.183 73.3212 124.225 73.5944C124.438 73.6526 124.646 73.7278 124.846 73.8192L131.701 67.7204L136.468 70.8603L126.665 79.341C126.223 80.1212 125.526 80.7343 124.686 81.0827C123.846 81.4311 122.911 81.4948 122.029 81.2637C121.516 81.1263 121.035 80.8907 120.615 80.5707C120.196 80.2506 119.845 79.8524 119.584 79.399C119.322 78.9456 119.155 78.4461 119.093 77.9293C119.03 77.4124 119.073 76.8886 119.218 76.388Z" fill="#FFB8B8"/>
<path d="M130.615 76.4654C130.17 76.4657 129.739 76.3153 129.395 76.0399L126.692 73.8803C126.466 73.7002 126.286 73.4727 126.163 73.2147C126.04 72.9567 125.979 72.6749 125.984 72.3905C125.988 72.106 126.058 71.8262 126.189 71.572C126.32 71.3179 126.508 71.0959 126.739 70.9228L138.076 62.4216C138.21 62.3203 138.298 62.1713 138.321 62.0069C138.344 61.8426 138.299 61.676 138.197 61.5435L131.2 52.4989C130.387 51.4515 129.979 50.1568 130.049 48.8438C130.118 47.5307 130.661 46.2841 131.58 45.3247C132.549 44.3022 133.875 43.673 135.295 43.5619C136.716 43.4508 138.128 43.8659 139.25 44.7249L139.294 44.7706L146.601 54.9999C147.391 55.6056 148.028 56.3817 148.46 57.2675C148.893 58.1534 149.11 59.125 149.095 60.1066C149.08 61.0881 148.833 62.053 148.374 62.9259C147.915 63.7987 147.255 64.5559 146.447 65.1384L131.764 76.0956C131.431 76.3358 131.028 76.4654 130.615 76.4654Z" fill="#CCCCCC"/>
<path d="M115.751 24.2847V19.1763L125.079 15.194L133.974 19.1763V24.2847C133.974 24.507 133.883 24.7203 133.723 24.8775C133.562 25.0348 133.344 25.1231 133.116 25.1231H116.609C116.381 25.1231 116.163 25.0348 116.002 24.8775C115.842 24.7203 115.751 24.507 115.751 24.2847Z" fill="#2F2E41"/>
<path d="M124.651 12.0721C123.279 7.78016 126.16 2.8614 130.418 1.16254C134.677 -0.536323 139.771 0.651232 143.364 3.458C146.957 6.26477 149.187 10.4688 150.368 14.8145C151.549 19.1602 151.773 23.6917 151.991 28.1832C157.223 29.1228 160.782 35.1897 158.97 40.0792C157.157 44.9688 150.449 47.3979 145.816 44.8423C141.183 42.2867 139.842 35.4168 143.185 31.372C144.767 29.4581 145.651 27.0828 145.697 24.6223C145.742 22.1619 144.947 19.757 143.436 17.7884C141.926 15.8199 139.787 14.4002 137.358 13.7544C134.929 13.1086 132.35 13.2734 130.027 14.2228C127.449 15.2771 124.214 12.5379 124.651 12.0721Z" fill="#2F2E41"/>
<path d="M65.8641 42.7501C59.6002 42.7099 53.4145 41.3854 47.7068 38.8621C47.367 38.7141 47.0786 38.4726 46.8768 38.1671C46.6749 37.8617 46.5682 37.5054 46.5698 37.1417V21.8755C46.5703 21.3754 46.7738 20.8959 47.1355 20.5423C47.4972 20.1886 47.9877 19.9897 48.4992 19.9891H83.2291C83.7406 19.9897 84.231 20.1886 84.5927 20.5423C84.9545 20.8959 85.1579 21.3754 85.1585 21.8755V37.1418C85.16 37.5054 85.0534 37.8617 84.8515 38.1672C84.6496 38.4726 84.3612 38.7141 84.0215 38.8621C78.3138 41.3854 72.1281 42.7099 65.8641 42.7501Z" fill="#17882C"/>
<path d="M65.8594 30.3826C65.6019 30.3829 65.347 30.3327 65.1096 30.2353L37.5693 18.8752C37.2141 18.7288 36.912 18.4816 36.7019 18.1657C36.4917 17.8498 36.3832 17.4796 36.3902 17.1028C36.3973 16.726 36.5196 16.3599 36.7415 16.0517C36.9633 15.7435 37.2745 15.5074 37.6349 15.3737L65.1756 5.15887C65.6192 4.99359 66.1096 4.99461 66.5525 5.16173L93.7241 15.3765C94.0825 15.5113 94.3916 15.7475 94.6119 16.0549C94.8321 16.3624 94.9536 16.7271 94.9607 17.1024C94.9678 17.4777 94.8602 17.8466 94.6517 18.1618C94.4432 18.477 94.1432 18.7242 93.7902 18.8718L66.6182 30.2316C66.3783 30.3315 66.1202 30.3829 65.8594 30.3826Z" fill="#17882C"/>
<path d="M49.7855 39.9009C51.2063 39.9009 52.3581 38.7748 52.3581 37.3857C52.3581 35.9966 51.2063 34.8705 49.7855 34.8705C48.3647 34.8705 47.2129 35.9966 47.2129 37.3857C47.2129 38.7748 48.3647 39.9009 49.7855 39.9009Z" fill="#3F3D56"/>
<path opacity="0.2" d="M93.8841 17.2593L66.712 28.6191C66.5002 28.7077 66.2723 28.7536 66.0419 28.7541C65.8115 28.7547 65.5834 28.7098 65.3711 28.6223L37.8308 17.2626C37.4849 17.1233 37.1964 16.8754 37.0107 16.5579C36.8893 16.7638 36.814 16.9925 36.79 17.229C36.7659 17.4655 36.7936 17.7043 36.8711 17.9295C36.9487 18.1548 37.0744 18.3613 37.2398 18.5354C37.4053 18.7095 37.6067 18.8472 37.8308 18.9394L65.3711 30.2991C65.5834 30.3866 65.8115 30.4315 66.0419 30.4309C66.2723 30.4304 66.5002 30.3844 66.712 30.2959L93.8841 18.936C94.107 18.8431 94.3072 18.7049 94.4715 18.5308C94.6358 18.3566 94.7605 18.1503 94.8372 17.9256C94.914 17.7008 94.9411 17.4627 94.9169 17.2269C94.8926 16.9912 94.8174 16.7631 94.6964 16.5579C94.5121 16.8728 94.2265 17.1194 93.8841 17.2593Z" fill="black"/>
<path d="M50.0017 37.3759C50.1154 37.3759 50.2245 37.3317 50.3049 37.2531C50.3853 37.1745 50.4304 37.0679 50.4304 36.9567V22.9298L64.5716 17.8931C64.6853 17.8948 64.795 17.8522 64.8766 17.7748C64.9582 17.6973 65.005 17.5914 65.0067 17.4802C65.0084 17.369 64.9649 17.2617 64.8857 17.1819C64.8064 17.1022 64.6981 17.0564 64.5843 17.0547L50.4432 22.0914C50.3294 22.0889 50.2163 22.1089 50.1106 22.1504C50.005 22.1918 49.9091 22.2538 49.8286 22.3326C49.7474 22.4104 49.6829 22.5033 49.6389 22.6059C49.595 22.7085 49.5726 22.8186 49.5729 22.9298V36.9567C49.5729 37.0679 49.6181 37.1745 49.6985 37.2531C49.7789 37.3317 49.888 37.3759 50.0017 37.3759Z" fill="#3F3D56"/>
</g>
<defs>
<clipPath id="clip0_133_74">
<rect width="319" height="226.066" fill="white" transform="translate(0 0.376709)"/>
</clipPath>
</defs>
</svg>
